<svg id="Layer_1" data-name="Layer 1" xmlns="http://www.w3.org/2000/svg" viewBox="0 0 104 38"><defs><style>.cls-1{fill:#f68d11;}.cls-2{fill:#100f0d;}</style></defs><title>los logos pack</title><g id="Group"><g id="Group-2" data-name="Group"><g id="path14_1" data-name="path14 1"><path id="path19_fill" data-name="path19 fill" class="cls-1" d="M28.9,13.1l-6-2V2.62l6.06,1.75Z"/></g><g id="path16_1" data-name="path16 1"><path id="path20_fill" data-name="path20 fill" class="cls-1" d="M30.48,4.37l6.06-1.75,0,8.51-6,2Z"/></g><g id="path18_1" data-name="path18 1"><path id="path21_fill" data-name="path21 fill" class="cls-1" d="M35.31,1.69,29.66,0,24.1,1.69l5.58,1.45Z"/></g><g id="path20_1" data-name="path20 1"><path id="path22_fill" data-name="path22 fill" class="cls-1" d="M44.14,13.1l-6-2V2.62l6.06,1.75Z"/></g><g id="path22_1" data-name="path22 1"><path id="path23_fill" data-name="path23 fill" class="cls-1" d="M45.72,4.37l6.06-1.75,0,8.51-6,2Z"/></g><g id="path24_1" data-name="path24 1"><path id="path21_fill-2" data-name="path21 fill" class="cls-1" d="M50.55,1.69,44.9,0,39.34,1.69l5.58,1.45Z"/></g><g id="path26_1" data-name="path26 1"><path id="path24_fill" data-name="path24 fill" class="cls-1" d="M6.06,16.83,0,15.08v8.51l6,2Z"/></g><g id="path28_1" data-name="path28 1"><path id="path25_fill" data-name="path25 fill" class="cls-1" d="M7.62,16.83l6.06-1.75,0,8.51-6,2Z"/></g><g id="path30_1" data-name="path30 1"><path id="path26_fill" data-name="path26 fill" class="cls-1" d="M12.45,14.15,6.8,12.46,1.24,14.15,6.82,15.6Z"/></g><g id="path32_1" data-name="path32 1"><path id="path27_fill" data-name="path27 fill" class="cls-1" d="M21.28,25.56l-6-2V15.08l6.06,1.75Z"/></g><g id="path34_1" data-name="path34 1"><path id="path28_fill" data-name="path28 fill" class="cls-1" d="M22.86,16.83l6.06-1.75,0,8.51-6,2V16.83"/></g><g id="path36_1" data-name="path36 1"><path id="path29_fill" data-name="path29 fill" class="cls-1" d="M27.69,14.15,22,12.46l-5.56,1.69,5.58,1.45Z"/></g><g id="path38_1" data-name="path38 1"><path id="path30_fill" data-name="path30 fill" class="cls-1" d="M13.66,38l-6-2V27.5l6.06,1.75Z"/></g><g id="path40_1" data-name="path40 1"><path id="path31_fill" data-name="path31 fill" class="cls-1" d="M15.24,29.27l6.06-1.75,0,8.51-6,2Z"/></g><g id="path42_1" data-name="path42 1"><path id="path32_fill" data-name="path32 fill" class="cls-1" d="M20.07,26.59,14.42,24.9,8.86,26.59,14.44,28Z"/></g><g id="path44_1" data-name="path44 1"><path id="path33_fill" data-name="path33 fill" class="cls-2" d="M40.44,30.47H40a.47.47,0,0,0-.43.28l-1.34,4.63-1.33-4.61a.4.4,0,0,0-.38-.3H36a.38.38,0,0,0-.36.3l-1.24,4.58L33.1,30.75a.47.47,0,0,0-.43-.28H32a.4.4,0,0,0-.34.16.2.2,0,0,0,0,.19l2,6.83a.4.4,0,0,0,.36.3h.63a.36.36,0,0,0,.36-.3l1.22-4.56,1.33,4.56a.38.38,0,0,0,.36.3h.63a.36.36,0,0,0,.36-.3l1.9-6.83a.19.19,0,0,0,0-.19A.33.33,0,0,0,40.44,30.47Z"/></g><g id="path46_1" data-name="path46 1"><path id="path34_fill" data-name="path34 fill" class="cls-2" d="M45.94,33.37H42.59a1.92,1.92,0,0,1,1.72-1.9A1.76,1.76,0,0,1,45.94,33.37Zm-1.65-3c-2.28,0-3.3,2-3.3,3.77,0,2.27,1.29,3.74,3.28,3.74a3,3,0,0,0,3-1.92.29.29,0,0,0,0-.21.44.44,0,0,0-.25-.17l-.63-.12a.46.46,0,0,0-.43.21,1.7,1.7,0,0,1-1.56,1.08,1.79,1.79,0,0,1-1.58-1,3.06,3.06,0,0,1-.27-1.42h4.57a.4.4,0,0,0,.27-.1.28.28,0,0,0,.09-.19C47.43,32.31,46.58,30.42,44.29,30.42Z"/></g><g id="path48_1" data-name="path48 1"><path id="path35_fill" data-name="path35 fill" class="cls-2" d="M53,34.2c0,.42-.07,2.52-1.6,2.57A1.7,1.7,0,0,1,50.14,36a2.8,2.8,0,0,1-.38-1.35V33.45a2,2,0,0,1,1.69-2C53,31.5,53,33.75,53,34.2Zm-1.36-3.84h-.13a2.07,2.07,0,0,0-1.79.93V28.4a.36.36,0,0,0-.36-.31h-.66a.35.35,0,0,0-.36.31v9a.36.36,0,0,0,.36.31h.2a.4.4,0,0,0,.36-.28l.2-.63a2.44,2.44,0,0,0,2,1h.13c2,0,2.92-1.92,2.92-3.83a4.5,4.5,0,0,0-.66-2.48A2.63,2.63,0,0,0,51.68,30.36Z"/></g><g id="path50_1" data-name="path50 1"><path id="path36_fill" data-name="path36 fill" class="cls-2" d="M61.7,34a3.78,3.78,0,0,0-1.45-.51l-1-.17c-.7-.1-1.11-.3-1.11-.91s.68-.89,1.26-.91a1.63,1.63,0,0,1,1.51.87.38.38,0,0,0,.34.21h.07l.61-.14a.37.37,0,0,0,.25-.17.22.22,0,0,0,0-.21,2.62,2.62,0,0,0-2.78-1.62c-1.31,0-2.71.58-2.71,2.15,0,1.08.7,1.76,2.08,2l1.11.21c.61.1,1.22.31,1.22.94,0,.94-1.11,1-1.45,1a1.88,1.88,0,0,1-1.83-1,.35.35,0,0,0-.41-.23l-.65.12a.43.43,0,0,0-.23.16.29.29,0,0,0,0,.21,3,3,0,0,0,3.07,1.87h0c1.42,0,2.94-.59,2.94-2.25A2.08,2.08,0,0,0,61.7,34Z"/></g><g id="path52_1" data-name="path52 1"><path id="path37_fill" data-name="path37 fill" class="cls-2" d="M68.19,33.38H64.82a1.92,1.92,0,0,1,1.72-1.9A1.73,1.73,0,0,1,68.19,33.38Zm-1.63-3c-2.28,0-3.3,2-3.3,3.77,0,2.27,1.29,3.74,3.28,3.74a3,3,0,0,0,3-1.92.29.29,0,0,0,0-.21.44.44,0,0,0-.25-.17l-.63-.12a.44.44,0,0,0-.43.21,1.7,1.7,0,0,1-1.56,1.08,1.83,1.83,0,0,1-1.58-1,3.06,3.06,0,0,1-.27-1.42h4.55a.4.4,0,0,0,.27-.1.28.28,0,0,0,.09-.19C69.68,32.32,68.85,30.43,66.56,30.43Z"/></g><g id="path54_1" data-name="path54 1"><path id="path38_fill" data-name="path38 fill" class="cls-2" d="M74,30.51a1.3,1.3,0,0,0-.25,0,2,2,0,0,0-1.81,1.19V31a.35.35,0,0,0-.36-.31H71a.35.35,0,0,0-.36.31v6.59a.35.35,0,0,0,.36.31h.66a.37.37,0,0,0,.38-.31V34.26a2.74,2.74,0,0,1,.32-1.45,1.8,1.8,0,0,1,1.63-1,.35.35,0,0,0,.34-.33v-.61A.42.42,0,0,0,74,30.51Z"/></g><g id="path56_1" data-name="path56 1"><path id="path39_fill" data-name="path39 fill" class="cls-2" d="M81,30.38h-.52a.5.5,0,0,0-.43.28l-1.7,5.21-1.74-5.21a.48.48,0,0,0-.43-.3H75.4a.4.4,0,0,0-.34.16.2.2,0,0,0,0,.19l2.38,6.88a.4.4,0,0,0,.36.3h.91a.37.37,0,0,0,.36-.3l2.31-6.87a.19.19,0,0,0,0-.19A.38.38,0,0,0,81,30.38Z"/></g><g id="path58_1" data-name="path58 1"><path id="path40_fill" data-name="path40 fill" class="cls-2" d="M82.72,27.74a.86.86,0,1,0,.88.86A.87.87,0,0,0,82.72,27.74Z"/></g><g id="path60_1" data-name="path60 1"><path id="path41_fill" data-name="path41 fill" class="cls-2" d="M83.07,30.35h-.72a.37.37,0,0,0-.38.33v7a.3.3,0,0,0,.13.23.44.44,0,0,0,.25.09h.72a.37.37,0,0,0,.38-.31v-7A.36.36,0,0,0,83.07,30.35Z"/></g><g id="path62_1" data-name="path62 1"><path id="path42_fill" data-name="path42 fill" class="cls-2" d="M89.8,35.08h-.61a.42.42,0,0,0-.38.26c-.22.93-.72,1.4-1.47,1.42-1.47,0-1.58-2-1.58-2.66,0-1.22.43-2.53,1.65-2.57a1.48,1.48,0,0,1,1.42,1.36.38.38,0,0,0,.34.31h.65a.35.35,0,0,0,.34-.33,2.7,2.7,0,0,0-2.73-2.46h-.11c-2.08,0-3,1.89-3,3.76,0,1.71.79,3.72,3,3.72h.11a2.78,2.78,0,0,0,2.74-2.48.33.33,0,0,0-.07-.21A.53.53,0,0,0,89.8,35.08Z"/></g><g id="path64_1" data-name="path64 1"><path id="path43_fill" data-name="path43 fill" class="cls-2" d="M95.73,33.38H92.36a1.92,1.92,0,0,1,1.72-1.9A1.73,1.73,0,0,1,95.73,33.38Zm-1.63-3c-2.28,0-3.3,2-3.3,3.77,0,2.27,1.29,3.74,3.28,3.74a3,3,0,0,0,3-1.92.29.29,0,0,0,0-.21.44.44,0,0,0-.25-.17l-.63-.12a.44.44,0,0,0-.43.21,1.7,1.7,0,0,1-1.56,1.08,1.83,1.83,0,0,1-1.58-1,3.06,3.06,0,0,1-.27-1.42H96.9a.4.4,0,0,0,.27-.1.28.28,0,0,0,.09-.19C97.22,32.32,96.39,30.43,94.1,30.43Z"/></g><g id="path66_1" data-name="path66 1"><path id="path44_fill" data-name="path44 fill" class="cls-2" d="M103,34a3.78,3.78,0,0,0-1.45-.51l-1-.17c-.7-.1-1.11-.3-1.11-.91,0-.82,1.06-.89,1.26-.91a1.61,1.61,0,0,1,1.51.87.38.38,0,0,0,.34.21h.07l.61-.14a.37.37,0,0,0,.25-.17.22.22,0,0,0,0-.21,2.62,2.62,0,0,0-2.78-1.62c-1.31,0-2.71.58-2.71,2.15,0,1.08.7,1.76,2.08,2l1.11.21c.61.1,1.22.31,1.22.94,0,.94-1.11,1-1.45,1-.7,0-1.61-.3-1.83-1a.35.35,0,0,0-.41-.23l-.65.12a.43.43,0,0,0-.23.16.29.29,0,0,0,0,.21c.32,1.15,1.49,1.85,3.07,1.87h0c1.42,0,2.94-.59,2.94-2.25A2,2,0,0,0,103,34Z"/></g><g id="path68_1" data-name="path68 1"><path id="path45_fill" data-name="path45 fill" class="cls-2" d="M73.67,16.86V15.27a.4.4,0,0,1,.41-.4H81.4a.41.41,0,0,1,.43.4v1.36c0,.23-.2.52-.56,1l-3.78,5.28a8.34,8.34,0,0,1,4.18.87.75.75,0,0,1,.39.61v1.69c0,.23-.27.51-.54.37a8.6,8.6,0,0,0-7.73,0c-.25.14-.52-.14-.52-.37V24.5a1.89,1.89,0,0,1,.27-1.1l4.39-6.13H74.12A.4.4,0,0,1,73.67,16.86Z"/></g><g id="path70_1" data-name="path70 1"><path id="path46_fill" data-name="path46 fill" class="cls-2" d="M47,26.78H44.79a.42.42,0,0,1-.39-.37V15.29a.42.42,0,0,1,.43-.4h2.08a.44.44,0,0,1,.41.37V16.7h0a3.08,3.08,0,0,1,5.81,0,3.32,3.32,0,0,1,5.65-.84c.7.94.56,2.29.56,3.49v7a.42.42,0,0,1-.43.4H56.72a.42.42,0,0,1-.39-.4V20.48a15.93,15.93,0,0,0-.05-2.08,1.15,1.15,0,0,0-1.31-1,1.48,1.48,0,0,0-1.33.91,6.45,6.45,0,0,0-.22,2.13v5.91a.42.42,0,0,1-.43.4H50.75a.42.42,0,0,1-.39-.4V20.48c0-1.24.22-3.06-1.36-3.06s-1.54,1.78-1.54,3.06v5.89A.42.42,0,0,1,47,26.78Z"/></g><g id="path72_1" data-name="path72 1"><path id="path47_fill" data-name="path47 fill" class="cls-2" d="M88.13,16.93c-1.65,0-1.74,2.18-1.74,3.53s0,4.26,1.72,4.26,1.81-2.34,1.81-3.77a9.59,9.59,0,0,0-.34-3A1.38,1.38,0,0,0,88.13,16.93Zm0-2.27c3.3,0,5.09,2.76,5.09,6.27S91.23,27,88.11,27s-5-2.76-5-6.2S84.9,14.66,88.11,14.66Z"/></g><g id="path74_1" data-name="path74 1"><path id="path48_fill" data-name="path48 fill" class="cls-2" d="M97.49,26.78H95.26a.42.42,0,0,1-.39-.4V15.25a.41.41,0,0,1,.43-.37h2.06a.42.42,0,0,1,.39.31v1.69h0a3,3,0,0,1,3-2.25,2.94,2.94,0,0,1,2.6,1.31,7,7,0,0,1,.57,3.46v7a.41.41,0,0,1-.43.35h-2.22a.42.42,0,0,1-.39-.35v-6c0-1.22.14-3-1.4-3a1.46,1.46,0,0,0-1.29.89,5,5,0,0,0-.36,2.11v6A.39.39,0,0,1,97.49,26.78Z"/></g><g id="Vector"><path id="path49_fill" data-name="path49 fill" class="cls-2" d="M42.66,24.74a2.89,2.89,0,0,1-.84-2V19.35c0-1.43.11-2.74-1-3.72a5.11,5.11,0,0,0-3.35-1.08c-2.12,0-4.48.77-5,3.32a.38.38,0,0,0,.34.45l2.15.23a.51.51,0,0,0,.39-.4,1.68,1.68,0,0,1,1.79-1.29,1.51,1.51,0,0,1,1.26.56A2.75,2.75,0,0,1,38.71,19v.28a15.31,15.31,0,0,0-4.18.75,3.68,3.68,0,0,0-2.37,3.55,3.11,3.11,0,0,0,3.34,3.37,4.52,4.52,0,0,0,3.68-1.57,5.65,5.65,0,0,0,1.27,1.45.47.47,0,0,0,.52-.05c.45-.38,1.26-1.07,1.7-1.43A.44.44,0,0,0,42.66,24.74Zm-4.41-1a1.8,1.8,0,0,1-1.54,1c-.86,0-1.34-.63-1.34-1.57,0-1.85,1.7-2.18,3.3-2.18v.47A4.07,4.07,0,0,1,38.25,23.72Z"/></g><g id="Vector-2" data-name="Vector"><path id="path50_fill" data-name="path50 fill" class="cls-2" d="M71.81,24.74a2.89,2.89,0,0,1-.84-2V19.35c0-1.43.11-2.74-1-3.72a5.11,5.11,0,0,0-3.35-1.08c-2.12,0-4.48.77-5,3.32a.38.38,0,0,0,.34.45l2.15.23a.51.51,0,0,0,.39-.4,1.68,1.68,0,0,1,1.79-1.29,1.51,1.51,0,0,1,1.26.56A2.75,2.75,0,0,1,67.86,19v.28a15.31,15.31,0,0,0-4.18.75,3.68,3.68,0,0,0-2.37,3.55,3.11,3.11,0,0,0,3.34,3.37,4.52,4.52,0,0,0,3.68-1.57,5.65,5.65,0,0,0,1.27,1.45.47.47,0,0,0,.52-.05c.45-.38,1.26-1.07,1.7-1.43A.44.44,0,0,0,71.81,24.74Zm-4.41-1a1.8,1.8,0,0,1-1.54,1c-.86,0-1.34-.63-1.34-1.57,0-1.85,1.7-2.18,3.3-2.18v.47A4.07,4.07,0,0,1,67.4,23.72Z"/></g></g></g></svg>