<svg id="Layer_1" data-name="Layer 1" xmlns="http://www.w3.org/2000/svg" viewBox="0 0 97 55"><defs><style>.cls-1{fill:#394d54;}.cls-2{fill:#00aada;}.cls-3{fill:#24b8eb;}.cls-4{fill:#008bb8;}.cls-5{fill:#039bc6;}.cls-6{fill:#00acd3;}.cls-7{fill:#20c2ef;}.cls-8{fill:#d4edf1;}.cls-9{fill:#bfdbe0;}</style></defs><title>los logos pack</title><g id="Group"><g id="Group-2" data-name="Group"><g id="outline_1" data-name="outline 1"><path id="path85_fill" data-name="path85 fill" class="cls-1" d="M56.08,17.37h8.7v8.87h4.4a19.16,19.16,0,0,0,6-1,16.94,16.94,0,0,0,2.93-1.32,10.94,10.94,0,0,1-2-5.61c-.24-2.71.31-6.24,2.14-8.36l.92-1.06,1.08.87c2.75,2.2,5.05,5.27,5.46,8.79a13.3,13.3,0,0,1,10.08.94l1.2.69-.63,1.22c-2.46,4.8-7.62,6.29-12.65,6C76.18,46.13,59.81,55,39.93,55c-10.26,0-19.69-3.82-25-12.94l-.08-.14L14,40.33a25.2,25.2,0,0,1-2-12.77l.12-1.32h7.43V17.37h8.7V8.69H45.65V0H56.08Z"/></g><g id="body_colors_1" data-name="body colors 1"><g id="Vector"><path id="path86_fill" data-name="path86 fill" class="cls-2" d="M84.25,20.64c.59-4.52-2.81-8.08-4.91-9.76-2.42,2.81-2.79,10.13,1,13.22-2.12,1.89-6.6,3.58-11.16,3.58H13.44a23.43,23.43,0,0,0,2.3,12.94l.63,1.16a20.85,20.85,0,0,0,1.32,2c2.28.14,4.4.2,6.33.16a31,31,0,0,0,9.25-1.34.67.67,0,1,1,.45,1.26l-1,.31a29.35,29.35,0,0,1-6.39,1c.14,0-.16,0-.16,0l-.29,0c-1,.06-2.1.06-3.2.06s-2.4,0-3.75-.08l0,0c4.64,5.21,11.89,8.34,21,8.34,19.27,0,35.6-8.52,42.83-27.66,5.13.53,10.06-.77,12.3-5.15C91.5,18.67,86.9,19.32,84.25,20.64Z"/></g><g id="Vector-2" data-name="Vector"><path id="path87_fill" data-name="path87 fill" class="cls-3" d="M84.25,20.64c.59-4.52-2.81-8.08-4.91-9.76-2.42,2.81-2.79,10.13,1,13.22-2.12,1.89-6.6,3.58-11.16,3.58H16.74C16.52,35,19.23,40.54,24,43.89a31,31,0,0,0,9.25-1.34.67.67,0,1,1,.45,1.26l-1,.31a29.76,29.76,0,0,1-6.56,1.08l-.06-.06c6.56,3.36,16.07,3.36,27-.83,12.22-4.68,23.58-13.63,31.53-23.84A2,2,0,0,1,84.25,20.64Z"/></g><g id="Vector-3" data-name="Vector"><path id="path88_fill" data-name="path88 fill" class="cls-4" d="M13.56,33.5a22.62,22.62,0,0,0,2.2,7.14l.63,1.16a20.85,20.85,0,0,0,1.32,2c2.3.14,4.4.2,6.33.16a31,31,0,0,0,9.25-1.34.67.67,0,1,1,.45,1.26l-1,.31a30.89,30.89,0,0,1-6.56,1.06,1.76,1.76,0,0,0-.33,0c-1,.06-2.08.08-3.2.08s-2.46,0-3.79-.08c4.64,5.21,12,8.34,21.06,8.34,16.5,0,30.83-6.24,39.16-20.06H13.56Z"/></g><g id="Vector-4" data-name="Vector"><path id="path89_fill" data-name="path89 fill" class="cls-5" d="M17.25,33.5a16.67,16.67,0,0,0,6.8,10.41,31,31,0,0,0,9.25-1.34.67.67,0,1,1,.45,1.26l-1,.31a31.3,31.3,0,0,1-6.6,1.06c6.56,3.36,16,3.32,26.92-.87A71,71,0,0,0,71.73,33.5Z"/></g></g><g id="Containers_1" data-name="Containers 1"><g id="Vector-5" data-name="Vector"><path id="path90_fill" data-name="path90 fill" class="cls-6" d="M27.33,19.44h.59v6.26h-.59Zm-1.14,0h.61v6.26h-.61Zm-1.14,0h.61v6.26h-.61Zm-1.14,0h.61v6.26h-.61Zm-1.14,0h.61v6.26h-.61Zm-1.12,0h.59v6.26h-.59ZM21,18.81h7.54v7.53H21Z"/></g><g id="Vector-6" data-name="Vector"><path id="path91_fill" data-name="path91 fill" class="cls-6" d="M36,10.76h.59V17H36Zm-1.14,0h.61V17h-.61Zm-1.14,0h.61V17h-.61Zm-1.14,0h.61V17H32.6Zm-1.14,0h.61V17h-.61Zm-1.12,0h.59V17h-.59Zm-.63-.63h7.54v7.53H29.71Z"/></g><g id="Vector-7" data-name="Vector"><path id="path92_fill" data-name="path92 fill" class="cls-7" d="M36,19.44h.59v6.26H36Zm-1.14,0h.61v6.26h-.61Zm-1.14,0h.61v6.26h-.61Zm-1.14,0h.61v6.26H32.6Zm-1.14,0h.61v6.26h-.61Zm-1.12,0h.59v6.26h-.59Zm-.63-.63h7.54v7.53H29.71Z"/></g><g id="Vector-8" data-name="Vector"><path id="path93_fill" data-name="path93 fill" class="cls-6" d="M44.72,19.44h.59v6.26h-.59Zm-1.14,0h.61v6.26h-.61Zm-1.14,0h.61v6.26h-.61Zm-1.14,0h.61v6.26H41.3Zm-1.16,0h.61v6.26h-.61Zm-1.1,0h.59v6.26H39Zm-.63-.63h7.54v7.53H38.41Z"/></g><g id="Vector-9" data-name="Vector"><path id="path94_fill" data-name="path94 fill" class="cls-7" d="M44.72,10.76h.59V17h-.59Zm-1.14,0h.61V17h-.61Zm-1.14,0h.61V17h-.61Zm-1.14,0h.61V17H41.3Zm-1.16,0h.61V17h-.61Zm-1.1,0h.59V17H39Zm-.63-.63h7.54v7.53H38.41Z"/></g><g id="Vector-10" data-name="Vector"><path id="path95_fill" data-name="path95 fill" class="cls-7" d="M53.41,19.44H54v6.26h-.59Zm-1.14,0h.61v6.26h-.61Zm-1.14,0h.61v6.26h-.61Zm-1.16,0h.61v6.26H50Zm-1.14,0h.61v6.26h-.61Zm-1.1,0h.59v6.26h-.59Zm-.63-.63h7.54v7.53H47.1Z"/></g><g id="Vector-11" data-name="Vector"><path id="path96_fill" data-name="path96 fill" class="cls-6" d="M53.41,10.76H54V17h-.59Zm-1.14,0h.61V17h-.61Zm-1.14,0h.61V17h-.61Zm-1.16,0h.61V17H50Zm-1.14,0h.61V17h-.61Zm-1.1,0h.59V17h-.59Zm-.63-.63h7.54v7.53H47.1Z"/></g><g id="Vector-12" data-name="Vector"><path id="path97_fill" data-name="path97 fill" class="cls-7" d="M53.41,2.07H54V8.34h-.59Zm-1.14,0h.61V8.34h-.61Zm-1.14,0h.61V8.34h-.61ZM50,2.07h.61V8.34H50Zm-1.14,0h.61V8.34h-.61Zm-1.1,0h.59V8.34h-.59Zm-.63-.63h7.54V9H47.1Z"/></g><g id="Vector-13" data-name="Vector"><path id="path98_fill" data-name="path98 fill" class="cls-6" d="M62.11,19.44h.59v6.26h-.59Zm-1.14,0h.61v6.26H61Zm-1.16,0h.61v6.26h-.61Zm-1.14,0h.61v6.26h-.61Zm-1.14,0h.61v6.26h-.61Zm-1.12,0H57v6.26h-.59Zm-.61-.63h7.54v7.53H55.8Z"/></g></g><g id="Vector-14" data-name="Vector"><path id="path99_fill" data-name="path99 fill" class="cls-8" d="M36.78,38.54a2.07,2.07,0,1,1-2.08,2.07A2.08,2.08,0,0,1,36.78,38.54Z"/></g><g id="Vector-15" data-name="Vector"><path id="path100_fill" data-name="path100 fill" class="cls-1" d="M36.78,39.13a1.53,1.53,0,0,1,.53.1.61.61,0,0,0,.31,1.14.59.59,0,0,0,.53-.33,1.36,1.36,0,0,1,.12.57,1.49,1.49,0,1,1-1.49-1.48Z"/></g><g id="Vector-16" data-name="Vector"><path id="path101_fill" data-name="path101 fill" class="cls-1" d="M0,34.24H96.71c-2.1-.53-6.66-1.26-5.91-4-3.83,4.43-13.05,3.11-15.4.92-2.59,3.76-17.7,2.34-18.76-.59-3.26,3.8-13.34,3.8-16.6,0-1.06,2.93-16.17,4.35-18.76.59-2.32,2.18-11.57,3.5-15.4-.92C6.66,33,2.1,33.71,0,34.24Z"/></g><g id="Vector-17" data-name="Vector"><path id="path102_fill" data-name="path102 fill" class="cls-9" d="M42.29,53.52c-5.15-2.44-8-5.76-9.55-9.38a31.32,31.32,0,0,1-6.88,1c-1,.06-2.06.08-3.18.08-1.28,0-2.63,0-4.05-.12,4.72,4.72,10.53,8.34,21.28,8.4C40.73,53.56,41.5,53.54,42.29,53.52Z"/></g><g id="Vector-18" data-name="Vector"><path id="path103_fill" data-name="path103 fill" class="cls-8" d="M34.66,47.48a17.79,17.79,0,0,1-1.91-3.34,31.32,31.32,0,0,1-6.88,1A22,22,0,0,0,34.66,47.48Z"/></g></g></g></svg>