<svg width="53" height="88" viewBox="0 0 53 88" version="1.1" xmlns="http://www.w3.org/2000/svg" xmlns:xlink="http://www.w3.org/1999/xlink" xmlns:figma="http://www.figma.com/figma/ns">
<title>Group</title>
<desc>Created using Figma</desc>
<g id="Canvas" transform="translate(-4020 -402)" figma:type="canvas">
<g id="Group" figma:type="frame">
<g id="Vector" figma:type="vector">
<use xlink:href="#path0_fill" transform="translate(4037.93 429.099)" fill="#083858"/>
</g>
<g id="Vector" figma:type="vector">
<use xlink:href="#path1_fill" transform="translate(4041.51 402)" fill="#083858"/>
</g>
<g id="Vector" figma:type="vector">
<use xlink:href="#path2_fill" transform="translate(4020 402)" fill="#083858"/>
</g>
<g id="Vector" figma:type="vector">
<use xlink:href="#path3_fill" transform="translate(4030.88 412.387)" fill="#083858"/>
</g>
</g>
</g>
<defs>
<path id="path0_fill" d="M 24.6021 30.1152C 24.19 29.6963 24.0664 29.0262 24.0664 28.4817L 24.0664 9.59162L 25.962 7.53927C 26.2505 7.24607 26.3741 6.86911 26.3741 6.45026L 26.3741 1.63351C 26.3741 0.670156 25.7147 -1.27822e-06 24.7669 -1.27822e-06L 10.22 -1.27822e-06C 9.27214 -1.27822e-06 8.61279 0.670156 8.61279 1.63351L 8.61279 6.57592C 8.61279 6.99477 8.73642 7.41361 9.02488 7.66492L 10.7557 9.71728L 10.7557 28.6073C 10.7557 29.1518 10.6321 29.6963 10.22 30.2408L 0.535723 42.3037C 0.123628 42.7225 0 43.267 0 43.9372L 0 58.4293C 0 59.8115 1.07145 60.9005 2.43136 60.9005L 32.5967 60.9005C 33.9566 60.9005 35.0281 59.8115 35.0281 58.4293L 35.0281 44.0628C 35.1517 43.0995 35.0281 42.555 34.616 42.1361L 24.6021 30.1152ZM 20.852 1.75916C 20.852 1.21466 21.1405 0.670158 21.3877 0.670158L 23.9427 0.670158C 24.2312 0.670158 24.4784 1.08901 24.4784 1.75916L 24.4784 3.93717C 24.4784 4.48168 23.9015 5.40314 23.2422 4.77487L 21.635 4.18848C 21.3465 4.18848 20.852 3.68586 20.852 3.01571L 20.852 1.75916ZM 32.4319 53.9058L 32.3083 53.9058C 32.3083 55.1204 31.6489 56.2513 30.5775 56.6283C 30.289 58.0105 29.6296 59.0995 28.5582 59.0995L 26.2505 59.0995C 27.0746 58.6806 27.1983 57.8848 27.3219 56.9215L 6.18143 56.9215C 4.57426 56.9215 3.21434 55.5393 3.21434 53.9058L 3.21434 43.644L 27.1983 43.644C 27.1983 42.6806 26.9098 41.8848 26.6625 41.0471L 22.7476 30.7853C 22.3356 29.9476 22.2119 28.4398 22.2119 27.3508L 22.2119 11.2251C 22.2119 9.59162 21.7998 9.04712 22.7476 8.50262L 22.8713 8.37696L 11.7035 8.37696C 11.5799 8.37696 11.415 8.37696 11.2914 8.25131L 10.22 7.03665C 9.93149 6.74346 10.22 6.36649 10.6321 6.36649L 24.8905 6.36649C 25.3026 6.36649 25.5499 6.78534 25.3026 7.20419L 24.1076 8.41885L 23.0361 9.3822C 23.0361 9.3822 23.0361 10.0524 23.0361 10.5969L 23.0361 27.6859C 23.0361 29.0681 23.3246 30.2827 23.8603 31.3717L 30.3302 41.9267C 30.6187 42.4712 30.7423 43.1414 30.8659 43.8534L 32.4731 43.8534L 32.4731 53.9058L 32.4319 53.9058ZM 15.0415 35.7278C 15.7008 35.7278 16.2365 36.2723 16.2365 36.9424L 16.2365 39.8325C 16.2365 40.5026 15.7008 41.0471 15.0415 41.0471L 12.198 41.0471C 11.5387 41.0471 11.0029 40.5026 11.0029 39.8325L 11.0029 36.9424C 11.0029 36.2723 11.5387 35.7278 12.198 35.7278L 15.0415 35.7278ZM 13.8464 25.8429L 13.8464 24.4607C 13.8464 24.1675 14.1349 23.9162 14.3821 23.9162L 15.742 23.9162C 16.0305 23.9162 16.2778 24.2094 16.2778 24.4607L 16.2778 25.8429C 16.2778 26.1361 15.9893 26.3874 15.742 26.3874L 14.3821 26.3874C 14.1349 26.3874 13.8464 26.1361 13.8464 25.8429ZM 18.0086 29.5707L 20.1514 29.5707C 20.6872 29.5707 21.0993 29.9895 21.0993 30.534L 21.0993 32.712C 21.0993 33.2565 20.6872 33.6754 20.1514 33.6754L 18.0086 33.6754C 17.4728 33.6754 17.0607 33.2565 17.0607 32.712L 17.0607 30.534C 17.0607 29.9476 17.4728 29.5707 18.0086 29.5707ZM 17.8849 16.2932L 17.8849 15.0785C 17.8849 14.7853 18.1734 14.534 18.4206 14.534L 19.6157 14.534C 19.9042 14.534 20.1514 14.8272 20.1514 15.0785L 20.1514 16.2932C 20.1514 16.5864 19.863 16.8377 19.6157 16.8377L 18.4206 16.8377C 18.1734 16.8377 17.8849 16.5445 17.8849 16.2932Z"/>
<path id="path1_fill" d="M 1.89564 8.20942L 5.81054 8.20942L 5.93417 8.20942C 5.93417 8.20942 6.88199 8.20942 7.54134 8.87958L 8.90125 10.2618C 9.56061 10.9319 9.56061 11.7696 9.56061 11.7696L 9.56061 11.8953L 9.56061 15.7068C 9.56061 16.7958 10.3848 17.6335 11.4562 17.6335L 15.7832 17.6335C 16.8547 17.6335 17.6789 16.7958 17.6789 15.7068L 17.6789 11.3508C 17.3904 10.3874 16.6074 9.42408 15.6596 9.42408L 11.7447 9.42408L 11.6211 9.42408C 11.6211 9.42408 10.7969 9.42408 10.1375 8.87958L 8.65399 7.37173C 8.11827 6.70157 8.11827 5.86387 8.11827 5.86387L 8.11827 1.9267C 8.11827 0.837696 7.29408 0 6.22264 0L 1.89564 0C 0.82419 0 3.14404e-07 0.837696 3.14404e-07 1.9267L 3.14404e-07 6.28272C 0.0412098 7.37173 0.82419 8.20942 1.89564 8.20942Z"/>
<path id="path2_fill" d="M 15.742 17.6335C 16.8135 17.6335 17.6377 16.7958 17.6377 15.7068L 17.6377 11.3508C 17.6377 10.2618 16.8135 9.42408 15.742 9.42408L 11.8271 9.42408L 11.7035 9.42408C 11.7035 9.42408 10.7557 9.42408 10.0963 8.75393L 8.73642 7.37173C 8.07706 6.70157 8.07706 5.86387 8.07706 5.86387L 8.07706 5.73822L 8.07706 1.9267C 8.07706 0.837696 7.25287 0 6.18143 0L 1.89564 0C 0.82419 0 0 0.837696 0 1.9267L 0 6.28272C 0.123629 7.24607 0.947819 8.20942 2.01927 8.20942L 5.93417 8.20942L 6.0578 8.20942C 6.0578 8.20942 6.88199 8.20942 7.54134 8.75393L 9.02488 10.2618C 9.56061 10.9319 9.56061 11.7696 9.56061 11.7696L 9.56061 15.7487C 9.56061 16.8377 10.3848 17.6754 11.4562 17.6754L 15.742 17.6754L 15.742 17.6335Z"/>
<path id="path3_fill" d="M 8.11827 16.0419L 8.11827 12.0628L 8.11827 11.9372C 8.11827 11.9372 8.11827 10.9738 8.77763 10.3037L 10.1375 8.92147C 10.7969 8.25131 11.6211 8.25131 11.6211 8.25131L 11.7447 8.25131L 15.4948 8.25131C 16.5662 8.25131 17.3904 7.41361 17.3904 6.32461L 17.3904 1.9267C 17.3904 0.837696 16.5662 -3.19556e-07 15.4948 -3.19556e-07L 11.209 -3.19556e-07C 10.2612 0.125654 9.31335 0.963351 9.31335 2.05236L 9.31335 6.03141L 9.31335 6.15707C 9.31335 6.15707 9.31335 6.99476 8.77763 7.66492L 7.29408 9.17278C 6.63473 9.71728 5.81054 9.71728 5.81054 9.71728L 1.89564 9.71728C 0.82419 9.71728 -1.57202e-07 10.555 -1.57202e-07 11.644L -1.57202e-07 16.0419C -1.57202e-07 17.1309 0.82419 17.9686 1.89564 17.9686L 6.22264 17.9686C 7.29408 17.9267 8.11827 17.1309 8.11827 16.0419Z"/>
</defs>
</svg>
