<svg id="Layer_1" data-name="Layer 1" xmlns="http://www.w3.org/2000/svg" viewBox="0 0 64 56"><defs><style>.cls-1{fill:#cac9c2;}.cls-2{fill:#fff;}.cls-3{fill:#5072aa;}.cls-4{fill:#4d6796;}.cls-5{fill:#cc4232;}.cls-6{fill:#b23f33;}.cls-7{fill:#ecb02a;}.cls-8{fill:#c79732;}</style></defs><title>los logos pack</title><g id="Group"><g id="Vector"><path id="path8_fill" data-name="path8 fill" class="cls-1" d="M20.35,47.08,9.1,27.83,20.35,8.59h22.5L54.1,27.83,42.85,47.08Z"/></g><g id="Vector-2" data-name="Vector"><path id="path9_fill" data-name="path9 fill" class="cls-2" d="M32,36.62A8.66,8.66,0,1,1,40.75,28,8.73,8.73,0,0,1,32,36.62Z"/></g><g id="Vector-3" data-name="Vector"><path id="path10_fill" data-name="path10 fill" class="cls-3" d="M49.62,2.14A4.83,4.83,0,0,0,45.86,0H18.13a4.83,4.83,0,0,0-3.76,2.14L6.27,16a4.5,4.5,0,0,0,.5,2.51l5.48,9.26L22,11.07H53a4.56,4.56,0,0,1,2.26.7Z"/></g><g id="Vector-4" data-name="Vector"><path id="path11_fill" data-name="path11 fill" class="cls-4" d="M6.63,15.39,6.27,16a4.5,4.5,0,0,0,.5,2.51l5.48,9.26,2.92-5Z"/></g><g id="Vector-5" data-name="Vector"><path id="path12_fill" data-name="path12 fill" class="cls-2" d="M18.85,7.12a1.67,1.67,0,1,1,1.69-1.67A1.68,1.68,0,0,1,18.85,7.12ZM46.57,5.45a1.57,1.57,0,0,1-3.13,0v0a1.57,1.57,0,0,1,3.13,0Z"/></g><g id="Group-2" data-name="Group"><g id="Vector-6" data-name="Vector"><path id="path13_fill" data-name="path13 fill" class="cls-5" d="M63.49,25.85,55.26,11.77a4.56,4.56,0,0,0-2.26-.7H41.84l9.65,16.79L36.21,54.51A4.39,4.39,0,0,1,34.64,56H45.87a4.83,4.83,0,0,0,3.76-2.14L63.49,30.14A4.7,4.7,0,0,0,63.49,25.85Z"/></g><g id="Vector-7" data-name="Vector"><path id="path14_fill" data-name="path14 fill" class="cls-6" d="M55.63,12.41l-.37-.63a4.56,4.56,0,0,0-2.26-.7H41.84l2.9,5.06Z"/></g><g id="Vector-8" data-name="Vector"><path id="path15_fill" data-name="path15 fill" class="cls-2" d="M45,51.9a1.67,1.67,0,1,1,1.69-1.67A1.68,1.68,0,0,1,45,51.9ZM58.18,29.63A1.67,1.67,0,1,1,59.87,28,1.68,1.68,0,0,1,58.18,29.63Z"/></g></g><g id="Group-3" data-name="Group"><g id="Vector-9" data-name="Vector"><path id="path16_fill" data-name="path16 fill" class="cls-7" d="M22.27,44.66,6.78,18.51A4.5,4.5,0,0,1,6.28,16L.52,25.86a4.7,4.7,0,0,0,0,4.29L14.38,53.86A4.83,4.83,0,0,0,18.14,56h16.5a4.39,4.39,0,0,0,1.57-1.48l5.65-9.85Z"/></g><g id="Vector-10" data-name="Vector"><path id="path17_fill" data-name="path17 fill" class="cls-8" d="M33.7,56h1a4.37,4.37,0,0,0,1.57-1.48l5.65-9.85h-6Z"/></g><g id="Vector-11" data-name="Vector"><path id="path18_fill" data-name="path18 fill" class="cls-2" d="M18.85,51.9a1.67,1.67,0,1,1,1.69-1.67A1.68,1.68,0,0,1,18.85,51.9ZM5.66,29.63A1.67,1.67,0,1,1,7.35,28,1.68,1.68,0,0,1,5.66,29.63Z"/></g></g></g></svg>