<svg id="Layer_1" data-name="Layer 1" xmlns="http://www.w3.org/2000/svg" viewBox="0 0 63 61"><defs><style>.cls-1{fill:#161614;}</style></defs><title>los logos pack</title><g id="Group"><g id="Group-2" data-name="Group"><g id="Vector"><path id="path57_fill" data-name="path57 fill" class="cls-1" d="M31.5,0a31.25,31.25,0,0,0-10,60.95c1.58.29,2.14-.68,2.14-1.51s0-3.2,0-5.81C14.89,55.5,13,49.93,13,49.93c-1.43-3.62-3.49-4.57-3.49-4.57-2.85-1.93.22-1.91.22-1.91a6.57,6.57,0,0,1,4.82,3.22c2.81,4.79,7.36,3.4,9.15,2.59a6.63,6.63,0,0,1,2-4.18c-7-.78-14.35-3.47-14.35-15.46a12.07,12.07,0,0,1,3.25-8.4,11.25,11.25,0,0,1,.3-8.28s2.63-.83,8.66,3.2a30.14,30.14,0,0,1,15.77,0c6-4.05,8.66-3.2,8.66-3.2a11.18,11.18,0,0,1,.32,8.28,12.07,12.07,0,0,1,3.25,8.4c0,12-7.36,14.66-14.37,15.44,1.13,1,2.14,2.88,2.14,5.79,0,4.18,0,7.55,0,8.57,0,.83.57,1.81,2.17,1.49A31.24,31.24,0,0,0,31.5,0ZM11.79,44.53a.42.42,0,0,1-.54.1c-.22-.1-.34-.32-.27-.46s.32-.2.54-.1S11.89,44.38,11.79,44.53Zm1.55,1.39c-.15.15-.44.07-.64-.15s-.25-.51-.1-.66.44-.07.64.15S13.51,45.78,13.34,45.92Zm1.08,1.73c-.2.12-.52,0-.71-.27a.55.55,0,0,1,0-.76.56.56,0,0,1,.71.27C14.62,47.19,14.62,47.54,14.42,47.66Zm1.8,2.05c-.17.2-.54.15-.81-.12a.61.61,0,0,1-.17-.81c.17-.2.54-.15.81.12A.61.61,0,0,1,16.22,49.71Zm2.31.68c-.07.24-.42.37-.79.24s-.59-.39-.52-.64.42-.37.79-.24S18.6,50.15,18.53,50.39Zm2.63.29c0,.27-.3.46-.66.49s-.69-.2-.69-.46.3-.46.66-.49S21.16,50.42,21.16,50.69Zm2.61-.1c0,.24-.22.51-.59.59s-.71-.1-.76-.34.22-.51.59-.59S23.72,50.32,23.77,50.59Z"/></g></g></g></svg>