<?xml version="1.0" encoding="utf-8"?>
<!-- Generator: Adobe Illustrator 16.0.0, SVG Export Plug-In . SVG Version: 6.00 Build 0)  -->
<!DOCTYPE svg PUBLIC "-//W3C//DTD SVG 1.1//EN" "http://www.w3.org/Graphics/SVG/1.1/DTD/svg11.dtd">
<svg version="1.1" id="Layer_1" xmlns="http://www.w3.org/2000/svg" xmlns:xlink="http://www.w3.org/1999/xlink" x="0px" y="0px"
	 width="1269.127px" height="294.159px" viewBox="0 0 1269.127 294.159" enable-background="new 0 0 1269.127 294.159"
	 xml:space="preserve">
<g>
	<g>
		<g>
			<linearGradient id="SVGID_1_" gradientUnits="userSpaceOnUse" x1="367.7476" y1="208.9824" x2="12.3568" y2="208.9824">
				<stop  offset="0" style="stop-color:#FFFFFF"/>
				<stop  offset="1" style="stop-color:#231F20"/>
			</linearGradient>
			<path fill="url(#SVGID_1_)" d="M59.081,222.482c0,0,0-27,27-27s27,27,27,27H59.081z"/>
			<linearGradient id="SVGID_2_" gradientUnits="userSpaceOnUse" x1="367.7476" y1="212.3574" x2="12.3572" y2="212.3574">
				<stop  offset="0" style="stop-color:#FFFFFF"/>
				<stop  offset="1" style="stop-color:#231F20"/>
			</linearGradient>
			<path fill="url(#SVGID_2_)" d="M153.581,222.482c0,0,0-20.25,20.25-20.25s20.25,20.25,20.25,20.25H153.581z"/>
			<linearGradient id="SVGID_3_" gradientUnits="userSpaceOnUse" x1="367.7476" y1="202.2324" x2="12.3568" y2="202.2324">
				<stop  offset="0" style="stop-color:#FFFFFF"/>
				<stop  offset="1" style="stop-color:#231F20"/>
			</linearGradient>
			<path fill="url(#SVGID_3_)" d="M86.081,222.482c0,0,0-40.5,40.5-40.5s40.5,40.5,40.5,40.5H86.081z"/>
		</g>
		<g>
			<linearGradient id="SVGID_4_" gradientUnits="userSpaceOnUse" x1="340.4146" y1="226.9824" x2="131.3896" y2="226.9824">
				<stop  offset="0" style="stop-color:#FFFFFF"/>
				<stop  offset="0.9901" style="stop-color:#231F20"/>
			</linearGradient>
			<path fill="url(#SVGID_4_)" d="M239.081,231.482c0,0,0-9,9-9s9,9,9,9H239.081z"/>
			<linearGradient id="SVGID_5_" gradientUnits="userSpaceOnUse" x1="340.4146" y1="222.4824" x2="131.3903" y2="222.4824">
				<stop  offset="0" style="stop-color:#FFFFFF"/>
				<stop  offset="0.9901" style="stop-color:#231F20"/>
			</linearGradient>
			<path fill="url(#SVGID_5_)" d="M167.081,231.482c0,0,0-18,18-18s18,18,18,18H167.081z"/>
			<linearGradient id="SVGID_6_" gradientUnits="userSpaceOnUse" x1="340.415" y1="217.9824" x2="131.3908" y2="217.9824">
				<stop  offset="0" style="stop-color:#FFFFFF"/>
				<stop  offset="0.9901" style="stop-color:#231F20"/>
			</linearGradient>
			<path fill="url(#SVGID_6_)" d="M185.081,231.482c0,0,0-27,27-27s27,27,27,27H185.081z"/>
		</g>
	</g>
	<g>
		<g>
			<linearGradient id="SVGID_7_" gradientUnits="userSpaceOnUse" x1="837.3213" y1="193.5566" x2="1297.7267" y2="193.5566">
				<stop  offset="0" style="stop-color:#FFFFFF"/>
				<stop  offset="1" style="stop-color:#231F20"/>
			</linearGradient>
			<path fill="url(#SVGID_7_)" d="M1116.121,215.156c0,0,0-43.199,36-43.199s36,43.199,36,43.199H1116.121z"/>
			<linearGradient id="SVGID_8_" gradientUnits="userSpaceOnUse" x1="837.3213" y1="207.9561" x2="1297.7277" y2="207.9561">
				<stop  offset="0" style="stop-color:#FFFFFF"/>
				<stop  offset="1" style="stop-color:#231F20"/>
			</linearGradient>
			<path fill="url(#SVGID_8_)" d="M1202.521,215.156c0,0,0-14.4,14.4-14.4s14.4,14.4,14.4,14.4H1202.521z"/>
			<linearGradient id="SVGID_9_" gradientUnits="userSpaceOnUse" x1="837.3213" y1="200.7568" x2="1297.7256" y2="200.7568">
				<stop  offset="0" style="stop-color:#FFFFFF"/>
				<stop  offset="1" style="stop-color:#231F20"/>
			</linearGradient>
			<path fill="url(#SVGID_9_)" d="M1173.722,215.156c0,0,0-28.799,21.6-28.799s21.6,28.799,21.6,28.799H1173.722z"/>
			<linearGradient id="SVGID_10_" gradientUnits="userSpaceOnUse" x1="837.3213" y1="195.9561" x2="1297.7264" y2="195.9561">
				<stop  offset="0" style="stop-color:#FFFFFF"/>
				<stop  offset="1" style="stop-color:#231F20"/>
			</linearGradient>
			<path fill="url(#SVGID_10_)" d="M1087.321,215.156c0,0,0-38.4,28.8-38.4s28.8,38.4,28.8,38.4H1087.321z"/>
		</g>
		<g>
			<linearGradient id="SVGID_11_" gradientUnits="userSpaceOnUse" x1="944.3213" y1="248.7998" x2="1056.4329" y2="248.7998">
				<stop  offset="0" style="stop-color:#FFFFFF"/>
				<stop  offset="1" style="stop-color:#231F20"/>
			</linearGradient>
			<path fill="url(#SVGID_11_)" d="M981.413,252.758c0,0,0-7.916,7.916-7.916s7.916,7.916,7.916,7.916H981.413z"/>
			<linearGradient id="SVGID_12_" gradientUnits="userSpaceOnUse" x1="944.3213" y1="246.8213" x2="1056.4327" y2="246.8213">
				<stop  offset="0" style="stop-color:#FFFFFF"/>
				<stop  offset="1" style="stop-color:#231F20"/>
			</linearGradient>
			<path fill="url(#SVGID_12_)" d="M989.329,252.758c0,0,0-11.873,11.873-11.873c11.875,0,11.875,11.873,11.875,11.873H989.329z"/>
		</g>
	</g>
	<g>
		<polygon fill="#F1F1F2" points="963.608,167.145 962.142,191.059 966.029,191.645 970.21,172.279 969.037,165.061 962.93,165.061 
					"/>
		<polygon fill="#F1F1F2" points="979.122,163.625 980.04,168.906 979.122,171.84 983.193,192.379 987.374,192.379 986.494,167.145 
			985.614,162.451 		"/>
		<polygon fill="#F1F1F2" points="962.93,134.918 962.425,142.417 985.45,142.397 981.873,132.943 		"/>
		<polygon fill="#A6A8AB" points="962.425,142.417 958.548,167.145 972.751,167.145 973.215,154.291 974.511,155.78 
			974.173,167.145 989.354,167.584 985.45,142.397 		"/>
		<polygon fill="#A6A8AB" points="961.115,189.738 961.115,195.605 966.689,195.605 966.689,190.764 		"/>
		<polygon fill="#6D6E70" points="962.142,193.844 953.046,199.273 953.046,201.914 968.157,201.914 966.689,195.605 		"/>
		<polygon fill="#A6A8AB" points="982.24,190.617 983.193,195.605 987.962,195.605 987.374,190.617 		"/>
		<polygon fill="#6D6E70" points="982.24,201.914 983.193,195.605 987.962,195.605 998.23,200.152 998.23,201.914 		"/>
		<path fill="#6D6E70" d="M964.916,108.584l4.389,0.324l12.37-0.174l8.409-2.564l3.667,8.989l-10.915,4.042l4.538,26.458
			l-27.498-5.375c0,0,3.609-24.304,3.391-24.319c-0.219-0.018-9.632-4.023-9.632-4.023l1.275-8.291L964.916,108.584z"/>
		<polygon fill="#F1F1F2" points="970.108,87.637 967.671,104.154 977.011,106.17 982.836,88.58 		"/>
		<polygon fill="#F1F1F2" points="972.017,102.096 971.412,110.258 976.679,110.648 977.364,101.385 		"/>
		<polygon fill="#F1F1F2" points="988.253,106.729 999.04,100.348 995.481,83.018 992.54,78.033 993.251,76.742 995.829,78.322 
			994.167,72.611 998.594,73.686 1000.596,79.326 999.54,83.789 1004.628,101.709 990.128,111.757 		"/>
		<polygon fill="#F1F1F2" points="957.227,104.792 952.91,102.164 956.714,84.975 961.927,80.422 961.251,78.742 958.905,79.313 
			959.885,72.928 955.604,72.611 952.32,82.75 953.277,85.225 947.549,102.754 956.444,109.15 		"/>
		<polygon fill="#6D6E70" points="969.784,89.828 972.801,91.5 978.066,91.891 976.747,97.813 979.349,99.111 982.836,88.58 
			970.108,87.637 		"/>
	</g>
	<g>
		<g>
			<polygon fill="#D0D2D3" points="427.125,136.707 426.339,141.494 428.109,147.85 431.408,148.385 431.599,141.074 
				429.582,137.16 429.314,134.121 427.737,134.156 			"/>
			<polygon fill="#D0D2D3" points="443.76,195.922 444.988,201.24 447.988,201.555 447.134,195.848 			"/>
			<polygon fill="#D0D2D3" points="455.972,195.652 456.872,201.869 460.011,201.801 459.462,195.576 			"/>
			<polygon fill="#6D6E70" points="444.861,200.682 443.652,202.605 437.116,206.439 437.25,207.963 450.042,207.682 
				448.635,200.969 			"/>
			<polygon fill="#6D6E70" points="456.437,200.924 457.02,207.527 465.394,207.344 465.304,206.328 460.375,201.283 			"/>
			<polygon fill="#6D6E70" points="439.042,127.453 434.488,142.979 443.496,196.633 447.478,197.096 448.268,142.676 
				455.445,197.932 460.656,197.818 461.621,140.143 454.738,126.494 			"/>
			<polygon fill="#A6A8AB" points="433.993,110.965 438.396,119.943 439.125,128.199 454.42,127.225 454.925,110.504 
				456.062,107.531 451.392,95.533 434.563,97.633 431.708,99.604 			"/>
			<polygon fill="#6D6E70" points="431.488,69.371 427.182,77.369 427.241,85.959 422.209,88.359 427.811,89.764 428.117,93.238 
				433.924,90.393 433.658,93.961 444.117,85.715 445.371,76.162 443.699,69.104 			"/>
			<polygon fill="#D0D2D3" points="434.282,73.316 438.274,90.807 445.488,89.375 442.196,71.887 			"/>
			<polygon fill="#D0D2D3" points="442.185,88.916 443.996,93.607 450.693,95.545 443.386,102.527 434.563,97.633 439.33,94.854 
				437.863,89.012 			"/>
			<polygon fill="#A6A8AB" points="435.836,78.936 439.458,81.68 443.285,80.184 443.07,77.758 			"/>
			<polygon fill="#6D6E70" points="439.056,71.955 437.878,79.742 433.252,82.773 433.042,76.434 432.277,71.723 			"/>
			<polygon fill="#A6A8AB" points="451.392,95.533 460.603,90.314 454.304,82.311 456.478,79.221 469.454,91.584 452.664,103.342 
							"/>
			<polygon fill="#D0D2D3" points="454.304,82.311 449.908,78.717 445.058,67.344 448.832,66.523 454.5,75.307 454.097,77.352 
				456.027,79.861 			"/>
			<polyline fill="#A6A8AB" points="431.851,99.537 431.672,99.99 426.234,113.785 426.566,136.047 430.289,135.967 
				431.529,115.705 435.835,110.352 			"/>
		</g>
		<g>
			<polygon fill="#808184" points="543.438,225.189 548.437,242.332 549.627,247.332 555.34,247.332 551.77,242.332 
				549.389,224.477 			"/>
			<polygon fill="#808184" points="549.389,224.477 550.58,214.238 549.389,202.334 539.866,190.432 534.153,201.145 
				532.248,210.191 516.296,223.285 511.662,239.049 515.819,247.332 543.913,247.332 542.578,243.77 536.77,240.902 
				539.866,231.855 			"/>
			<polygon fill="#808184" points="536.019,186.885 536.019,194.09 542.318,205.018 549.258,202.9 559.961,194.238 558.644,189.408 
				549.208,189.711 544.918,189.787 541.197,185.568 540.317,190.813 			"/>
			<polygon fill="#808184" points="515.181,238.414 505.344,240.189 485.822,230.07 493.679,243.76 503.715,247.332 
				517.167,240.918 			"/>
			<polygon fill="#808184" points="549.932,200.934 559.05,197.719 559.699,196.555 551.053,197.793 			"/>
		</g>
		<g>
			<g>
				<polygon fill="#58595B" points="345.826,251.496 345.826,257.789 333.659,262.779 333.659,264.945 352.117,264.945 
					351.326,254.246 				"/>
				<polygon fill="#58595B" points="361.159,253.113 361.159,264.945 379.493,264.945 378.826,262.613 368.993,259.029 
					367.159,252.266 				"/>
				<polygon fill="#6D6E70" points="341.896,191.049 344.505,254.09 352,254.715 355.298,204.322 359.93,254.715 368.077,252.34 
					368.701,224.59 365.229,187.998 				"/>
				<polygon fill="#58595B" points="344.555,151.049 334.367,157.996 340.088,186.195 340.088,199.432 360.924,197.727 
					362.034,191.402 365.223,197.188 368.323,195.16 364.912,181.121 363.835,151.195 353.131,149.975 				"/>
				<polygon fill="#D0D2D3" points="347.321,151.473 347.855,147.336 342.165,134.064 342.634,131.406 353.951,127.42 
					359.396,144.301 354.148,147.668 354.152,152.652 				"/>
				<polygon fill="#58595B" points="334.367,157.996 322.06,179.549 338.121,189.111 340.088,184.16 330.76,177.051 
					338.913,166.146 				"/>
				<polygon fill="#D0D2D3" points="339.922,184.576 345.727,188.615 343.472,195.033 341.53,195.16 341.656,191.533 
					338.438,188.314 				"/>
				<polygon fill="#58595B" points="363.835,151.195 372.833,151.256 382.926,133.447 388.054,136.896 376.176,158.127 
					362.521,160.787 				"/>
				<polygon fill="#D0D2D3" points="383.379,134.814 385.064,132.088 384.222,129.494 392.405,121.988 393.729,123.311 
					389.517,127.436 392.646,130.652 391.082,134.709 387.158,136.293 386.027,137.193 				"/>
				<polygon fill="#58595B" points="348,134.143 348.602,140.133 347.158,140.76 347.158,145.709 342.165,134.064 342.634,131.406 
					353.951,127.42 354.621,129.494 				"/>
				<polygon fill="#58595B" points="349.324,140.641 354.148,147.668 360.395,147.117 358.415,141.26 354.621,142.686 
					349.925,140.037 				"/>
			</g>
			<polygon fill="#D0D2D3" points="344.441,253.555 343.255,258.605 352.978,260.883 353.395,253.965 			"/>
			<polygon fill="#D0D2D3" points="368.123,252.266 359.228,254.633 360.728,261.717 369.701,258.221 			"/>
		</g>
	</g>
</g>
</svg>
