<svg id="Layer_1" data-name="Layer 1" xmlns="http://www.w3.org/2000/svg" viewBox="0 0 58 61"><defs><style>.cls-1{fill:#336791;}.cls-2{fill:#fff;}</style></defs><title>los logos pack</title><g id="Group"><g id="Group-2" data-name="Group"><g id="Layer_x0020_3_1" data-name="Layer x0020 3 1"><g id="Group-3" data-name="Group"><g id="Vector"><path id="path104_fill" data-name="path104 fill" d="M43.34,44.4c.38-3.23.27-3.71,2.63-3.18l.6.05a13.53,13.53,0,0,0,5.59-1c3-1.42,4.78-3.79,1.83-3.16-6.76,1.42-7.23-.92-7.23-.92C53.89,25.45,56.88,11.75,54.3,8.4c-7-9.15-19.18-4.82-19.38-4.71h-.07a23.21,23.21,0,0,0-4.51-.48A11,11,0,0,0,23.2,5.4S1.53-3.71,2.53,16.85c.21,4.37,6.15,33.1,13.23,24.42,2.59-3.18,5.09-5.85,5.09-5.85a6.42,6.42,0,0,0,4.28,1.11l.12-.11a4.3,4.3,0,0,0,.05,1.23c-1.83,2.08-1.29,2.44-4.93,3.2s-1.52,2.15-.11,2.52a7.42,7.42,0,0,0,8.37-2.77l-.11.44c.71.59.67,4.19.77,6.78a24.79,24.79,0,0,0,.79,6.41c.51,1.42,1.13,5.07,5.91,4C40,57.37,43.06,56.13,43.34,44.4Z"/></g><g id="Vector-2" data-name="Vector"><path id="path105_fill" data-name="path105 fill" d="M34.44,61A6.19,6.19,0,0,1,30,59.3a8.7,8.7,0,0,1-2.12-3.81c-.05-.15-.09-.29-.12-.38a25.58,25.58,0,0,1-.94-7.19c0-.45,0-.94,0-1.45,0-.3,0-.67,0-1a10.65,10.65,0,0,1-7.05.42,5.87,5.87,0,0,1-3.09-1.79,5.08,5.08,0,0,1-5.08,1.12c-1.92-.66-3.63-2.47-5.22-5.55A50,50,0,0,1,3,31.23,81.56,81.56,0,0,1,0,17c-.32-6.48,1.4-11.11,5.1-13.78C8.2,1,12.38.33,17.57,1.19a33.61,33.61,0,0,1,5.31,1.36A13.83,13.83,0,0,1,30.38.66a28.35,28.35,0,0,1,4.31.4A24.82,24.82,0,0,1,42.06,0a17.48,17.48,0,0,1,14.2,6.81c2.3,3,1.45,8.92.32,13.35A59.91,59.91,0,0,1,50.45,35a18.15,18.15,0,0,0,3-.4c3.28-.68,4.19,1.27,4.39,1.9,1,3.14-3.3,5.46-4.65,6.11a15.82,15.82,0,0,1-6.76,1.19h-.11l-.4,0,0,.32c0,.15,0,.31-.05.48-.15,6-1,9.76-2.73,12.27-1.83,2.66-4.37,3.41-6.59,3.89A9.08,9.08,0,0,1,34.44,61ZM30.1,39c1.44,1.16,1.56,3.3,1.67,7.29,0,.48,0,.94,0,1.38a26.35,26.35,0,0,0,.63,5.62c.07.19.13.37.19.58.52,1.63.74,2.3,2.85,1.84,1.85-.41,2.81-.77,3.55-1.82,1.09-1.59,1.71-4.81,1.81-9.57l2.51.07-2.5-.3c0-.21,0-.4.07-.59.21-1.9.39-3.41,1.72-4.4a3.68,3.68,0,0,1,2.62-.62,3.45,3.45,0,0,1-1-1.75l-.21-1.05.59-.89a54.09,54.09,0,0,0,7.05-15.89c1.4-5.49,1-8.41.59-9C46.74,2.7,37,5.67,36,6l-.19.11-.94.18-.48-.1a21.46,21.46,0,0,0-4-.42,8.52,8.52,0,0,0-5.57,1.66l-1.14.89-1.33-.56C19.65,6.7,12,4.52,8,7.4,5.83,9,4.82,12.12,5,16.74A78.32,78.32,0,0,0,7.94,30.06c2.4,7.9,4.53,10.09,5.13,10.27a2.17,2.17,0,0,0,.77-.7c2.61-3.2,5.09-5.88,5.2-6l1.45-1.56,1.76,1.19a4.17,4.17,0,0,0,1.95.71l4.16-3.63-.6,6.31a2.42,2.42,0,0,0,0,.59L28,38.46l-.79.9,0,0,1.95.92Z"/></g></g><g id="Group-4" data-name="Group"><g id="Vector-3" data-name="Vector"><path id="path106_fill" data-name="path106 fill" class="cls-1" d="M54,37.15c-6.76,1.42-7.23-.92-7.23-.92C53.88,25.44,56.86,11.74,54.3,8.39c-7-9.13-19.18-4.81-19.38-4.7h-.07a23.21,23.21,0,0,0-4.51-.48A11,11,0,0,0,23.2,5.4S1.53-3.71,2.53,16.85C2.75,21.22,8.69,50,15.76,41.27c2.59-3.18,5.09-5.85,5.09-5.85a6.42,6.42,0,0,0,4.28,1.11l.12-.11a4.3,4.3,0,0,0,.05,1.23c-1.83,2.08-1.29,2.44-4.93,3.2s-1.52,2.15-.11,2.52a7.42,7.42,0,0,0,8.37-2.77l-.11.44c.71.59,1.22,3.79,1.13,6.71s-.13,4.92.42,6.48,1.13,5.07,5.91,4c4-.88,6.08-3.14,6.37-6.93.2-2.68.67-2.29.7-4.7l.38-1.14c.43-3.64.07-4.82,2.54-4.27l.6.05a13.53,13.53,0,0,0,5.59-1C55.16,38.9,56.93,36.53,54,37.15Z"/></g></g><g id="Group-5" data-name="Group"><g id="Vector-4" data-name="Vector"><path id="path107_fill" data-name="path107 fill" class="cls-2" d="M34.68,59.42c-4,0-5.31-3.26-5.83-4.59-.77-2-.93-9.24-.75-15.61a.85.85,0,0,1,.83-.84h0a.86.86,0,0,1,.82.88c-.19,7.09.08,13.5.63,14.93.86,2.2,2.18,4.14,5.88,3.33s4.85-2.1,5.44-5.61c.46-2.7,1.36-10.35,1.46-11.87a.84.84,0,1,1,1.67.14c-.12,1.57-1,9.23-1.49,12-.71,4.18-2.54,6.08-6.74,7A9.4,9.4,0,0,1,34.68,59.42Z"/></g></g><g id="Group-6" data-name="Group"><g id="Vector-5" data-name="Vector"><path id="path108_fill" data-name="path108 fill" class="cls-2" d="M13,43.66a3.11,3.11,0,0,1-1-.18c-2.62-.89-5.1-5.22-7.39-12.85A78.66,78.66,0,0,1,1.66,16.81C1.38,11,2.86,6.81,6.07,4.49c6.34-4.57,17-.22,17.43,0A.85.85,0,0,1,24,5.56.82.82,0,0,1,22.87,6C22.75,6,12.61,1.85,7,5.88c-2.71,2-3.95,5.6-3.69,10.83A77.54,77.54,0,0,0,6.2,30.13c2,6.78,4.32,11.05,6.31,11.72.31.11,1.24.42,2.57-1.22,2.58-3.16,4.94-5.68,5-5.71a.82.82,0,0,1,1.18,0,.86.86,0,0,1,0,1.21s-2.35,2.51-4.89,5.61A4.35,4.35,0,0,1,13,43.66Z"/></g></g><g id="Group-7" data-name="Group"><g id="Vector-6" data-name="Vector"><path id="path109_fill" data-name="path109 fill" class="cls-2" d="M46.72,37a.77.77,0,0,1-.47-.15A.87.87,0,0,1,46,35.67c7.2-10.89,9.74-24,7.58-26.84A14,14,0,0,0,42.2,3.33a21.27,21.27,0,0,0-6.93,1l-.12.05a.84.84,0,0,1-1-.45.86.86,0,0,1,.34-1.08A21.11,21.11,0,0,1,42,1.62,15.88,15.88,0,0,1,54.91,7.77c2.05,2.67.7,9.19,0,11.87a58.35,58.35,0,0,1-7.52,17A.86.86,0,0,1,46.72,37Z"/></g></g><g id="Group-8" data-name="Group"><g id="Vector-7" data-name="Vector"><path id="path110_fill" data-name="path110 fill" class="cls-2" d="M47.08,42a6.22,6.22,0,0,1-3-.59,1.68,1.68,0,0,1-.86-1.33c-.19-3.27,1.53-3.92,2.48-4.2-.12-.18-.28-.38-.44-.59a11.66,11.66,0,0,1-1.84-3A14.28,14.28,0,0,0,42.7,31c-1.75-3.19-5.37-9.82-3-13.23,1.07-1.58,3.2-2.2,6.33-1.88A18.93,18.93,0,0,0,42.64,10,16,16,0,0,0,30.29,4a10,10,0,0,0-7.63,2.9c-4.32,4.45-4.18,12.53-4.18,12.61a.84.84,0,1,1-1.68,0c0-.36-.17-8.89,4.65-13.86A11.57,11.57,0,0,1,30.3,2.26,17.65,17.65,0,0,1,43.8,8.77a18.33,18.33,0,0,1,4.08,7.83,1,1,0,0,1-.7,1.14h-.3c-2.11-.34-4.84-.45-5.84,1-1.75,2.53,1.67,8.76,3.12,11.42.38.68.64,1.18.77,1.48a10,10,0,0,0,1.6,2.6,4.37,4.37,0,0,1,1,1.64c.07.12,1,1.41,6.25.32,1.38-.29,2.2,0,2.46.75.5,1.53-2.24,3.3-3.76,4A13.58,13.58,0,0,1,47.08,42ZM44.86,40a5.26,5.26,0,0,0,2.77.37,11.66,11.66,0,0,0,4.12-.88,8.8,8.8,0,0,0,2.38-1.58h0c-3.44.73-5.87.63-7.24-.3a1.47,1.47,0,0,1-.23-.18l-.35.11C45.51,37.76,44.77,38,44.86,40Z"/></g></g><g id="Group-9" data-name="Group"><g id="Vector-8" data-name="Vector"><path id="path111_fill" data-name="path111 fill" class="cls-2" d="M22.68,44.47A11,11,0,0,1,20,44.11c-.27-.07-2.59-.71-2.57-2.22s2-1.79,2.71-2c2.58-.53,2.74-.75,3.55-1.79.24-.3.54-.68.94-1.15a2.44,2.44,0,0,1,3.14-.77,3.42,3.42,0,0,1,1.84,2.25A3,3,0,0,1,29.27,41,7.75,7.75,0,0,1,22.68,44.47ZM19.31,42a4,4,0,0,0,1.11.49c2.23.58,5.35.6,7.48-2.44A1.29,1.29,0,0,0,28,39a1.86,1.86,0,0,0-.87-1.15c-.46-.19-.7-.3-1.25.33-.36.42-.63.77-.87,1.07-1,1.33-1.49,1.77-4.53,2.41A5.1,5.1,0,0,0,19.31,42Z"/></g></g><g id="Group-10" data-name="Group"><g id="Vector-9" data-name="Vector"><path id="path112_fill" data-name="path112 fill" class="cls-2" d="M25.14,38.39a.85.85,0,0,1-.83-.73l0-.34A7.55,7.55,0,0,1,19,34.87a9,9,0,0,1-2.3-7.44,36.08,36.08,0,0,0,.17-7c0-.4,0-.68,0-.88s0-.94,2.22-2.1a12.43,12.43,0,0,1,4-1.29c2.83-.3,4.71,1,5.27,3.63,1.49,7.05.12,10.19-.89,12.46-.19.42-.36.82-.5,1.21l-.12.34a8.69,8.69,0,0,0-.85,3.6.85.85,0,0,1-.7,1A.2.2,0,0,1,25.14,38.39ZM18.5,19.78c0,.14,0,.33,0,.53a37.68,37.68,0,0,1-.19,7.37,7.28,7.28,0,0,0,1.85,6,5.87,5.87,0,0,0,4.27,1.93,19.42,19.42,0,0,1,.79-2.41l.12-.34c.16-.44.35-.86.55-1.31,1-2.18,2.16-4.89.78-11.41a2.57,2.57,0,0,0-2-2.23C22.43,17.39,19.19,19.15,18.5,19.78Z"/></g></g><g id="Group-11" data-name="Group"><g id="Vector-10" data-name="Vector"><path id="path113_fill" data-name="path113 fill" class="cls-2" d="M23.1,19.41c0,.27.5,1,1.21,1.12a1.3,1.3,0,0,0,1.34-.77c0-.27-.5-.59-1.21-.68S23.14,19.13,23.1,19.41Z"/></g><g id="Vector-11" data-name="Vector"><path id="path114_fill" data-name="path114 fill" class="cls-2" d="M24.45,20.83h-.19a1.91,1.91,0,0,1-1.2-.75,1.11,1.11,0,0,1-.26-.68A.58.58,0,0,1,23,19a2,2,0,0,1,1.44-.21c.75.11,1.52.47,1.44,1A1.52,1.52,0,0,1,24.45,20.83Zm-1.07-1.37a1.37,1.37,0,0,0,1,.79,1.09,1.09,0,0,0,1-.51,1.64,1.64,0,0,0-1-.38A1.65,1.65,0,0,0,23.38,19.46Z"/></g></g><g id="Group-12" data-name="Group"><g id="Vector-12" data-name="Vector"><path id="path115_fill" data-name="path115 fill" class="cls-2" d="M44.5,18.83c0,.27-.5,1-1.21,1.12A1.3,1.3,0,0,1,42,19.18c0-.27.5-.59,1.21-.68S44.48,18.55,44.5,18.83Z"/></g><g id="Vector-13" data-name="Vector"><path id="path116_fill" data-name="path116 fill" class="cls-2" d="M43.15,20.12a1.44,1.44,0,0,1-1.33-.89c-.05-.42.62-.75,1.33-.85s1.44,0,1.5.45a1.14,1.14,0,0,1-.36.75,1.67,1.67,0,0,1-1,.53A.74.74,0,0,0,43.15,20.12Zm.46-1.49-.42,0c-.74.11-1.1.4-1.09.52a1.19,1.19,0,0,0,1.18.64,1.47,1.47,0,0,0,.81-.45.86.86,0,0,0,.28-.51C44.36,18.76,44.09,18.63,43.61,18.63Z"/></g></g><g id="Group-13" data-name="Group"><g id="Vector-14" data-name="Vector"><path id="path117_fill" data-name="path117 fill" class="cls-2" d="M45.53,34.93a.77.77,0,0,1-.47-.15.85.85,0,0,1-.23-1.18c1.64-2.49,1.33-5,1-7.5a21.41,21.41,0,0,1-.21-3.2,26.26,26.26,0,0,1,.3-2.83,15.43,15.43,0,0,0,.24-3.11.84.84,0,1,1,1.68-.1,16.3,16.3,0,0,1-.26,3.46,20.7,20.7,0,0,0-.28,2.63,19.15,19.15,0,0,0,.21,2.94c.31,2.64.66,5.64-1.32,8.66A.88.88,0,0,1,45.53,34.93Z"/></g></g></g></g></g></svg>