<svg id="Layer_1" data-name="Layer 1" xmlns="http://www.w3.org/2000/svg" xmlns:xlink="http://www.w3.org/1999/xlink" viewBox="0 0 62 61"><defs><style>.cls-1{fill:url(#linear-gradient);}.cls-2{fill:url(#linear-gradient-2);}</style><linearGradient id="linear-gradient" x1="-720.71" y1="562.23" x2="-719.71" y2="562.23" gradientTransform="matrix(30.67, 30.15, -30.43, 30.39, 39219.26, 4647.34)" gradientUnits="userSpaceOnUse"><stop offset="0" stop-color="#387eb8"/><stop offset="1" stop-color="#366994"/></linearGradient><linearGradient id="linear-gradient-2" x1="-721.39" y1="562.67" x2="-720.39" y2="562.67" gradientTransform="matrix(32.93, 30.92, -31.21, 32.62, 41338.95, 3970.51)" gradientUnits="userSpaceOnUse"><stop offset="0" stop-color="#ffe052"/><stop offset="1" stop-color="#ffc331"/></linearGradient></defs><title>los logos pack</title><g id="Group"><g id="Group-2" data-name="Group"><g id="Vector"><path id="path55_fill" data-name="path55 fill" class="cls-1" d="M30.79,0C15,0,16,6.75,16,6.75l0,7h15v2.11h-21S0,14.72,0,30.42,8.79,45.56,8.79,45.56H14v-7.3s-.29-8.69,8.65-8.69H37.59s8.38.14,8.38-8V8.14S47.23,0,30.79,0ZM22.51,4.71a2.66,2.66,0,1,1-2.7,2.66A2.67,2.67,0,0,1,22.51,4.71Z"/></g><g id="Vector-2" data-name="Vector"><path id="path56_fill" data-name="path56 fill" class="cls-2" d="M31.23,61C47,61,46,54.26,46,54.26l0-7h-15V45.18h21S62,46.31,62,30.61,53.2,15.46,53.2,15.46H48v7.3s.29,8.69-8.65,8.69H24.4s-8.38-.14-8.38,8V52.89S14.79,61,31.23,61Zm8.28-4.71a2.66,2.66,0,1,1,2.7-2.66A2.67,2.67,0,0,1,39.51,56.3Z"/></g></g></g></svg>