<svg id="Layer_1" data-name="Layer 1" xmlns="http://www.w3.org/2000/svg" viewBox="0 0 58 59"><defs><style>.cls-1{fill:#343434;}</style></defs><title>los logos pack</title><g id="Group"><g id="Group-2" data-name="Group"><g id="Vector"><path id="path65_fill" data-name="path65 fill" class="cls-1" d="M28.57,36.48a7,7,0,1,0-7-7A7,7,0,0,0,28.57,36.48Z"/></g><g id="Vector-2" data-name="Vector"><path id="path66_fill" data-name="path66 fill" class="cls-1" d="M.09,22.08c0,.07-.09.25-.09.32a1.43,1.43,0,0,0,1.44,1.44H13.29A1.37,1.37,0,0,0,14.55,23a15.4,15.4,0,1,1,0,12.92A1.33,1.33,0,0,0,13.29,35H1.44A1.43,1.43,0,0,0,0,36.42a.49.49,0,0,0,.09.34,29.42,29.42,0,1,0,0-14.68Z"/></g></g></g></svg>