<svg id="Layer_1" data-name="Layer 1" xmlns="http://www.w3.org/2000/svg" viewBox="0 0 64 64"><defs><style>.cls-1{fill:#dfa22f;}.cls-2{fill:#3cb187;}.cls-3{fill:#ce1e5b;}.cls-4{fill:#392538;}.cls-5{fill:#bb242a;}.cls-6{fill:#72c5cd;}.cls-7{fill:#248c73;}.cls-8{fill:#62803a;}</style></defs><title>los logos pack</title><g id="Group"><g id="Group-2" data-name="Group"><g id="Vector"><path id="path0_fill" data-name="path0 fill" class="cls-1" d="M41.51,3.94A5.69,5.69,0,1,0,30.68,7.46L45.41,52.84a5.7,5.7,0,0,0,10.83-3.53C56.19,49.19,41.51,3.94,41.51,3.94Z"/></g><g id="Vector-2" data-name="Vector"><path id="path1_fill" data-name="path1 fill" class="cls-2" d="M18.66,11.34A5.69,5.69,0,1,0,7.83,14.86L22.56,60.24a5.7,5.7,0,0,0,10.83-3.53C33.36,56.61,18.66,11.34,18.66,11.34Z"/></g><g id="Vector-3" data-name="Vector"><path id="path2_fill" data-name="path2 fill" class="cls-3" d="M60.07,41.5a5.7,5.7,0,0,0-3.53-10.83L11.19,45.41a5.7,5.7,0,0,0,3.53,10.83C14.81,56.19,60.07,41.5,60.07,41.5Z"/></g><g id="Vector-4" data-name="Vector"><path id="path3_fill" data-name="path3 fill" class="cls-4" d="M20.63,54.31c3-1,6.75-2.2,10.83-3.53-1-3-2.2-6.75-3.53-10.86L17.08,43.46Z"/></g><g id="Vector-5" data-name="Vector"><path id="path4_fill" data-name="path4 fill" class="cls-5" d="M43.46,46.88c4.1-1.33,7.9-2.58,10.83-3.53-1-3-2.2-6.75-3.53-10.86L39.91,36Z"/></g><g id="Vector-6" data-name="Vector"><path id="path5_fill" data-name="path5 fill" class="cls-6" d="M52.64,18.64A5.7,5.7,0,0,0,49.11,7.81L3.76,22.55A5.7,5.7,0,0,0,7.28,33.38C7.41,33.35,52.64,18.64,52.64,18.64Z"/></g><g id="Vector-7" data-name="Vector"><path id="path6_fill" data-name="path6 fill" class="cls-7" d="M13.21,31.47l10.85-3.53c-1.33-4.1-2.58-7.9-3.53-10.86L9.68,20.62Z"/></g><g id="Vector-8" data-name="Vector"><path id="path7_fill" data-name="path7 fill" class="cls-8" d="M36.07,24l10.85-3.53c-1.33-4.1-2.58-7.9-3.53-10.86L32.54,13.19Z"/></g></g></g></svg>