<?xml version="1.0" encoding="utf-8"?>
<!-- Generator: Adobe Illustrator 16.0.0, SVG Export Plug-In . SVG Version: 6.00 Build 0)  -->
<!DOCTYPE svg PUBLIC "-//W3C//DTD SVG 1.1//EN" "http://www.w3.org/Graphics/SVG/1.1/DTD/svg11.dtd">
<svg version="1.1" id="Layer_1" xmlns="http://www.w3.org/2000/svg" xmlns:xlink="http://www.w3.org/1999/xlink" x="0px" y="0px"
	 width="314px" height="524px" viewBox="0 0 314 524" enable-background="new 0 0 314 524" xml:space="preserve">
<g id="Walizka">
	<path fill="none" stroke="#6D6E70" stroke-width="1.1741" stroke-miterlimit="10" d="M215.736,261.565l1.699-3.022
		c0,0,0.851-1.513,2.36-0.662l6.052,3.398c0,0,1.51,0.851,0.659,2.362l-1.698,3.023"/>
	
		<rect x="201.123" y="262.357" transform="matrix(-0.8718 -0.4898 0.4898 -0.8718 270.9972 614.6484)" fill="#1F1F20" width="29.589" height="19.022"/>
</g>
<g>
	<polygon fill="#58595B" points="228.549,212.508 228.7,226.324 250.4,227.741 249.503,215.301 	"/>
	<polygon fill="#1F1F20" points="236.555,236.057 228.7,226.324 250.4,227.741 259.45,235.813 	"/>
	<polygon fill="#F1F1F2" points="229.545,213.625 229.738,225.286 249.322,226.662 248.88,216.004 	"/>
	<polygon fill="#58595B" points="247.904,232.84 242.3,232.846 244.609,235.157 250.039,234.974 	"/>
</g>
<g>
	<polygon fill="#1F1F20" points="136.579,120.606 142.79,135.106 150.146,133.338 144.688,119.925 	"/>
	<polygon fill="#F1F1F2" points="137.845,121.435 142.733,132.253 148.656,130.979 144.228,120.606 	"/>
</g>
</svg>
