<?xml version="1.0" encoding="utf-8"?>
<!-- Generator: Adobe Illustrator 16.0.0, SVG Export Plug-In . SVG Version: 6.00 Build 0)  -->
<!DOCTYPE svg PUBLIC "-//W3C//DTD SVG 1.1//EN" "http://www.w3.org/Graphics/SVG/1.1/DTD/svg11.dtd">
<svg version="1.1" id="Layer_1" xmlns="http://www.w3.org/2000/svg" xmlns:xlink="http://www.w3.org/1999/xlink" x="0px" y="0px"
	 width="468.047px" height="729.135px" viewBox="0 0 468.047 729.135" enable-background="new 0 0 468.047 729.135"
	 xml:space="preserve">
<g id="UFO_LEWE">
	<g>
		
			<linearGradient id="SVGID_1_" gradientUnits="userSpaceOnUse" x1="486.7246" y1="93.8281" x2="528.2296" y2="-416.338" gradientTransform="matrix(1 0 0 -1 -296 344.1348)">
			<stop  offset="0" style="stop-color:#FFFFFF"/>
			<stop  offset="1" style="stop-color:#231F20"/>
		</linearGradient>
		<polygon opacity="0.3" fill="url(#SVGID_1_)" enable-background="new    " points="191.018,98.658 89.97,677.341 360.962,677.341 
			225.465,98.658 		"/>
		<ellipse fill="#F1F1F2" cx="225.466" cy="677.341" rx="135.496" ry="5.358"/>
		<g>
			
				<linearGradient id="SVGID_2_" gradientUnits="userSpaceOnUse" x1="497.3613" y1="355.0742" x2="503.8463" y2="262.9932" gradientTransform="matrix(1 0 0 -1 -296 344.1348)">
				<stop  offset="0" style="stop-color:#FFFFFF"/>
				<stop  offset="1" style="stop-color:#231F20"/>
			</linearGradient>
			<path fill="url(#SVGID_2_)" d="M169.73,97.662l1.109-25.252c0,0,1.664-37.877,39.543-36.213
				c37.876,1.662,36.212,39.541,36.212,39.541l-1.109,25.25L169.73,97.662z"/>
			<polygon fill="#6D6E70" points="208.163,86.7 157.659,84.482 81.347,93.78 207.608,99.324 			"/>
			<polygon fill="#6D6E70" points="208.163,86.7 258.668,88.919 333.867,104.871 207.608,99.324 			"/>
			<polygon fill="#58595B" points="157.659,84.482 170.839,72.41 246.596,75.738 258.668,88.919 			"/>
			<polygon fill="#E6E7E8" points="81.347,93.78 141.372,104.667 273.12,110.453 333.867,104.871 			"/>
			<path fill="#FFFFFF" d="M232.032,106.719c-0.064,1.517-11.179,2.26-24.822,1.66c-13.644-0.6-24.648-2.313-24.58-3.83
				c0.064-1.516,11.179-2.258,24.822-1.66C221.093,103.488,232.1,105.205,232.032,106.719z"/>
			<g>
				<circle fill="#6D6E70" cx="180.533" cy="79.161" r="2.334"/>
				<path fill="#6D6E70" d="M195.374,78.255c-0.02,0.429-0.382,0.763-0.812,0.743l-9.33-0.41c-0.429-0.019-0.762-0.382-0.744-0.811
					l0,0c0.019-0.43,0.382-0.763,0.812-0.742l9.33,0.407C195.059,77.462,195.392,77.826,195.374,78.255L195.374,78.255z"/>
				<path fill="#6D6E70" d="M190.573,81.16c-0.02,0.429-0.384,0.762-0.813,0.743l-4.666-0.204c-0.429-0.02-0.762-0.383-0.743-0.812
					l0,0c0.02-0.431,0.382-0.763,0.812-0.744l4.665,0.205C190.258,80.367,190.59,80.73,190.573,81.16L190.573,81.16z"/>
				<path fill="#6D6E70" d="M176.577,80.545c-0.019,0.43-0.382,0.764-0.81,0.743l0,0c-0.432-0.019-0.763-0.382-0.746-0.812
					l0.137-3.109c0.02-0.43,0.383-0.762,0.812-0.744l0,0c0.431,0.02,0.764,0.382,0.745,0.813L176.577,80.545z"/>
				<path fill="#6D6E70" d="M207.778,79.579c-0.037,0.858-0.765,1.524-1.622,1.485c-0.859-0.037-1.524-0.763-1.487-1.621
					c0.038-0.861,0.765-1.525,1.624-1.486C207.152,77.993,207.816,78.719,207.778,79.579z"/>
				<circle fill="#E6E7E8" cx="212.443" cy="79.783" r="1.557"/>
				<circle fill="#E6E7E8" cx="218.664" cy="80.058" r="1.557"/>
			</g>
			<g>
				<path fill="#58595B" d="M218.601,94.402c-0.038,0.832-0.743,1.477-1.575,1.442l-3.771-0.167c-0.832-0.036-1.475-0.74-1.44-1.574
					l0.166-3.77c0.035-0.833,0.741-1.479,1.575-1.441l3.769,0.165c0.835,0.038,1.478,0.743,1.443,1.575L218.601,94.402z"/>
				<path fill="#58595B" d="M223.33,89.889c-0.012,0.313-0.276,0.556-0.588,0.541l-2.263-0.1c-0.313-0.014-0.555-0.278-0.541-0.592
					l0,0c0.014-0.311,0.279-0.553,0.592-0.54l2.26,0.101C223.102,89.313,223.346,89.577,223.33,89.889L223.33,89.889z"/>
				<path fill="#58595B" d="M223.232,92.15c-0.015,0.313-0.278,0.555-0.592,0.541l-2.262-0.1c-0.313-0.014-0.554-0.277-0.541-0.59
					l0,0c0.014-0.313,0.279-0.557,0.59-0.541l2.262,0.1C223.003,91.574,223.246,91.838,223.232,92.15L223.232,92.15z"/>
				<path fill="#58595B" d="M223.132,94.412c-0.014,0.313-0.276,0.555-0.592,0.541l-2.26-0.099
					c-0.312-0.015-0.554-0.279-0.542-0.591l0,0c0.015-0.313,0.279-0.555,0.592-0.541l2.262,0.1
					C222.904,93.836,223.146,94.1,223.132,94.412L223.132,94.412z"/>
				<path fill="#58595B" d="M223.033,96.674c-0.013,0.313-0.277,0.555-0.59,0.542l-2.262-0.101c-0.312-0.014-0.554-0.277-0.541-0.59
					l0,0c0.015-0.313,0.277-0.555,0.591-0.541l2.261,0.1C222.805,96.098,223.046,96.362,223.033,96.674L223.033,96.674z"/>
				<circle fill="#58595B" cx="240.811" cy="91.79" r="1.698"/>
				<circle fill="#58595B" cx="237.468" cy="90.51" r="0.566"/>
			</g>
			
				<rect x="170.825" y="72.74" transform="matrix(-0.999 -0.0439 0.0439 -0.999 414.0529 155.9077)" fill="#6D6E70" width="75.827" height="1.335"/>
			
				<rect x="194.579" y="71.577" transform="matrix(-0.999 -0.0439 0.0439 -0.999 414.1284 154.6815)" fill="#6D6E70" width="28.369" height="2.432"/>
			<g>
				<path fill="#6D6E70" d="M203.354,65.596c0,0-1.908-0.084-1.825-1.992l0.168-3.817c0,0,0.083-1.908,1.992-1.825l11.449,0.504
					c0,0,1.908,0.084,1.826,1.992l-0.169,3.816c0,0-0.084,1.908-1.993,1.824L203.354,65.596z"/>
				<path fill="#58595B" d="M205.009,71.404l0.085-1.909c0,0,0.084-1.908,1.992-1.825l3.818,0.168c0,0,1.909,0.085,1.824,1.994
					l-0.083,1.908L205.009,71.404z"/>
				
					<rect x="207.116" y="65.853" transform="matrix(-0.999 -0.0439 0.0439 -0.999 414.9157 142.7368)" fill="#58595B" width="3.822" height="1.91"/>
				
					<ellipse transform="matrix(0.0436 -0.9991 0.9991 0.0436 133.8021 263.4259)" fill="#E6E7E8" cx="204.483" cy="61.831" rx="1.911" ry="0.955"/>
				
					<ellipse transform="matrix(0.0445 -0.999 0.999 0.0445 141.4392 272.285)" fill="#E6E7E8" cx="213.059" cy="62.204" rx="1.91" ry="0.955"/>
			</g>
		</g>
		
			<linearGradient id="SVGID_3_" gradientUnits="userSpaceOnUse" x1="507.3584" y1="132.3496" x2="512.5469" y2="-395.1129" gradientTransform="matrix(1 0 0 -1 -296 344.1348)">
			<stop  offset="0" style="stop-color:#FFFFFF"/>
			<stop  offset="0.9901" style="stop-color:#231F20"/>
		</linearGradient>
		<polygon fill="url(#SVGID_3_)" points="199.361,106.723 225.828,568.283 217.106,107.993 		"/>
	</g>
	<ellipse fill="#A6A8AB" cx="249.457" cy="676.905" rx="40.839" ry="1.814"/>
	<g>
		<g id="PANI_Z_BUTEM">
			<polygon fill="#F1F1F2" points="207.998,418.59 219.348,419.13 228.766,412.745 229.463,410.315 234.959,408.63 236.157,411.676 
				230.171,415.098 219.671,422.649 208.787,423.644 			"/>
			<polygon fill="#1F1F20" points="200.107,414.777 197.144,416.765 191.539,420.22 195.298,433.045 198.579,437.758 
				210.573,436.58 210.514,425.721 212.396,422.768 207.256,416.458 204.732,415.806 			"/>
			<polygon fill="#F1F1F2" points="197.144,416.765 200.107,414.777 195.597,401.399 199.34,397.96 206.389,399.15 207.868,409.925 
				204.086,411.569 204.732,415.806 207.05,418.581 204.637,420.419 198.479,419.826 			"/>
			<path fill="#1F1F20" d="M198.579,437.758l-3.172,8.15l11.078,25.899c0,0,21.161,4.968,21.667,4.356
				c0.508-0.611,4.466-5.682,4.466-5.682l15.827-2.021l12.003-16.566l-8.392-0.386l0.258-2.239l-41.742-12.691L198.579,437.758z"/>
			<path fill="#F1F1F2" d="M194.085,419.981l-2.08,1.808l-9.084,11.885l3.161,13.296l-0.445,1.381l2.174,3.495
				c0,0,2.622-0.256,2.62-0.51c-0.003-0.254-0.774-6.261-0.774-6.261l-1.773-1.588l-0.836-10.007l8.542-7.317L194.085,419.981z"/>
			<polygon fill="#1F1F20" points="206.389,399.15 205.256,402.657 202.156,404.754 202.878,402.509 198.059,408.697 
				195.597,401.399 199.34,397.96 			"/>
			<polygon fill="#F1F1F2" points="210.87,467.338 210.446,471.846 213.904,485.453 213.18,487.696 218.154,494.36 220.764,494.273 
				217.339,484.083 216.063,466.02 213.999,459.882 209.684,460.452 208.222,463.385 			"/>
			<path fill="#F1F1F2" d="M235.673,461.815l-3.704,18.394l3.097,5.2l-0.367,1.02c0,0-7.774-5.403-7.538-5.268
				c0.235,0.138,2.157-3.689,2.157-3.689l-0.144-12.427l1.499-3.089L235.673,461.815z"/>
			<path fill="#1F1F20" d="M198.459,398.77l-3.901,1.055l-4.628,8.107l-3.816,3.184l-3.406-0.479l2.304,1.98l-1.933,0.229
				l4.103,2.407l5.218-0.098l-2.555,0.958l-3.079,0.424l5.542,1.299c0,0,3.405-2.152,3.754-2.273
				c0.347-0.119,3.391-2.728,3.391-2.728L198.459,398.77z"/>
			<polygon fill="#1F1F20" points="217.19,516.792 220.054,517.899 221.437,520.39 226.092,524.32 226.34,528.004 216.779,522.526 
				215.473,517.746 			"/>
			<polygon fill="#1F1F20" points="231.969,480.209 236.619,485.762 234.698,486.429 229.189,483.135 227.848,483.188 
				226.174,481.979 229.317,477.472 230.271,479.79 			"/>
		</g>
		<g id="LAPTOP">
			<path fill="none" stroke="#929497" stroke-width="0.6485" stroke-miterlimit="10" d="M248.852,380.274
				c-2.357-0.98,0.616-4.854,1.418-5.758c2.032-2.295,4.646-3.942,7.801-4.021c3.515-0.086,7.656,2.013,8.371,5.729
				c0.66,3.431-1.426,6.463-3.278,9.104c-3.628,5.171-8.263,9.681-11.293,15.265c-2.036,3.746-3.291,7.986-2.917,12.29
				c0.473,5.445,3.379,8.389,8.398,9.902"/>
			<polygon fill="#1F1F20" points="231.396,376.89 226.081,386.399 247.915,389.427 252.021,377.97 			"/>
			<polygon fill="#58595B" points="231.396,376.89 227.154,365.433 246.618,363.486 252.021,377.97 			"/>
			<polygon fill="#F1F1F2" points="229.323,367.054 232.458,375.483 249.967,376.349 245.32,365.539 			"/>
			<polygon fill="#58595B" points="235.376,384.563 234.295,386.833 239.05,387.59 239.645,384.995 			"/>
			<polygon fill="#231F20" points="257.264,419.981 254.471,423.644 261.244,426.267 263.634,421.925 			"/>
		</g>
		<g id="DESKOROLKA">
			<circle fill="#231F20" cx="232.637" cy="588.537" r="3.425"/>
			<circle fill="#404041" cx="232.638" cy="588.537" r="1.775"/>
			<circle fill="#231F20" cx="261.702" cy="579.485" r="3.424"/>
			<circle fill="#404041" cx="261.702" cy="579.485" r="1.776"/>
			<path fill="#BCBEC0" d="M221.093,586.021c0,0-1.016-3.271,5.521-5.307c6.541-2.036,35.966-11.2,35.966-11.2
				s6.54-2.034,7.556,1.233c1.021,3.27-5.521,5.305-5.521,5.305l-35.963,11.201C228.652,587.254,222.112,589.29,221.093,586.021z"/>
		</g>
	</g>
</g>
</svg>
