<?xml version="1.0" encoding="utf-8"?>
<!-- Generator: Adobe Illustrator 16.0.0, SVG Export Plug-In . SVG Version: 6.00 Build 0)  -->
<!DOCTYPE svg PUBLIC "-//W3C//DTD SVG 1.1//EN" "http://www.w3.org/Graphics/SVG/1.1/DTD/svg11.dtd">
<svg version="1.1" id="Layer_1" xmlns="http://www.w3.org/2000/svg" xmlns:xlink="http://www.w3.org/1999/xlink" x="0px" y="0px"
	 width="48.759px" height="51.938px" viewBox="0 0 48.759 51.938" enable-background="new 0 0 48.759 51.938" xml:space="preserve">
<g>
	<path fill="#FFFFFF" d="M4.556,47.301l-1.801-5.013H0v0.354c0.763,0.054,0.943,0.129,0.943,0.848V48.6
		c0,0.719-0.18,0.784-0.943,0.837v0.365h2.553v-0.365c-0.763-0.053-0.932-0.118-0.932-0.837v-5.12l2.278,6.322h0.477l2.278-6.332
		v5.13c0,0.719-0.159,0.784-0.932,0.837v0.365h3.327v-0.365c-0.763-0.053-0.933-0.118-0.933-0.837V43.49
		c0-0.719,0.17-0.794,0.933-0.848v-0.354H6.357L4.556,47.301z M13.514,48.814v-2.501c0-1.202-0.848-1.567-1.833-1.567
		c-1.346,0-2.247,0.569-2.247,1.277c0,0.387,0.212,0.58,0.509,0.58c0.307,0,0.561-0.184,0.678-0.58
		c0.148-0.526,0.435-0.751,0.954-0.751s0.657,0.257,0.657,0.987v0.568c-1.664,0.29-3.137,0.709-3.137,1.921
		c0,0.741,0.562,1.192,1.431,1.192c0.657,0,1.261-0.344,1.727-0.687c0.106,0.493,0.477,0.676,0.975,0.676
		c0.413,0,0.699-0.086,0.953-0.258V49.2c-0.137,0.075-0.254,0.107-0.349,0.107C13.62,49.308,13.514,49.147,13.514,48.814
		 M12.232,48.739c-0.35,0.247-0.721,0.429-1.124,0.429c-0.37,0-0.667-0.192-0.667-0.654c0-0.708,0.71-0.977,1.791-1.159V48.739z
		 M18.562,44.864c0.265,0,0.307,0.269,0.635,0.269c0.287,0,0.477-0.236,0.477-0.505c0-0.364-0.296-0.548-0.657-0.548
		c-0.498,0-0.996,0.365-1.324,0.816c-0.265-0.086-0.488-0.15-0.922-0.15c-1.335,0-2.13,0.794-2.13,1.857
		c0,0.569,0.223,1.052,0.636,1.384c-0.466,0.097-0.795,0.462-0.795,1.009c0,0.44,0.17,0.741,0.551,0.935
		c-0.339,0.161-0.572,0.419-0.561,0.826c0.01,0.901,1.155,1.181,2.458,1.181c1.473,0,2.532-0.526,2.532-1.535
		c0-0.858-0.561-1.298-2.119-1.352c-1.558-0.055-2.045-0.107-2.045-0.408c0-0.215,0.244-0.397,0.742-0.269
		c0.222,0.054,0.466,0.086,0.731,0.086c1.346,0,2.14-0.795,2.14-1.856c0-0.505-0.169-1.031-0.72-1.46
		C18.285,44.982,18.412,44.864,18.562,44.864 M15.731,50.146c0.361,0.063,0.785,0.106,1.314,0.128
		c1.102,0.033,1.399,0.086,1.399,0.462c0,0.343-0.509,0.676-1.526,0.676c-1.049,0-1.61-0.3-1.61-0.751
		C15.308,50.436,15.445,50.252,15.731,50.146 M16.771,47.935c-0.678,0-0.901-0.505-0.901-1.331c0-0.816,0.223-1.331,0.901-1.331
		c0.678,0,0.911,0.515,0.911,1.331C17.681,47.43,17.448,47.935,16.771,47.935 M22.958,44.746c-0.487,0-1.007,0.269-1.356,0.677
		v-0.677h-0.456l-1.473,0.869v0.322h0.35c0.212,0,0.297,0.086,0.297,0.333v2.662c0,0.343-0.117,0.451-0.647,0.504v0.365h2.586
		v-0.365c-0.53-0.053-0.657-0.161-0.657-0.504v-2.834c0.201-0.289,0.477-0.43,0.699-0.43c0.35,0,0.36,0.526,0.911,0.526
		c0.339,0,0.625-0.258,0.625-0.698C23.837,45.058,23.542,44.746,22.958,44.746 M29.176,48.933v-4.187h-0.467l-1.462,0.869v0.322
		h0.35c0.212,0,0.297,0.086,0.297,0.333v2.564c-0.36,0.247-0.742,0.397-1.166,0.397c-0.445,0-0.752-0.236-0.752-0.815v-3.671H25.51
		l-1.474,0.869v0.322h0.36c0.212,0,0.297,0.086,0.297,0.333v2.125c0,1.299,0.879,1.566,1.589,1.566c0.563,0,1.198-0.257,1.611-0.525
		v0.525c0.646-0.106,1.293-0.16,1.938-0.16v-0.365C29.303,49.384,29.176,49.275,29.176,48.933 M35.483,49.802v-0.365
		c-0.529-0.053-0.646-0.161-0.646-0.504v-6.806h-0.466l-1.473,0.869v0.322h0.35c0.223,0,0.308,0.086,0.308,0.333v1.621
		c-0.329-0.333-0.784-0.526-1.399-0.526c-1.355,0-2.225,1.073-2.225,2.608c0,1.523,0.869,2.607,2.225,2.607
		c0.615,0,1.07-0.192,1.399-0.535v0.535C34.191,49.855,34.837,49.802,35.483,49.802 M32.538,49.341c-0.912,0-1.261-0.73-1.261-1.986
		s0.349-1.996,1.261-1.996c0.445,0,0.784,0.182,1.018,0.515v2.952C33.322,49.157,32.983,49.341,32.538,49.341 M38.676,45.262
		c0.551,0.054,0.741,0.235,0.497,0.848l-0.847,2.147l-0.815-2.147c-0.233-0.612-0.181-0.794,0.466-0.848v-0.354h-2.639v0.354
		c0.467,0.054,0.562,0.29,0.773,0.848l1.515,3.885l-0.18,0.451c-0.138,0.354-0.328,0.602-0.583,0.602
		c-0.37,0-0.423-0.516-0.921-0.516c-0.35,0-0.615,0.269-0.615,0.612c0,0.482,0.498,0.794,1.081,0.794c0.71,0,1.25-0.418,1.568-1.223
		l1.844-4.605c0.222-0.58,0.392-0.794,0.784-0.848v-0.354h-1.929V45.262z M41.688,42.127c-0.529,0-0.848,0.397-0.848,0.827
		c0,0.45,0.308,0.848,0.911,0.848c-0.105,0.482-0.329,0.881-0.668,1.331l0.276,0.235c0.54-0.524,1.176-1.556,1.176-2.296
		C42.535,42.524,42.207,42.127,41.688,42.127 M43.224,45.842c0-0.333,0.274-0.592,0.795-0.592c0.646,0,1.303,0.376,1.79,1.235
		l0.308-0.097l-0.308-1.481H45.48l-0.117,0.269c-0.318-0.236-0.763-0.43-1.451-0.43c-1.081,0-1.886,0.645-1.886,1.492
		c0,1.889,3.253,1.277,3.253,2.468c0,0.494-0.445,0.73-0.954,0.73c-0.815,0-1.579-0.45-2.183-1.416l-0.286,0.085l0.382,1.696h0.328
		l0.127-0.333c0.36,0.269,1.007,0.493,1.674,0.493c1.155,0,2.045-0.633,2.045-1.685C46.412,46.367,43.224,46.946,43.224,45.842
		 M48.306,42.3l-0.407,0.951L47.492,42.3h-0.449v1.551h0.317v-1.113l0.412,0.888h0.258l0.412-0.888v1.113h0.317V42.3H48.306z
		 M45.48,42.609h0.502v1.241h0.315v-1.241h0.503v-0.321h-1.32V42.609z"/>
	<path fill="#FFFFFF" d="M46.195,38.341v-1.861c-3.894-0.274-4.759-0.604-4.759-4.272V6.134c0-3.67,0.865-4.053,4.759-4.327V0H32.46
		l-9.193,25.579L14.075,0H0.015v1.807c3.894,0.274,4.813,0.657,4.813,4.327v26.073c0,3.669-0.919,3.998-4.813,4.272v1.861h13.032
		v-1.861c-3.893-0.274-4.759-0.604-4.759-4.272V6.079l11.627,32.262h2.433L33.974,6.025v26.182c0,3.669-0.811,3.998-4.759,4.272
		v1.861H46.195z"/>
</g>
</svg>
