<?xml version="1.0" encoding="utf-8"?>
<!-- Generator: Adobe Illustrator 16.0.0, SVG Export Plug-In . SVG Version: 6.00 Build 0)  -->
<!DOCTYPE svg PUBLIC "-//W3C//DTD SVG 1.1//EN" "http://www.w3.org/Graphics/SVG/1.1/DTD/svg11.dtd">
<svg version="1.1" id="Layer_1" xmlns="http://www.w3.org/2000/svg" xmlns:xlink="http://www.w3.org/1999/xlink" x="0px" y="0px"
	 width="400px" height="400px" viewBox="0 0 400 400" enable-background="new 0 0 400 400" xml:space="preserve">
<g>
	<g>
		<circle fill="#FFFFFF" stroke="#000000" stroke-width="5.2239" stroke-miterlimit="10" cx="200" cy="200" r="175"/>
		<g>
			<path d="M126.036,99.565l-1.327-1.582c2.255-2.21,2.566-2.986,0.766-5.134L111.45,76.121l9.952,27.33l-2.188,1.833L94.137,90.825
				l13.929,16.617c1.8,2.149,2.619,1.977,5.188,0.143l1.326,1.584l-8.855,7.422l-1.327-1.583c2.254-2.211,2.566-2.984,0.768-5.134
				L90.131,91.938c-1.833-2.186-2.62-1.974-5.188-0.143l-1.328-1.581l11.004-9.223l18.464,10.698l-7.272-20.08l10.738-9.001
				l1.326,1.581c-2.253,2.209-2.597,2.948-0.765,5.134l15.033,17.937c1.801,2.148,2.619,1.975,5.188,0.142l1.328,1.583
				L126.036,99.565z"/>
			<path d="M151.625,81.646c-1.218,2.292-3.129,4.849-5.899,6.119c-3.664,1.685-6.978,0.718-8.373-2.322
				c-2.442-5.314,3.438-10.183,9.293-14.279l-0.964-2.1c-1.274-2.77-2.128-3.567-4.094-2.666c-1.698,0.78-2.224,2.105-1.93,4.512
				c0.236,2.166-0.645,3.545-2.253,4.284c-1.475,0.676-2.957,0.275-3.821-1.6c-1.519-3.306,1.654-7.472,7.508-10.161
				c4.558-2.095,9.313-2.222,11.612,2.78l4.743,10.321c0.554,1.207,1.228,1.493,1.987,1.144c0.312-0.143,0.738-0.393,1.151-0.908
				l1.048,2.28c-0.903,1.334-2.078,2.307-4.09,3.229C155.22,83.349,153.082,83.52,151.625,81.646z M150.299,79.117l-2.464-5.361
				c-3.29,2.378-5.21,4.56-4.081,7.017c0.76,1.65,2.226,1.899,3.567,1.282C148.662,81.44,149.575,80.369,150.299,79.117z"/>
			<path d="M178.973,53.588c-1.626,0.39-1.959-0.796-3.154-0.51c-0.527,0.124-0.985,0.537-1.241,1.155
				c3.103,0.929,4.735,3.319,5.293,5.662c1.131,4.737-1.888,9.045-8.152,10.54c-1.437,0.342-2.761,0.506-3.99,0.446
				c-1.434,0.14-2.024,0.837-1.864,1.507c0.262,1.099,2.723,0.814,9.428-0.53c6.852-1.381,10.043,0.133,11.024,4.248
				c1.175,4.927-3.601,8.644-10.443,10.275c-5.357,1.277-11.452,1.365-12.493-2.785c-0.411-1.721,0.344-3.014,1.654-4.085
				c-1.831-0.473-2.976-1.667-3.487-3.819c-0.605-2.536,0.478-4.563,2.505-5.603c-2.267-1.026-3.821-2.88-4.414-5.367
				c-1.13-4.735,1.887-9.045,8.201-10.551c0.86-0.205,2.367-0.463,3.38-0.453c1.052-2.373,2.997-4.606,5.723-5.259
				c1.723-0.409,3.459,0.086,3.904,1.953C181.187,51.846,180.41,53.247,178.973,53.588z M171.045,67.614
				c2.343-0.56,2.925-2.57,2.081-6.108c-0.833-3.492-2.271-5.072-4.615-4.512c-2.391,0.57-2.964,2.627-2.131,6.118
				C167.226,66.654,168.653,68.185,171.045,67.614z M169.148,79.796c-0.963,0.632-1.426,1.451-1.22,2.313
				c0.378,1.577,2.68,2.545,7.271,1.451c4.258-1.018,5.793-2.85,5.508-4.044c-0.342-1.436-1.452-1.424-5.792-0.54
				C172.741,79.392,170.784,79.658,169.148,79.796z"/>
			<path d="M202.669,57.501c-2.995,0.175-2.947-2.391-4.566-2.298c-0.884,0.052-1.794,0.5-2.474,1.524l0.725,12.519
				c0.083,1.474,0.6,1.887,2.873,2.002l0.119,2.063l-13.012,0.752l-0.117-2.062c2.193-0.374,2.709-0.847,2.623-2.321l-0.671-11.635
				c-0.062-1.031-0.431-1.454-1.313-1.402l-1.521,0.087l-0.11-1.913l7.271-4.558l2.751-0.161l0.167,2.897
				c1.377-1.754,3.613-3.115,5.871-3.245c2.651-0.154,4.406,1.223,4.547,3.678C205.975,55.882,204.487,57.396,202.669,57.501z"/>
			<path d="M224.58,55.51l8.021-3.054l2.728,0.379l-2.646,18.995c-0.204,1.462,0.223,1.969,2.428,2.522l-0.284,2.044
				c-3.459-0.48-6.846-0.753-10.281-0.686l0.327-2.336c-2.174,0.986-5.147,1.663-7.682,1.312c-3.554-0.496-7.518-2.339-6.637-8.67
				l1.234-8.863c0.144-1.022-0.136-1.509-1.014-1.631l-1.462-0.205l0.267-1.897l8.021-3.054l2.726,0.38l-2.299,16.511
				c-0.325,2.338,0.91,3.453,2.711,3.703c1.559,0.217,3.052-0.17,4.588-0.849l1.513-10.862c0.142-1.021-0.138-1.508-1.063-1.638
				l-1.462-0.203L224.58,55.51z"/>
			<path d="M258.603,52.174l8.443-1.29l2.629,0.968l-10.694,29.023c-0.511,1.384-0.201,1.969,1.836,2.982l-0.714,1.938
				c-3.275-1.206-6.528-2.195-9.944-2.877l0.799-2.168c-1.895,0.873-4.168,0.926-6.751-0.026c-5.768-2.125-8.196-8.05-5.646-14.972
				c2.532-6.874,8.226-9.809,13.993-7.684c2.583,0.953,4.262,2.513,5.152,4.361l2.262-6.136c0.355-0.97,0.188-1.503-0.645-1.811
				l-1.384-0.509L258.603,52.174z M252.08,77.703l4.505-12.227c-0.355-1.598-1.362-2.704-2.932-3.281
				c-3.414-1.259-5.797,0.799-7.802,6.243c-2.007,5.443-1.528,8.556,1.886,9.815C249.306,78.83,250.774,78.689,252.08,77.703z"/>
			<path d="M267.755,95.549c-3.218,2.355-6.535,2.697-9.474,0.908c-2.478-1.508-3.666-4.189-2.338-6.372
				c0.998-1.638,2.932-2.072,4.526-1.102c2.101,1.277,1.149,3.405,2.62,4.301c0.798,0.485,1.905,0.18,2.99-0.655l1.059-0.794
				l3.136-19.619c0.385-2.237,0.57-3.394-0.94-4.6l1.075-1.764l11.589,7.057l-1.073,1.764c-2.271-1.095-3.039-0.872-3.553,1.866
				l-1.533,8.851l7.285-5.35c2.169-1.672,1.703-2.703-0.099-4.09l1.072-1.763l7.77,4.729l-1.074,1.765
				c-1.597-0.687-2.629-0.22-4.604,1.225L267.755,95.549z"/>
			<path d="M305.526,74.346c2.365,1.919,2.277,4.76,0.479,6.974c-2.262,2.786-8.192,4.555-12.003,4.881l-0.385-2.021
				c2.422-0.565,4.438-1.334,6.261-2.643c-2.482-2.014-2.315-4.792-0.86-6.586C300.476,73.157,303.159,72.425,305.526,74.346z"/>
			<path d="M307.288,114.36c-3.696,3.604-8.933,2.459-12.917-1.624c-2.093-2.147-3.482-5.124-3.807-6.935l-1.398,0.539l-1.304-1.339
				l4.54-6.898l1.482,0.89c-1.207,4.747,0.024,9.111,2.393,11.54c1.408,1.444,3.142,1.883,4.374,0.683
				c3.311-3.228-7.982-12.274-1.927-18.18c3.064-2.985,8.166-2.053,11.839,1.715c2.299,2.358,2.936,4.42,3.226,6.196l1.328-0.469
				l1.269,1.303l-4.109,6.069l-1.658-0.925c1.2-4.124,0.377-7.788-1.478-9.689c-1.339-1.371-2.728-1.459-3.681-0.532
				C302.326,99.758,313.275,108.524,307.288,114.36z"/>
		</g>
		<g>
			<path d="M58.106,162.463l2.765-10.459l1.031,0.272c-0.426,2.224-0.371,2.756,1.659,3.293l14.434,3.814
				c2.029,0.537,2.369,0.108,3.099-2.034l1.002,0.264l-2.621,9.914c-1.491,5.641-3.627,8.937-7.781,7.838
				c-2.486-0.657-3.539-2.688-3.421-5.705c-1.534,3.098-3.956,4.404-6.593,3.706C57.526,172.269,56.599,168.164,58.106,162.463z
				 M68.479,165.434l1.01-3.82l-7.791-2.061c-0.577-0.152-1.007,0.124-1.149,0.67l-0.715,2.698c-0.833,3.152,0.259,5.16,3.048,5.898
				C65.671,169.556,67.734,168.254,68.479,165.434z M77.726,167.262l0.617-2.334c0.145-0.546-0.122-1.007-0.666-1.151l-6.461-1.707
				l-0.848,3.213c-0.729,2.761-0.293,4.79,2.526,5.535C75.684,171.555,76.974,170.112,77.726,167.262z"/>
			<path d="M64.357,186.79c0.211-1.616,1.736-1.448,1.871-2.473c0.086-0.653-0.215-1.514-0.975-2.214l-8.205-1.069
				c-0.993-0.129-1.352,0.202-1.711,1.736l-1.058-0.137l0.99-7.584l1.056,0.139c-0.046,1.573,0.22,1.957,1.214,2.086l7.707,1.005
				c0.714,0.092,0.994-0.123,1.076-0.744l0.135-1.027l0.93,0.122l1.956,4.647l-0.174,1.337l-1.959-0.255
				c1.048,1.18,1.626,2.802,1.44,4.232c-0.223,1.709-1.24,2.461-2.514,2.295C64.864,188.722,64.228,187.784,64.357,186.79z"/>
			<path d="M53.576,189.669l1.066,0.05c0.087,1.572,0.385,1.931,1.388,1.976l7.766,0.35c0.722,0.033,0.983-0.206,1.014-0.834
				l0.045-1.034l0.939,0.044l2.342,4.468l-0.061,1.347l-12.217-0.549c-1.003-0.045-1.331,0.315-1.56,1.875l-1.064-0.049
				L53.576,189.669z M75.173,194.532c-0.065,1.442-1.2,2.269-2.327,2.218c-1.099-0.049-2.123-0.975-2.058-2.415
				c0.063-1.439,1.168-2.237,2.263-2.188C74.179,192.196,75.239,193.093,75.173,194.532z"/>
			<path d="M53.566,209.685l1.063-0.062c0.248,1.556,0.583,1.914,1.585,1.854l7.729-0.453c1.66-0.099,2.292-1.078,2.216-2.392
				c-0.073-1.253-0.578-2.354-1.33-3.377l-8.949,0.525c-1.002,0.06-1.292,0.452-1.357,2.027l-1.064,0.061l-0.447-7.635l1.063-0.063
				c0.248,1.556,0.583,1.881,1.585,1.822l7.759-0.455c0.72-0.041,0.956-0.307,0.92-0.933l-0.063-1.033l0.94-0.055l2.79,4.201
				l0.08,1.344l-1.535,0.091c0.854,1.175,1.716,3.009,1.814,4.698c0.122,2.065-0.475,4.737-4.262,4.961l-7.666,0.45
				c-1.001,0.059-1.296,0.421-1.358,1.994l-1.064,0.063L53.566,209.685z"/>
			<path d="M70.217,224.635c0.122,0.549,0.178,1.085,0.197,1.594c4.469,0.442,8.275,2.801,9.223,7.022
				c0.504,2.232-0.053,4.769-1.734,5.146c-1.224,0.274-2.129-0.324-2.384-1.456c-0.502-2.233,2.5-2.459,2.021-4.6
				c-0.538-2.386-3.354-4.195-7.207-4.614c-0.365,2.233-1.879,3.795-4.021,4.274c-3.028,0.682-5.808-1.105-6.678-4.99
				c-0.16-0.704-0.25-1.39-0.229-2.006c0.065-1.717-0.696-2.253-1.248-2.129c-0.856,0.192-0.693,1.634,0.164,6.165
				c0.856,4.531-0.034,6.435-2.481,6.983c-2.876,0.646-5.061-2.076-6.018-6.328c-0.844-3.764-0.791-7.245,1.771-7.854
				c1.156-0.291,2.04,0.217,2.721,1.093c0.303-1.225,1.049-1.907,2.304-2.188c1.562-0.351,2.813,0.365,3.39,1.648
				c0.682-1.406,1.915-2.357,3.537-2.721C66.573,218.993,69.351,220.779,70.217,224.635z M54.154,225.092
				c-0.489-0.758-1.1-1.039-1.741-0.895c-1.285,0.289-1.776,2.103-1.097,5.132c0.658,2.936,1.937,4.192,2.916,3.973
				c1.07-0.241,1.031-1.132,0.407-4.334C54.358,227.425,54.207,226.173,54.154,225.092z M57.759,236.557l1.041-0.232
				c0.496,1.496,0.877,1.763,1.856,1.544l7.586-1.704c0.704-0.159,0.893-0.458,0.757-1.069l-0.229-1.011l0.919-0.205l3.432,3.694
				l0.296,1.316l-11.931,2.68c-0.978,0.22-1.202,0.655-1.011,2.22l-1.042,0.234L57.759,236.557z M61.131,226.674
				c0.44,1.959,2.028,2.309,4.384,1.78c2.324-0.523,3.641-1.525,3.202-3.482c-0.44-1.958-2.053-2.271-4.377-1.75
				C61.983,223.75,60.691,224.716,61.131,226.674z"/>
			<path d="M64.398,256.403l0.989-0.401c0.733,1.395,1.165,1.625,2.096,1.249l7.174-2.907c1.541-0.623,1.826-1.753,1.333-2.975
				c-0.471-1.162-1.301-2.043-2.341-2.772l-8.309,3.366c-0.929,0.377-1.078,0.843-0.637,2.355l-0.986,0.398l-2.872-7.088l0.986-0.4
				c0.736,1.394,1.156,1.595,2.085,1.218l7.205-2.916c0.668-0.272,0.806-0.597,0.571-1.18l-0.388-0.958l0.871-0.354l3.989,3.086
				l0.507,1.248l-1.426,0.578c1.186,0.839,2.589,2.3,3.225,3.867c0.777,1.918,1.067,4.641-2.447,6.064l-7.118,2.884
				c-0.93,0.376-1.092,0.814-0.647,2.324l-0.986,0.399L64.398,256.403z"/>
			<path d="M87.617,271.89c-0.49-0.839,0.122-1.342-0.274-2.018c-0.221-0.38-0.709-0.53-1.257-0.536
				c-0.26,2.039-1.331,3.247-2.602,3.991c-2.677,1.565-5.865,0.707-7.875-2.727c-0.395-0.676-0.679-1.346-0.876-1.993
				c-0.418-1.461-1.241-1.813-1.781-1.496c-0.759,0.441-0.164,1.765,2.024,5.82c2.192,4.054,1.92,6.136-0.243,7.402
				c-2.542,1.486-5.449-0.442-7.648-4.202c-1.945-3.327-2.95-6.658-0.693-8.015c1.01-0.627,2.008-0.413,2.919,0.216
				c-0.083-1.26,0.422-2.135,1.529-2.783c1.381-0.808,2.789-0.506,3.729,0.543c0.223-1.546,1.106-2.826,2.54-3.665
				c2.677-1.565,5.865-0.708,7.858,2.7c0.649,1.107,0.817,1.771,0.996,2.573c1.627,0.175,3.289,0.907,4.033,2.178
				c0.539,0.919,0.522,1.945-0.397,2.483C88.922,272.758,88.043,272.62,87.617,271.89z M69.814,270.434
				c-0.697-0.571-1.362-0.654-1.93-0.321c-1.138,0.663-1.057,2.541,0.51,5.217c1.519,2.597,3.115,3.404,3.982,2.897
				c0.945-0.554,0.638-1.389-0.925-4.25C70.715,272.594,70.19,271.448,69.814,270.434z M76.935,269.825
				c1.013,1.73,2.631,1.583,4.714,0.363c2.057-1.201,3.005-2.556,1.993-4.286s-2.645-1.539-4.698-0.337
				C76.863,266.783,75.923,268.096,76.935,269.825z"/>
			<path d="M84.78,295.727c-2.415,0.758-4.374,0.293-5.7-1.333c-1.088-1.336-1.316-3.052-0.225-3.942
				c0.777-0.634,1.881-0.523,2.532,0.278c0.932,1.141-0.134,2.213,0.56,3.063c0.477,0.583,1.391,0.564,2.448,0.228l1.355-0.42
				l5.957-10.644c0.865-1.515,1.221-2.17,0.471-3.337l0.802-0.654l4.931,6.044l-0.799,0.654c-1.33-1.382-1.844-1.166-2.791,0.498
				l-3.329,5.83l6.441-2.021c1.838-0.569,1.896-1.344,0.984-2.706l0.801-0.652l3.607,4.418l-0.802,0.653
				c-0.854-0.799-1.657-0.791-3.384-0.231L84.78,295.727z"/>
			<path d="M108.726,296.072c3.375,3.271,3.313,7.706,0.259,10.857c-3.03,3.129-7.482,3.354-10.859,0.082
				c-3.376-3.272-3.313-7.75-0.282-10.879C100.897,292.983,105.349,292.802,108.726,296.072z M99.217,305.886
				c2.003,1.941,4.358,0.907,6.908-1.726c2.553-2.634,3.514-5.021,1.509-6.963c-2.003-1.939-4.381-0.928-6.931,1.706
				C98.149,301.537,97.213,303.945,99.217,305.886z"/>
			<path d="M121.041,309.798l4.986,0.544l1.108,0.822l-7.295,9.808c-0.599,0.807-0.484,1.281,0.681,2.343l-0.638,0.855
				c-1.532-1.142-3.162-2.156-4.883-3.047l0.917-1.23c-1.449-0.101-3.406-0.62-4.739-1.61c-1.684-1.254-3.304-3.436-1.041-6.479
				l3.704-4.979c0.429-0.578,0.377-0.929-0.126-1.303l-0.854-0.636l0.561-0.755l5.01,0.563l1.105,0.823l-6.396,8.601
				c-1.01,1.357-0.692,2.454,0.364,3.239c1.005,0.749,2.175,1.069,3.458,1.126l4.471-6.01c0.433-0.578,0.378-0.93-0.124-1.303
				l-0.83-0.618L121.041,309.798z"/>
			<path d="M143.388,320.281c4.233,2.048,5.563,6.278,3.653,10.229c-1.898,3.923-6.054,5.533-10.286,3.486
				c-4.232-2.048-5.58-6.32-3.682-10.244C134.983,319.802,139.155,318.234,143.388,320.281z M137.437,332.585
				c2.51,1.216,4.425-0.507,6.02-3.808c1.599-3.303,1.76-5.87-0.75-7.085c-2.512-1.215-4.453,0.494-6.05,3.794
				C135.061,328.789,134.925,331.37,137.437,332.585z"/>
			<path d="M155.646,341.105l0.336-1.012c1.536,0.347,1.992,0.168,2.308-0.784l2.445-7.344c0.525-1.576-0.149-2.527-1.396-2.942
				c-1.19-0.396-2.401-0.336-3.629-0.019l-2.831,8.503c-0.316,0.952-0.059,1.368,1.377,2.012l-0.335,1.011l-7.254-2.416l0.335-1.01
				c1.537,0.347,1.964,0.158,2.28-0.794l2.453-7.373c0.23-0.686,0.07-1.001-0.525-1.199l-0.98-0.327l0.297-0.893l4.936-1.032
				l1.278,0.427l-0.484,1.456c1.406-0.357,3.428-0.477,5.033,0.058c1.963,0.653,4.223,2.199,3.023,5.797l-2.423,7.283
				c-0.318,0.952-0.091,1.358,1.347,2.002l-0.337,1.012L155.646,341.105z"/>
			<path d="M165.804,344.073l0.231-1.04c1.563,0.188,1.969-0.044,2.187-1.023l3.357-15.051c0.156-0.703-0.032-1.003-0.645-1.14
				l-1.012-0.224l0.205-0.918l4.808-1.531l1.314,0.295l-4.326,19.396c-0.22,0.979,0.08,1.367,1.576,1.86l-0.232,1.04
				L165.804,344.073z"/>
			<path d="M181.84,349.792c-1.242,2.205-2.99,3.205-5.069,2.928c-1.709-0.229-3.049-1.324-2.862-2.723
				c0.133-0.994,1.014-1.666,2.039-1.53c1.461,0.195,1.416,1.707,2.503,1.852c0.745,0.101,1.399-0.54,1.94-1.512l0.702-1.234
				l-2.94-11.838c-0.407-1.698-0.595-2.419-1.941-2.757l0.136-1.025l7.737,1.032l-0.138,1.025c-1.915-0.099-2.141,0.409-1.693,2.271
				l1.563,6.533l3.315-5.882c0.949-1.677,0.46-2.278-1.134-2.649l0.136-1.024l5.654,0.754l-0.136,1.025
				c-1.17,0.002-1.75,0.556-2.626,2.146L181.84,349.792z"/>
			<path d="M209.008,348.163c-0.777,0.359-2.025,0.632-3.124,0.65c-2.537,0.045-4.247-0.865-4.302-3.904l-0.16-9.091l-1.943,0.034
				l-0.016-0.908c2.555-0.985,3.745-2.73,4.26-5.5l1.379-0.024l0.084,4.702l3.572-0.063l0.031,1.629l-3.575,0.063l0.162,9.121
				c0.025,1.506,0.634,2.152,1.762,2.133c0.627-0.011,1.314-0.148,1.842-0.408L209.008,348.163z"/>
			<path d="M221.39,347.16l-0.133-1.059c1.535-0.352,1.868-0.711,1.741-1.706l-0.977-7.684c-0.211-1.648-1.229-2.215-2.537-2.05
				c-1.243,0.159-2.309,0.738-3.278,1.557l1.131,8.896c0.128,0.995,0.541,1.259,2.115,1.218l0.135,1.056l-7.59,0.966l-0.134-1.057
				c1.535-0.354,1.836-0.708,1.711-1.705l-1.945-15.302c-0.092-0.716-0.373-0.933-0.995-0.854l-1.029,0.131l-0.117-0.934
				l4.005-3.069l1.337-0.171l1.159,9.114c1.114-0.933,2.886-1.917,4.564-2.13c2.054-0.262,4.761,0.153,5.239,3.916l0.971,7.621
				c0.126,0.995,0.509,1.262,2.083,1.22l0.135,1.06L221.39,347.16z"/>
			<path d="M233.458,336.552c0.063,0.372,0.127,0.745,0.228,1.14c0.915,3.552,2.654,5.403,5.721,4.614
				c1.882-0.483,3.232-2.159,3.642-4.596l1.592,0.399c-0.521,2.888-2.01,5.147-5.169,5.96c-4.948,1.272-8.556-1.166-9.642-5.387
				c-1.094-4.252,0.927-8.106,5.3-9.23c3.947-1.015,6.971,0.669,7.984,4.615L233.458,336.552z M233.166,334.91l5.952-1.53
				c-0.516-2.004-1.929-2.839-3.537-2.425C233.576,331.471,232.984,332.821,233.166,334.91z"/>
			<path d="M247.955,320.271l2.884-4.136l1.223-0.567l3.864,8.331c0.501-1.304,1.487-2.383,3.108-3.133
				c3.639-1.688,7.288,0.073,9.176,4.139c1.872,4.039,0.874,7.991-3.165,9.863c-1.649,0.765-3.166,0.847-4.469,0.346l-0.989,2.187
				l-1.339,0.62l-7.729-16.661c-0.328-0.711-0.661-0.834-1.229-0.57l-0.938,0.436L247.955,320.271z M256.665,325.492l3.639,7.848
				c1.034,0.592,2.142,0.666,3.364,0.1c2.445-1.136,2.474-3.531,0.932-6.857c-1.544-3.328-3.393-4.855-5.838-3.721
				C257.539,323.428,256.88,324.321,256.665,325.492z"/>
			<path d="M273.297,320.504c0.173,0.335,0.345,0.671,0.563,1.017c1.942,3.109,4.156,4.348,6.841,2.672
				c1.647-1.028,2.429-3.03,2.083-5.475l1.638-0.1c0.372,2.907-0.365,5.511-3.129,7.236c-4.331,2.704-8.502,1.467-10.81-2.227
				c-2.323-3.721-1.56-8.001,2.267-10.392c3.455-2.157,6.843-1.465,8.999,1.99L273.297,320.504z M272.527,319.028l5.208-3.252
				c-1.097-1.754-2.693-2.123-4.102-1.245C271.878,315.627,271.722,317.092,272.527,319.028z"/>
			<path d="M296.716,297.388l5.953,6.912c0.982,1.142,1.863,1.251,2.721,0.514c0.473-0.408,0.915-0.954,1.156-1.492l1.022,1.188
				c-0.369,0.772-1.155,1.781-1.988,2.497c-1.923,1.658-3.819,2.05-5.806-0.254l-5.935-6.889l-1.473,1.27l-0.592-0.69
				c1.333-2.391,0.958-4.219-0.146-5.502c-1.37-1.591-3.647-1.782-5.356-0.311c-1.973,1.699-2.196,4.127-0.765,5.791
				c1.023,1.187,1.989,1.639,3.265,2.11l3.916,1.47l-0.396,1.127c-2.729-0.958-4.918-0.522-6.367,0.726
				c-1.165,1.003-1.29,2.104-0.656,2.842c2.108,2.446,8.193-4.948,11.796-0.767c2.005,2.327,1.264,5.407-1.372,7.678
				c-1.496,1.289-3.377,2.039-4.695,2.141l0.349,0.981l-0.736,0.635l-4.088-3.016l0.479-0.742c3.195,0.971,5.765,0.494,7.594-1.081
				c1.14-0.981,1.688-2.363,0.747-3.456c-2.271-2.638-8.397,4.998-11.999,0.817c-1.617-1.875-1.11-4.795,1.383-6.944
				c0.76-0.654,1.526-1.107,2.212-1.324c-1.056-0.457-1.971-1.036-2.808-2.01c-1.884-2.186-1.631-5.879,1.078-8.211
				c2.422-2.088,5.982-2.424,8.52,0.522l1.924,2.232l2.709-2.334l1.063,1.236L296.716,297.388z"/>
			<path d="M320.083,282.307c2.438,1.869,2.304,5.083,0.225,7.795c-1.202,1.566-2.888,2.683-4.158,3.051l0.543,0.89l-0.592,0.771
				l-4.615-2.118l0.316-0.824c3.324,0.299,5.742-0.69,7.212-2.606c0.914-1.192,1.17-2.657,0.025-3.535
				c-2.762-2.117-7.2,6.605-11.577,3.249c-1.966-1.509-2.009-4.542-0.063-7.079c1.24-1.616,2.491-2.318,3.609-2.645l-0.412-0.749
				l0.594-0.772l3.984,1.912l-0.33,0.892c-2.869-0.381-4.92,0.493-6.084,2.01c-0.936,1.219-0.834,2.324-0.063,2.916
				C311.258,287.427,315.658,278.91,320.083,282.307z"/>
			<path d="M308.521,268.085c0.773-1.217,2.171-1.368,3.123-0.762c0.927,0.59,1.354,1.903,0.579,3.121
				c-0.774,1.216-2.128,1.356-3.055,0.767C308.216,270.605,307.746,269.301,308.521,268.085z M324.813,283.07l-0.897-0.572
				c0.711-1.406,0.631-1.866-0.215-2.405l-6.561-4.176c-0.608-0.389-0.955-0.313-1.292,0.219l-0.555,0.871l-0.796-0.505l0.201-5.041
				l0.725-1.138l10.314,6.569c0.847,0.539,1.313,0.39,2.289-0.848l0.898,0.571L324.813,283.07z"/>
			<path d="M334.796,265.758l-0.952-0.478c0.562-1.472,0.451-1.948-0.447-2.397l-6.926-3.465c-1.484-0.744-2.523-0.211-3.112,0.965
				c-0.563,1.122-0.673,2.328-0.534,3.59l8.019,4.013c0.896,0.448,1.347,0.252,2.187-1.078l0.954,0.476l-3.423,6.842l-0.952-0.479
				c0.559-1.472,0.435-1.92-0.463-2.368l-6.952-3.48c-0.646-0.322-0.982-0.21-1.263,0.352l-0.463,0.925l-0.84-0.422l-0.321-5.032
				l0.602-1.206l1.374,0.688c-0.153-1.444,0.016-3.462,0.772-4.977c0.927-1.851,2.778-3.869,6.169-2.171l6.87,3.437
				c0.897,0.449,1.331,0.281,2.172-1.051l0.953,0.477L334.796,265.758z"/>
			<path d="M334.276,242.586c-0.308,0.855-1.081,1.344-2.276,1.148c-1.325-0.208-2.312,0.038-2.798,1.396
				c-0.847,2.36,1.121,3.931,4.573,5.168s6.013,0.69,6.985-2.024c0.687-1.918-0.078-3.59-1.904-5.277l1.255-1.082
				c2.136,2.03,3.193,4.375,2.083,7.473c-1.608,4.485-5.659,6.129-9.761,4.658c-4.133-1.479-6.156-5.402-4.695-9.474
				c1.174-3.276,3.6-4.936,5.459-4.271C334.289,240.692,334.592,241.7,334.276,242.586z"/>
			<path d="M337.517,234.65c0.36,0.115,0.72,0.23,1.117,0.322c3.573,0.827,6.017,0.137,6.732-2.948
				c0.438-1.894-0.427-3.863-2.401-5.349l1.089-1.229c2.321,1.792,3.641,4.157,2.906,7.334c-1.151,4.977-4.978,7.054-9.224,6.072
				c-4.276-0.99-6.765-4.558-5.748-8.957c0.919-3.97,3.805-5.876,7.775-4.958L337.517,234.65z M335.927,234.154l1.385-5.987
				c-2.018-0.467-3.408,0.403-3.782,2.022C333.064,232.205,333.989,233.353,335.927,234.154z"/>
			<path d="M349.769,212.179l-1.064-0.047c-0.03-2.855-0.18-3.71-2.278-3.804l-13.933-0.616c-0.688-0.031-0.982,0.207-1.01,0.833
				l-0.124,2.786l-0.938-0.041l-2.767-6.24l0.076-1.721l18.879,0.835c2.099,0.094,2.323-0.714,2.606-3.586l1.064,0.047
				L349.769,212.179z"/>
			<path d="M349.042,194.802c-0.721-4.188-3.171-7.525-8.268-8.433c0.646,1.051,1.152,2.396,1.255,3.74
				c0.357,4.781-3.119,7.493-6.683,7.761c-3.782,0.281-7.579-2.609-7.938-7.392c-0.37-4.971,3.313-8.263,9.157-8.699
				c8.253-0.616,13.007,5.817,14.103,12.901L349.042,194.802z M338.873,186.164c-0.851-0.03-1.731-0.027-2.7,0.045
				c-4.437,0.331-7.288,1.299-7.077,4.144c0.188,2.501,2.675,3.383,5.924,3.141c3.095-0.231,5.31-1.717,5.119-4.28
				C340.06,188.183,339.599,187.053,338.873,186.164z"/>
			<path d="M347.862,173.535c-6.736,0.578-13.8-1.336-19.381-4.266l1.713,8.162c0.237,1.135,0.425,1.416,2.792,1.4l0.238,1.135
				l-6.998,0.699l-0.236-1.136c0.275-0.058,0.654-0.234,0.546-0.755l-2.466-11.752l2.117-0.444
				c6.559,3.013,13.531,3.569,20.771,2.66L347.862,173.535z"/>
			<path d="M332.88,147.255c4.005-1.371,8.32,0.397,10.077,5.528c0.986,2.877,1.115,6.643-1.199,7.435
				c-1.097,0.375-2.093-0.111-2.408-1.03c-0.902-2.641,2.75-3.394,1.774-6.24c-0.934-2.729-3.192-3.711-5.803-2.817
				c-2.579,0.883-3.795,3.619-2.7,6.822c0.478,1.394,1.262,2.716,2.391,3.688l-0.069,1.15l-11.839,2.198l-3.017-8.809
				c-0.172-0.503-0.502-0.688-0.945-0.636l-0.376-1.098l4.473-0.968l3.127,9.134l4.196-0.807c-0.758-0.769-1.423-2.031-1.852-3.276
				C327.027,152.605,329.054,148.564,332.88,147.255z"/>
			<path d="M332.972,140.957c-0.633-1.399,0.023-2.762,1.166-3.278c1.201-0.542,2.656-0.133,3.291,1.266
				c0.645,1.43-0.025,2.765-1.227,3.306C335.06,142.766,333.617,142.386,332.972,140.957z"/>
		</g>
	</g>
	<g>
		<path fill="#FFFFFF" d="M271.251,139.969c0-3.068-2.512-5.58-5.581-5.58h-130.59c-3.068,0-5.58,2.512-5.58,5.58v116.245
			c0,3.071,2.512,5.582,5.58,5.582h130.59c3.069,0,5.581-2.511,5.581-5.582V139.969z"/>
		<path d="M198.409,205.265c0,0,21.614-30.188,0.791-70.876"/>
		<path d="M194.219,212.364c0.044-10.292,38.173-42.39,37.879-71.623l7.025,33.66L194.219,212.364z"/>
		<path fill="#FFFFFF" d="M194.219,213.842c-0.212,0-0.425-0.047-0.623-0.139c-0.522-0.246-0.855-0.771-0.855-1.346
			c0.02-4.31,5.102-10.91,12.134-20.042c10.942-14.204,25.929-33.661,25.746-51.558c-0.009-0.757,0.563-1.4,1.319-1.483
			c0.753-0.081,1.446,0.423,1.604,1.167l7.026,33.657c0.109,0.53-0.079,1.079-0.499,1.432l-44.902,37.961
			C194.9,213.722,194.561,213.842,194.219,213.842 M232.523,150.001c-3.634,15.979-15.925,31.933-25.307,44.117
			c-4.02,5.217-7.679,9.971-9.75,13.564l40.032-33.842L232.523,150.001z"/>
		<path d="M184.133,167.637c-0.477-0.487,0,0-0.492-0.461c-12.771-12.217-28.286-15.892-30.518-15.997
			c0.021,3.756,0.003,24.903,0.003,24.903l47.179,30.118c0.021,0.018,0.053,0,0.047-0.023
			C199.856,204.685,201.676,185.158,184.133,167.637"/>
		<path fill="#FFFFFF" d="M200.324,207.683L200.324,207.683c-0.284,0-0.583-0.089-0.825-0.246l-47.163-30.107
			c-0.424-0.272-0.685-0.742-0.685-1.247c0-0.212,0.019-21.188,0-24.894c0-0.405,0.162-0.794,0.453-1.076
			c0.295-0.277,0.687-0.427,1.091-0.407c1.974,0.092,18.114,3.63,31.468,16.404l0.146,0.134c0.131,0.104,0.251,0.229,0.381,0.358
			c15.509,15.491,16.26,32.363,16.505,37.908c0.026,0.508,0.05,1.081,0.077,1.264c0.123,0.432,0.042,0.913-0.22,1.28
			C201.274,207.442,200.803,207.683,200.324,207.683 M154.608,175.274l44.078,28.141c-0.337-6.213-1.89-21.047-15.599-34.734
			l-0.155-0.162c-0.105-0.083-0.203-0.172-0.298-0.264c-10.718-10.252-23.479-14.324-28.026-15.335
			C154.619,158.369,154.609,171.834,154.608,175.274"/>
		<path d="M136.655,169.825v-10.416c0,0,18.22,4.938,33.328,14.394c14.643,9.169,26.207,21.535,33.345,32.732L136.655,169.825z"/>
		<path fill="#FFFFFF" d="M203.328,208.012c-0.24,0-0.486-0.06-0.71-0.183l-66.672-36.709c-0.474-0.262-0.767-0.756-0.767-1.293
			v-10.418c0-0.46,0.217-0.896,0.581-1.173c0.365-0.279,0.841-0.373,1.279-0.255c0.189,0.05,18.613,5.105,33.726,14.571
			c13.322,8.341,25.591,20.362,33.696,33.01c0.227,0.263,0.363,0.601,0.363,0.974c0,0.814-0.662,1.476-1.477,1.476
			C203.342,208.012,203.339,208.012,203.328,208.012 M138.13,168.953l60.453,33.283c-7.714-10.453-18.167-20.158-29.383-27.182
			c-11.956-7.484-26.071-12.152-31.07-13.677V168.953z"/>
		<path d="M196.644,207.26c0,0,51.695-42.381,59.894-54.747l4.882,13.679L196.644,207.26z"/>
		<path fill="#FFFFFF" d="M196.644,208.735c-0.458,0-0.908-0.216-1.194-0.612c-0.46-0.631-0.345-1.511,0.26-2.006
			c0.515-0.424,51.614-42.379,59.598-54.421c0.311-0.466,0.853-0.72,1.409-0.65c0.558,0.066,1.024,0.445,1.214,0.968l4.877,13.683
			c0.233,0.648-0.017,1.374-0.599,1.743l-64.773,41.067C197.188,208.661,196.917,208.735,196.644,208.735 M256.072,155.598
			c-7.239,8.871-26.807,26.076-41.347,38.45l44.904-28.471L256.072,155.598z"/>
		<polygon points="129.5,261.796 129.5,159.9 200.376,205.265 200.376,301.355 		"/>
		<polygon points="271.251,261.796 271.251,159.9 200.376,205.265 200.376,301.355 		"/>
		<rect x="196.93" y="204.716" fill="#FFFFFF" width="6.891" height="98.217"/>
		<path fill="#FFFFFF" d="M204.434,305.298h-8.115V202.353h8.115V305.298z M199.621,300.568h1.51V207.08h-1.51V300.568z"/>
		<polygon fill="#FFFFFF" points="200.376,207.6 128.218,163.578 130.783,159.375 200.376,201.835 269.97,159.375 272.534,163.578 
					"/>
		<path fill="#FFFFFF" d="M200.376,210.369l-75.405-46.006l5.024-8.237l70.381,42.94l70.38-42.942l5.023,8.239L200.376,210.369z
			 M131.47,162.788l68.906,42.041l68.905-42.041l-0.096-0.162l-68.81,41.977l-68.807-41.979L131.47,162.788z"/>
	</g>
	<g>
		<path d="M144.43,140.545c4.73,0,8.635-2.589,11.15-5.856l1.351,0.787l-3.677,7.624h-21.552v-1.578
			c2.402-0.187,2.966-0.488,2.966-2.63v-17.605c0-1.427-1.088-1.915-2.741-1.915h-2.178c-5.33,0-8.261,2.853-8.261,6.645
			c0,3.003,1.616,4.73,3.568,4.73c0.901,0,1.351-0.488,1.351-1.089c0-1.088-0.751-1.614-0.751-2.892c0-1.837,1.392-2.965,2.93-2.965
			c2.366,0,3.416,2.027,3.416,3.941c0,3.229-2.552,5.707-6.494,5.707c-3.49,0-6.909-2.666-6.909-7.434
			c0-5.819,4.844-9.198,11.15-9.198h23.392l2.214,6.796l-1.39,0.6c-2.365-3.34-5.255-4.842-9.911-4.842h-1.615
			c-0.675,0-1.126,0.45-1.126,1.126v7.622h4.43c2.705,0,3.12-1.354,3.192-3.229h1.727v9.009h-1.727
			c-0.072-1.876-0.487-3.229-3.192-3.229h-4.43v8.748c0,0.677,0.451,1.127,1.126,1.127H144.43z"/>
		<path d="M164.943,136.979l-2.366,3.003c-0.562,0.75-0.073,1.427,1.315,1.539v1.578h-7.02v-1.578
			c1.313-0.149,1.875-0.525,2.626-1.539l4.017-5.182l-3.905-5.895c-0.638-0.899-1.012-1.425-2.401-1.539v-1.576h10.362v1.576
			c-1.276,0.114-1.689,0.676-1.125,1.539l1.688,2.479l1.952-2.479c0.6-0.749,0.262-1.39-1.277-1.539v-1.576h7.061v1.576
			c-1.392,0.149-1.954,0.563-2.705,1.539l-3.604,4.618l4.317,6.458c0.638,0.901,1.09,1.39,2.327,1.539v1.578h-10.286v-1.578
			c1.5-0.112,1.764-0.563,1.125-1.539L164.943,136.979z"/>
		<path d="M178.563,144.413v-22.414c0-0.789-0.262-1.126-0.938-1.126h-1.162v-1.464l5.744-3.155h2.101v29.697
			c0,2.517,0.862,3.529,2.14,3.529c1.24,0,1.617-0.75,1.916-1.951c0.376-1.464,1.239-2.29,2.628-2.29c1.351,0,2.403,0.9,2.403,2.252
			c0,2.628-2.779,4.205-7.396,4.205C181.904,151.696,178.563,149.33,178.563,144.413z"/>
		<path d="M187.097,143.1v-1.578c1.691-0.187,2.104-0.525,2.104-1.652v-8.897c0-0.788-0.262-1.125-0.938-1.125h-1.166v-1.466
			l5.746-3.154h2.101v14.643c0,1.127,0.375,1.466,2.103,1.652v1.578H187.097z M192.204,116.63c2.103,0,3.343,1.577,3.343,3.154
			c0,1.538-1.24,3.079-3.343,3.079c-2.176,0-3.342-1.541-3.342-3.079C188.862,118.207,190.028,116.63,192.204,116.63z"/>
		<path d="M197.635,119.409l5.744-3.155h2.1v10.701c1.24-1.09,2.856-1.729,4.882-1.729c4.693,0,7.959,3.604,7.959,9.198
			c0,5.631-3.266,9.237-8.71,9.237c-2.139,0-3.792-0.639-5.032-1.765l-2.702,1.765h-2.142v-21.626c0-0.826-0.262-1.163-0.937-1.163
			h-1.162V119.409z M205.479,129.471v9.986c0.679,1.013,1.69,1.539,3.004,1.539c2.778,0,3.904-2.141,3.904-6.571
			c0-4.43-1.126-6.495-3.904-6.495C207.169,127.93,206.158,128.419,205.479,129.471z"/>
		<path d="M237.566,124.176c-1.426,0-1.577-0.638-2.891-0.638c-2.291,0-5.407,4.354-6.909,10.475v5.856
			c0,1.127,0.375,1.466,2.104,1.652v1.578h-9.951v-1.578c1.691-0.187,2.104-0.525,2.104-1.652v-8.897
			c0-0.788-0.262-1.125-0.937-1.125h-1.167v-1.466l5.746-3.154h2.102v2.703c1.841-4.804,5.669-9.16,9.16-9.16
			c1.766,0,3.191,0.938,3.191,2.78C240.118,123.089,238.917,124.176,237.566,124.176z"/>
		<path d="M235.827,143.1v-1.578c1.69-0.187,2.104-0.525,2.104-1.652v-8.897c0-0.788-0.262-1.125-0.937-1.125h-1.167v-1.466
			l5.747-3.154h2.101v14.643c0,1.127,0.376,1.466,2.103,1.652v1.578H235.827z M240.934,116.63c2.102,0,3.343,1.577,3.343,3.154
			c0,1.538-1.241,3.079-3.343,3.079c-2.177,0-3.341-1.541-3.341-3.079C237.593,118.207,238.757,116.63,240.934,116.63z"/>
		<path d="M246.908,145.239c0-2.629,2.29-4.656,5.558-4.656c2.514,0,4.617,1.503,6.718,3.266v-0.224
			c0-7.134-11.298-5.594-11.298-12.729c0-3.414,3.152-5.669,7.245-5.669c2.515,0,3.979,0.752,5.106,1.539l0.449-0.975h1.391
			l1.125,6.12l-1.389,0.411c-1.54-3.416-3.943-4.992-5.895-4.992c-1.427,0-2.479,0.677-2.479,2.026
			c0,4.056,10.964,3.718,10.964,12.915c0,1.577-0.525,3.267-1.577,4.693c2.104,1.615,4.431,2.928,7.359,2.928
			c1.764,0,2.551-0.749,2.815-1.876c0.337-1.575,1.2-2.516,2.629-2.516c1.276,0,2.288,0.901,2.288,2.329
			c0,2.401-2.815,4.467-7.057,4.467c-4.244,0-7.209-1.689-9.649-3.642c-1.502,1.164-3.567,1.912-6.157,1.912
			C250.701,150.567,246.908,148.73,246.908,145.239z M258.361,146.178c-1.954-1.765-3.758-3.229-5.896-3.229
			c-1.878,0-2.893,0.899-2.893,2.29c0,2.065,2.517,2.966,4.618,2.966C256.218,148.205,257.569,147.305,258.361,146.178z"/>
	</g>
</g>
</svg>
