<?xml version="1.0" encoding="utf-8"?>
<!-- Generator: Adobe Illustrator 22.0.1, SVG Export Plug-In . SVG Version: 6.00 Build 0)  -->
<svg version="1.1" id="Layer_1" xmlns="http://www.w3.org/2000/svg" xmlns:xlink="http://www.w3.org/1999/xlink" x="0px" y="0px"
	 viewBox="0 0 310.8 62.5" style="enable-background:new 0 0 310.8 62.5;" xml:space="preserve">
<style type="text/css">
	.st0{fill:#0A3754;}
</style>
<g>
	<g>
		<path class="st0" d="M303.6,50.2c0-2,1.6-3.6,3.6-3.6c2,0,3.6,1.6,3.6,3.6c0,2-1.6,3.6-3.6,3.6C305.2,53.7,303.6,52.2,303.6,50.2
			 M304.2,50.2c0,1.7,1.4,3,3,3c1.6,0,3-1.3,3-3c0-1.7-1.4-3-3-3C305.6,47.2,304.2,48.5,304.2,50.2z M308.8,52.2h-0.7l-1-1.9h-0.7
			v1.9h-0.6v-4h1.7c0.7,0,1.4,0.2,1.4,1.1c0,0.8-0.5,1.1-1.1,1.1L308.8,52.2z M306.4,48.8v1h0.6c0.5,0,1.3,0.1,1.3-0.5
			c0-0.5-0.4-0.5-0.9-0.5H306.4z"/>
	</g>
	<g>
		<polyline class="st0" points="234.7,29.6 251.4,29.6 234.7,45.7 234.7,53.7 264.5,53.7 264.5,45.7 248.5,45.7 264.6,29.6 
			264.6,21.7 234.8,21.7 234.7,29.6 		"/>
	</g>
	<g>
		<rect x="108.7" y="21.7" class="st0" width="11.1" height="32.1"/>
	</g>
	<g>
		<rect x="219.5" y="21.7" class="st0" width="11.1" height="32.1"/>
	</g>
	<g>
		<rect x="92.3" y="9.2" class="st0" width="11.1" height="44.5"/>
	</g>
	<g>
		<path class="st0" d="M163.8,48.3c-4.4,0-7.6-3.3-7.6-7.6v-0.9h25.8c-0.1-5.6-1.9-10.4-5.3-13.8c-3.4-3.4-8.1-5.2-13.8-5.2
			c-10.8,0-18.3,7.1-18.3,17.2c0,10.1,7.2,16.6,18.4,16.6c4.2,0,14-0.9,17.4-8.9h-11.2C167.9,47.4,166,48.3,163.8,48.3 M156.1,33.9
			c0-4.2,2.8-6.8,7.2-6.8c3.7,0,6.9,3.2,6.9,6.8v0.9h-14.2V33.9z"/>
	</g>
	<g>
		<path class="st0" d="M285.6,48.3c-4.3,0-7.6-3.3-7.6-7.6v-0.9h25.6c-0.1-5.6-1.9-10.4-5.2-13.8c-3.4-3.4-8.1-5.2-13.7-5.2
			c-10.7,0-18.2,7.1-18.2,17.2c0,10.1,7.2,16.6,18.3,16.6c4.2,0,13.9-0.9,17.2-8.9h-11.1C289.7,47.4,287.8,48.3,285.6,48.3
			 M278.1,33.9c0-4.2,2.8-6.8,7.2-6.8c3.7,0,6.9,3.2,6.9,6.8v0.9h-14.1V33.9z"/>
	</g>
	<g>
		<path class="st0" d="M202.7,33.7c-4.3-0.9-7.7-1.6-7.7-4.2c0-1.2,0.6-3.3,4.8-3.3c1.3,0,2.5,0.4,3.3,1c0.7,0.6,1.2,1.3,1.5,2.2
			h10.5c-1-5.9-6.2-8.8-15.9-8.8c-2.5,0-15.2,0.5-15.2,10.2c0,7.2,6.9,8.6,13.1,9.7c4.2,0.8,7.9,1.5,7.9,4.4c0,2.5-2,4-5.3,4
			c-1.5,0-2.9-0.4-3.9-1.2c-0.7-0.6-1.3-1.3-1.5-2.2h-11c1.7,7.7,10.6,8.9,15.9,8.9c11.3,0,17.5-3.9,17.5-10.9
			C216.6,36.7,208.9,35,202.7,33.7"/>
	</g>
	<g>
		<path class="st0" d="M144.7,8.3h-5c-8.8,0-12.7,1.9-12.7,12.9v0.4h-4.6V28h4.6v25.7h11.9V28h5.8v-6.3H139v0h-0.1v-1.6
			c0-2,0.3-3.2,1.1-4c1-1.1,2.5-1.2,4.7-1.2V8.3"/>
	</g>
	<g>
		<g>
			<path class="st0" d="M39.8,46.4C27,46.4,16.6,36,16.6,23.2C16.6,10.4,27,0,39.8,0c12.8,0,23.2,10.4,23.2,23.2
				C62.9,36,52.5,46.4,39.8,46.4z M39.8,3c-11.1,0-20.2,9.1-20.2,20.2s9.1,20.2,20.2,20.2s20.2-9.1,20.2-20.2S50.9,3,39.8,3z"/>
		</g>
		<g>
			<path class="st0" d="M39.7,39c8.7,0,15.8-7.1,15.8-15.8H23.9C23.9,31.9,31,39,39.7,39z"/>
		</g>
		<g>
			<path class="st0" d="M39.8,62.5C17.8,62.5,0,44.7,0,22.7c0-3.3,2.7-6,6-6s6,2.7,6,6C12,38,24.4,50.5,39.8,50.5S67.5,38,67.5,22.7
				c0-3.3,2.7-6,6-6s6,2.7,6,6C79.5,44.7,61.7,62.5,39.8,62.5z"/>
		</g>
	</g>
</g>
<g>
	<rect x="108.7" y="9.2" class="st0" width="11.1" height="6.7"/>
	<rect x="219.5" y="9.2" class="st0" width="11.1" height="6.7"/>
</g>
</svg>
