<svg id="Layer_1" xmlns="http://www.w3.org/2000/svg" viewBox="0 0 77 68.3"><style>.st0{fill:#0b3857}</style><path class="st0" d="M28.1 20.9c.2.2.5.1.6.3.1 0 .2.1.1.2.2.3.6.6.5 1.1 0 0 .2.3.2.6 0 .4.1 1.4.1 1.4l-.3 3.2-.1 1.8-.3 3.1.1 1.3s-.2 1.3.1 1.6c0 .3.1.8.1.8-.1.3-.3.5-.4.7-.1 0-.2.1-.3.1-.1-.1-.2-.2-.4-.3-.2-.2-.3-.5-.5-.7.1-.3-.4-1.5-.5-2l-.1-3.5.1-2.4s.1-3.1.2-4.2l.1-2.2c.1 0 .1-.3.2-.4 0-.2 0-.5.2-.4 0-.2.2-.1.3-.1m-10.8-.7c.4 0 .3.6.6.7l.2.8.2 1.7s.2 2.3.2 3.6c0 2.3-.1 7.2-.1 7.2s-.2 1.6-.1 1.7c.1.2-.2 1 .1 1.4-.2.3-.3.5-.7.5-.3-.1-.7-.8-.7-.8l-.2-.3s-.4-2.2-.5-3.3c-.3-.8 0-1.9-.2-2.8l-.1-2v-6.9s.5-1.1.3-1.6c0-.2.2 0 .2-.2.2-.2.6 0 .8.3m5.1.5c.5 0 .7.4.9.7.1.5.3 1.4.3 1.4s.2 1 .2 1.5c0 .4-.1 1.1-.1 1.1l.2 1.3s.1 1.4 0 2c-.1.6-.2 1-.1 1.4 0 1.2-.2 2.3-.1 3.5 0 0-.1 1.2 0 1.6.1.5.1 1.1.1 1.3 0 .2 0 .4-.2.4-.5.1-.6-.4-.8-.7-.2-.4-.5-1.2-.6-1.4-.1-.1-.1-.3-.1-.3s0-.5-.1-.7c-.1-.2-.2-.9-.1-1.2.1-.3-.1-.6-.2-1.2-.1-.7.1-4.7.1-4.7l.1-2.2v-1.1l-.1-.7s-.1-1.7.2-2.2c.2 0 .4 0 .4.2"/><path d="M60.9 19.8l.5.4s1 .7.8 1.8c.2.2.1.6.1.6s-.3.5-.2 1c0 0-.2 3.4-.2 4.3v2.2c0 .2.2 1.2.2 1.2v3.2s0 1.4-.3 1.8v.4c-.2.1-.1.5-.3.5-.3.2-.5 0-.5-.2 0-.4-.1-.6-.2-1 0 0-.1-1.7-.3-2.1 0-.7-.1-1.2-.2-1.9-.1-.6 0-1.3-.2-1.8-.2-.7-.3-2.4-.3-2.4 0-1.5-.3-3.9-.2-4.3.1-.4.2-.9.2-1.1v-.7c0-.2.2-1 .4-1.4-.2 0-.1-.4-.1-.4s.1-.3.3-.4c.1 0 .5.3.5.3m-11.7.8c.2.1.4.2.5.4.4.3.9 1.5.9 1.5 0 .6.2 1.6.2 1.6l.1 1 .2 1.9.1 1.9-.2 1.3-.1 3.2-.3 1.8s0 1 .1 1.3c-.1.2-.2.4-.4.5-.5.3-.4-.4-.7-.5-.2-.1-.6-2.2-.7-2.6.1-.8-.2-1.2-.2-2 0 0-.3-2-.2-3.2v-4.4s0-1 .1-1.4c0-.8-.3-2.7.6-2.3m5.8.2c0 .3.5.2.6.5.2 0 .3.3.4.4.1.1.3.9.4 1.2.1.4.1 1.1.2 1.4.1.3.2 2.1.3 2.2v3.2c0 .3-.1.8-.1 1.1-.1.3-.1.7-.1.9 0 .2-.1.4 0 .8.1.3.1 1 0 1.4-.1.4-.2 1.2-.2 1.4 0 .3.1.6.1.9-.3 0-.4.4-.6.3-.2-.1-.4-.7-.5-1.2-.1-.4-.3-1-.4-1.2-.1-.3-.3-.6-.3-1.3.1-.6-.4-2.2-.1-3.7h-.1c-.1-1.7 0-3.5-.1-5.2 0 0 0-1.5-.1-2-.1-.6.1-1 .1-1.6" opacity=".5" fill="#0b3857"/><path d="M6.9 6v36.6l8.3-3.7h46.9l8.2 3.7V6H6.9zm27.6 23.2c-.1.6-.2 1-.1 1.5 0 1.3-.2 2.4-.1 3.7 0 0-.1 1.2 0 1.7s.1 1.2.1 1.3c0 .2 0 .5-.2.5-.5.1-.6-.5-.8-.8-.2-.4-.5-1.3-.6-1.4-.1-.1-.1-.4-.1-.4s-.1-.5-.2-.8c-.1-.3-.2-.9-.1-1.3.1-.3-.1-.6-.2-1.3-.1-.7.1-5 .1-5l.1-2.3v-1.2l-.1-.7s-.1-1.8.2-2.3c.2 0 .4 0 .4.2.5 0 .7.4.9.8.1.6.3 1.5.3 1.5s.2 1.1.2 1.5c0 .5-.1 1.2-.1 1.2l.2 1.3c.1.1.2 1.6.1 2.3zm5.4-.2l-.2 1.3-.2 3.1-.3 1.6s-.1.9.1 1.2c-.1.2-.2.4-.4.5-.5.3-.4-.4-.7-.5-.2-.1-.6-2.2-.6-2.6.1-.8-.2-1.2-.1-2 0 0-.2-1.9-.1-3.1v-.8l.1-2.5s.1-.8 0-1c0 0 0-1 .1-1.4 0-.7-.3-2.5.6-2.2.2.1.4.2.5.4.4.3.8 1.5.8 1.5 0 .6.2 1.6.2 1.6v.9l.1 1.8V29zm5.9 2c-.1.3-.1.8-.1 1 0 .2-.1.5 0 .8.1.3.1 1.1 0 1.5-.1.4-.2 1.3-.2 1.5 0 .3.1.7.1 1-.3.1-.5.5-.7.3-.2-.1-.5-.8-.6-1.3-.1-.5-.4-1-.5-1.3-.1-.3-.4-.7-.3-1.4.1-.7-.4-2.3-.2-3.9h-.1c-.1-1.8 0-3.8-.1-5.6 0 0 0-1.6-.1-2.1-.1-.6.1-1.1.2-1.7l.5.1c0 .3.6.2.7.6.3 0 .3.3.4.4.1.1.4.9.5 1.3.1.4.1 1.2.2 1.5.2.3.2 2.3.3 2.4v3.4c.2.7 0 1.2 0 1.5zm16.7-14.8v2.5h-48v-2.5L13 15.1l.3-.4 25.3-6.4 25.2 6.4.3.4-1.6 1.1z" opacity=".35" fill="#0b3857"/><path class="st0" d="M8 61.1c0 .6 0 .8.2 1.1H6.9c.2-.3.2-.5.2-1.1v-5.7l-.6-.7h1.3c.1.4.2.6.5 1l3.5 4.8v-4.7c0-.6 0-.8-.2-1.1H13c-.2.3-.2.5-.2 1.1v5.3c0 .6 0 .8.2 1.1h-1.1c-.1-.3-.2-.6-.4-.8L8 56.6m10.6-.3L17.4 59h2.3m-2.5.6l-.6 1.4c-.1.2-.2.5-.2.7 0 .1 0 .2.1.4h-1.4c.2-.3.4-.7.5-1.1l2.9-6.8 3 6.9c.2.5.3.8.5 1h-1.4c0-.2.1-.3.1-.4 0-.2-.1-.4-.2-.7l-.5-1.4h-2.8zm9.2 1.5c0 .6 0 .8.2 1.1h-1.4c.2-.3.2-.5.2-1.1v-5.8h-.1c-.8 0-1.3.1-2.1.4l.4-1h5l-.4 1c-.5-.3-1-.4-2-.4m4.8 6.9c.2-.3.2-.5.2-1.1v-5.3c0-.6 0-.8-.2-1.1h1.4c-.2.3-.2.5-.2 1.1v5.3c0 .6 0 .8.2 1.1m6.2-7c-1.7 0-2.8 1.2-2.8 3.1 0 1.9 1.3 3.4 2.9 3.4 1.6 0 2.7-1.3 2.7-3.1 0-1.9-1.2-3.4-2.8-3.4m-.2 7.2c-2.2 0-3.7-1.6-3.7-3.8 0-2.3 1.7-4 4-4 2.2 0 3.6 1.5 3.6 3.8.1 2.3-1.5 4-3.9 4zm7.1-1.3c0 .6 0 .8.2 1.1h-1.3c.2-.3.2-.5.2-1.1v-5.7l-.6-.7h1.3c.1.4.2.6.5 1l3.5 4.8v-4.7c0-.6 0-.8-.2-1.1h1.3c-.2.3-.2.5-.2 1.1v5.3c0 .6 0 .8.2 1.1h-1c-.1-.3-.2-.6-.4-.8l-3.5-4.8m9.9-.3L54.3 59h2.3m-2.6.6l-.6 1.4c-.1.2-.2.5-.2.7 0 .1 0 .2.1.4H52c.2-.3.4-.7.6-1.1l2.9-6.8 3 6.9c.2.5.3.8.5 1h-1.4c0-.2.1-.3.1-.4 0-.2-.1-.4-.2-.7l-.6-1.5H54zm6.5 2.6c.2-.3.2-.5.2-1.1v-5.3c0-.6 0-.8-.2-1.1h1.4c-.2.3-.2.5-.2 1.1v5.8h.9c.8 0 1.3-.1 2.1-.5l-.5 1.1M70 58l-.6 1c-.4-.3-.7-.4-1.5-.4h-.7v3h1c.9 0 1.3-.1 2.1-.4l-.3 1h-3.8c.2-.3.2-.5.2-1.1v-5.3c0-.6 0-.8-.2-1.1h4.1l-.5.9c-.3-.2-.7-.3-1.5-.3h-1V58M10.2 46.1L9 48.8h2.3m-2.5.6l-.6 1.4c-.1.3-.2.6-.2.8 0 .1 0 .2.1.4H6.7c.2-.3.4-.7.6-1.1l2.9-6.8 3 6.9c.2.5.3.8.5 1h-1.4c0-.2.1-.3.1-.4 0-.2-.1-.4-.2-.7l-.6-1.5H8.8zm10.5-3.9c-.5-.3-.9-.5-1.4-.5-.7 0-1.2.4-1.2 1.1 0 .3.1.6.3.8.2.3.5.5 1.1.9.7.4.9.6 1.1.8.3.4.5.8.5 1.3 0 1.3-1.1 2.2-2.5 2.2-.5 0-.9-.1-1.4-.3v-1.1c.6.5 1 .7 1.6.7.8 0 1.4-.6 1.4-1.4 0-.7-.2-.8-1.3-1.6-.6-.4-.9-.6-1.1-.9-.3-.4-.5-.8-.5-1.3 0-1.1 1-2 2.4-2 .4 0 .8.1 1.2.2m5.9 1.1c-.5-.3-.9-.5-1.4-.5-.7 0-1.2.4-1.2 1.1 0 .3.1.6.3.8.2.3.5.5 1.1.9.7.4.9.6 1.1.8.3.4.5.8.5 1.3 0 1.3-1.1 2.2-2.5 2.2-.5 0-.9-.1-1.4-.3v-1.1c.6.5 1 .7 1.6.7.8 0 1.4-.6 1.4-1.4 0-.7-.2-.8-1.3-1.6-.6-.4-.9-.6-1.1-.9-.3-.4-.5-.8-.5-1.3 0-1.1 1-2 2.4-2 .4 0 .8.1 1.2.2m6.3 3.4l-.5.9c-.4-.3-.7-.4-1.5-.4h-.7v3h1c.9 0 1.3-.1 2.1-.4l-.4 1.1h-3.8c.2-.3.2-.5.2-1.1v-5.3c0-.6 0-.8-.2-1.1h4.1l-.5.9c-.3-.2-.7-.3-1.5-.3h-1v2.7m6.9 3.2c0 .6 0 .8.2 1.1H35c.2-.3.2-.5.2-1.1v-5.3l-.6-1.1H36v.2c0 .3.1.6.2.8l2.4 4.7 2.1-4.4c.1-.3.2-.7.2-1v-.3h1.2c-.1.3-.1.5-.1 1v5.3c0 .6 0 .8.2 1.1h-1.3c.2-.3.2-.5.2-1.1v-3.8L38.6 52 36 47.1m10.4 4.4c.4 0 .7 0 1-.1.6-.2 1.1-.8 1.1-1.5s-.4-1.3-1.1-1.5c-.4-.1-.6-.1-1.3-.1v3.2h.3m1.8-5.1c0-.6-.3-1-.9-1.2-.3-.1-.5-.1-1.1-.1v2.7c1.2 0 2-.5 2-1.4zm-2-1.9c2 0 3 .6 3 1.8 0 .7-.4 1.2-1.1 1.6.9.4 1.4 1 1.4 1.9 0 .7-.3 1.3-.8 1.7-.6.4-1.2.6-2.3.6H45c.2-.3.2-.5.2-1.1v-5.3c0-.6 0-.8-.2-1.1h1.2zm6.2 7.5c.2-.3.2-.5.2-1.1v-5.3c0-.6 0-.8-.2-1.1h1.4c-.2.3-.2.5-.2 1.1v5.8h.9c.8 0 1.3-.1 2.1-.5L56 52m6.5-9.3l-1.7 1.1-.1-.1 1.4-1.5m.8 5.6l-.5.9c-.4-.3-.7-.4-1.5-.4h-.7v3h1c.9 0 1.3-.1 2.1-.4l-.4 1.1H59c.2-.3.2-.5.2-1.1v-5.3c0-.6 0-.8-.2-1.1h4.1l-.5.9c-.3-.2-.7-.3-1.5-.3h-1v2.7h2.8zm7.1 0l-.5.9c-.4-.3-.7-.4-1.5-.4h-.7v3h1c.9 0 1.3-.1 2.1-.4L70 52h-3.8c.2-.3.2-.5.2-1.1v-5.3c0-.6 0-.8-.2-1.1h4.1l-.5.9c-.3-.2-.7-.3-1.5-.3h-1v2.7"/></svg>