<?xml version="1.0" encoding="utf-8"?>
<!-- Generator: Adobe Illustrator 22.0.1, SVG Export Plug-In . SVG Version: 6.00 Build 0)  -->
<svg version="1.1" id="Layer_1" xmlns="http://www.w3.org/2000/svg" xmlns:xlink="http://www.w3.org/1999/xlink" x="0px" y="0px"
	 viewBox="0 0 810.7 179.6" style="enable-background:new 0 0 810.7 179.6;" xml:space="preserve">
<style type="text/css">
	.st0{fill:#063755;}
</style>
<g>
	<polygon class="st0" points="792.4,37.8 795.2,37.8 795.2,44.8 797,44.8 797,37.8 799.8,37.8 799.8,36 792.4,36 	"/>
	<polygon class="st0" points="808.2,36 805.9,41.4 803.6,36 801.1,36 801.1,44.8 802.9,44.8 802.9,38.5 805.2,43.5 806.7,43.5 
		809,38.5 809,44.8 810.7,44.8 810.7,36 	"/>
	<g>
		<path class="st0" d="M34,26.1v85.1c0,15.4,3.2,19.8,12.7,21.4l7.2,1.2v2.8c-7.9,0-14.1-0.2-22.1-0.2S7.9,136.7,0,136.7v-2.8
			l7.2-1.2c9.7-1.6,22.5-6,22.5-21.4V32.7c0-7.6-10.7-10.4-20.6-11.8L0,19.6v-2.8h51.8L90,112.7l38-95.9h41v2.8l-9.2,1.2
			c-9.9,1.4-11,4.2-11,11.8v88.1c0,7.6,1.1,10.4,11,11.8l9.2,1.2v2.8c-10.6,0-19.4-0.2-30-0.2c-10.4,0-19.3,0.2-29.9,0.2v-2.8
			l9.2-1.2c9.9-1.4,11-4.2,11-11.8V24.2l-45,112.9h-5.5L34,26.1z"/>
	</g>
	<path class="st0" d="M255.6,123.8c-1.1,0-2-0.2-2.8-0.6c-1.1,8.6-3.8,10.1-7.8,10.1c-4.4,0-6.2-3-6.2-9.9L239,77
		c0-19.1-12.5-28.1-32.7-28.1c-16.3,0-29.9,9.2-29.9,21.7c0,7.6,4.2,12.7,11.3,12.7c6.4,0,11.1-3.9,11.1-9.7c0-8.8-8.8-7.9-8.8-13.4
		c0-4.1,6-8.7,16.1-8.7c12.5,0,16.1,6,16.1,21.2v17.8c-22.3,2.5-49.6,8.5-49.6,29c0,12.7,9,19.8,24,19.8c13.8,0,24.4-7.9,27.9-19.3
		c1.1,14,5.7,18.7,15.7,18.7C249.8,138.8,254.2,135.3,255.6,123.8C255.6,123.8,255.6,123.8,255.6,123.8z M222,111.6
		c0,14.8-8.3,21.4-17.5,21.4c-8.8,0-14-6.2-14-15.5c0-16.8,11.1-21,31.4-24V111.6z"/>
	<path class="st0" d="M338.2,69.2c5.3,0,9.9-3.4,9.9-9.9c0-6.7-4.8-11.1-12.5-11.1c-6.9,0-13.8,3.2-19.1,8.1
		c-5.8-4.9-14-7.8-22.8-7.8c-19.4,0-32.1,12.2-32.1,28.8c0,17.1,14.3,29.3,31.4,29.3c-19.1,0-27.2,6-27.2,16.1
		c0,13.8,14.5,19.1,36,19.8c21.2,0.9,32,3,32,13.2c0,12.9-12.9,21.2-33.9,21.2c-21.9,0-31.6-7.9-31.6-19.1c0-6,3.7-9.9,10.1-9.9
		c0.5-3.9-2.3-6.4-7.2-6.4c-7.9,0-13.8,5.3-13.8,14.7c0,15.2,18.4,23.3,42.6,23.3c24.9,0,43.6-10.1,43.6-29.1
		c0-20.1-16.4-24.7-39.7-25.6c-20-0.9-28.4-2.5-28.4-9c0-4.2,4.8-7.1,17.3-7.1c21.5,0,34.1-12.7,34.1-29.9c0-8.3-3-15.4-7.9-20.5
		c3.4-3,7.1-4.6,9.2-4.6c1.4,0,2.1,0.7,2.1,1.6c0,1.6-0.7,3.2-0.7,5.5C329.4,65.7,332.7,69.2,338.2,69.2z M294.4,105.3
		c-10.6,0-15.2-11.7-15.2-27c0-16.8,4.8-27,15-27c10.8,0,15.2,10.4,15.2,27C309.4,92.9,305.5,105.3,294.4,105.3z"/>
	<g>
		<path class="st0" d="M355.3,134.1l6.2-1.1c7.2-1.2,8.5-3.2,8.5-10.2V70.3c0-8.8-2.5-10.4-11.3-11.1l-6.2-0.5v-2.3l30.6-7.2
			l3.2,1.1c-0.9,12.9-1.4,34.4-1.4,52.5c0-7.8,0.5-15.7,2.1-25.3c3-17,11-29.3,24.7-29.3c9,0,14.3,5.5,14.3,13.2
			s-5.3,12.2-11.8,12.2c-6.7,0-10.4-4.2-10.4-10.2c0-1.4,0.4-3,0.4-3.9c0-1.4-0.5-2.1-1.8-2.1c-4.4,0-10.1,6.7-12.9,20.8
			c-1.6,8.3-2.3,16.4-2.3,24.6v19.6c0,7.4,1.9,9.7,9.5,10.8l7.2,1.1v2.7c-8.5,0-16.6-0.2-25.1-0.2c-8.3,0-15.2,0.2-23.5,0.2V134.1z"
			/>
	</g>
	<g>
		<path class="st0" d="M468.9,139.4c-14.7,0-25.3-8.7-25.3-27.7V65.2c0-6-0.7-9.2-7.2-10.2l-7.6-1.1v-2.7h32.9l-0.5,15v46.3
			c0,17.1,5.5,21.4,14,21.4c10.6,0,20.3-11.3,20.3-35.3V65.2c0-6-0.5-9.2-7.2-10.2l-7.6-1.1v-2.7h33l-0.7,15.7v55.8
			c0,6.2,0.7,9.4,7.4,10.2l7.4,1.1v2.7h-27.6l-2.3-1.8V98.6C497.9,122.8,489.4,139.4,468.9,139.4z"/>
	</g>
	<path class="st0" d="M616.3,133c-7.4-1.2-8.7-3.2-8.7-10.2V21.9c0-6.7,0.5-14.8,1.4-20.7l-3-1.2l-34.8,6.7v1.9l8.3,0.9
		c8.3,0.9,10.6,3.4,10.6,10.6v33c-5.7-3.2-12.4-4.6-19.8-4.6c-18.4,0-42.6,14-42.6,46.1c0,29.1,18.2,44.7,36.7,44.7
		c17.1,0,28.1-11.5,28.1-40.4v36l2.3,1.8h27.6v-2.7L616.3,133z M590.2,98.9c0,26.1-10.1,36.2-21.5,36.2c-14.8,0-21.4-14.3-21.4-40.4
		c0-28.1,7.8-43.5,23.1-43.5c7.4,0,15,2.8,19.8,11.1V98.9z"/>
	<g>
		<path class="st0" d="M635.3,179.5c-9.7,0-16.1-5.5-16.1-14.3c0-6.9,4.9-12.2,12.4-12.2c6.5,0,10.6,4.4,10.6,9.9
			c0,7.1-5.1,7.9-5.1,10.6c0,1.1,0.7,1.6,2.1,1.6c5.1,0,14.1-4.6,25.4-34.8l1.1-2.8l-29.5-69.2c-4.1-9.2-6.5-12.5-12-13.4l-5.3-0.9
			v-2.7c8.1,0.2,15.9,0.2,23.8,0.2c8.1,0,15,0,23.1-0.2v2.7l-6.4,0.7c-7.6,0.9-7.4,6.5-4.1,15.4l18.4,47.5l15.9-43.1
			c1.9-5.5,2.8-9,2.8-11.8c0-4.4-2.1-6.5-9-7.6l-5.8-0.9v-2.8c6.2,0.2,12.2,0.2,18.4,0.2c6.2,0,12,0,18.4-0.2v2.7l-4.2,0.9
			c-8.7,1.8-11.8,6.4-17.3,20.8l-20.8,55.6C656,174.3,646.6,179.5,635.3,179.5z"/>
	</g>
	<g>
		<path class="st0" d="M725.6,48.8c8.6-5.2,13.8-13,13.8-19.6c0-1.5-0.6-2.1-1.7-2.1c-1.8,0-2.9,1.4-5.9,1.4c-4.3,0-7.7-2.9-7.7-7.9
			c0-5.1,4-9,9.5-9c6.8,0,10.6,5.4,10.6,13.8c0,10.6-8.1,20.3-17.2,25.5L725.6,48.8z"/>
	</g>
	<g>
		<path class="st0" d="M736.2,130.7l-4.8,8.5h-1.4v-36h3.4c6.4,24.7,15.7,33.6,28.1,33.6c10.2,0,17.5-5.3,17.5-15.5
			c0-10.4-6.4-14.7-22.4-20.5c-13.1-4.6-24.7-11.1-24.7-27.2c0-14.1,12.7-24.9,29.7-24.9c9,0,15.9,2.8,21,7.8l4.2-7.6h1.4v32.3h-3.4
			c-5.5-20.5-12.5-29.9-23.3-29.9c-11.5,0-16.4,6.7-16.4,14.5c0,9.9,6.4,13.8,22.1,19.4c12.5,4.4,25.3,11.7,25.3,27.9
			c0,16.8-14,26.3-30.9,26.3C750.2,139.4,742.3,136.4,736.2,130.7z"/>
	</g>
</g>
</svg>
