<svg xmlns="http://www.w3.org/2000/svg" viewBox="0 0 80 58.7"><g fill="#083755"><path d="M72.3 26.6c-3.3 0-6.2 1.9-7.5 4.9-1.3 2.8-2.7 5.9-3.5 8-.4.9-.9 1.7-1.6 2.4-.7.7-1.5 1.3-2.4 1.6-1.8.4-2.1-.6-1.8-1.7 1.8-5.1 5.7-13.5 6.4-14.9 0-.1 0-.2-.1-.2h-.1c-3.3 0-6.2 1.9-7.5 4.9-1.1 2.4-2.2 4.9-3 6.9-.2.5-.5 1.1-.9 1.5-1.2 1.6-2.7 3.2-4.1 3.5-1.8.4-2.1-.6-1.8-1.7 1.8-5.2 8.6-19.9 9.5-21.8 0-.1 0-.2-.1-.2h-.1c-3.2 0-6.1 1.9-7.5 4.8-2.1 4.7-5.5 12.3-6.8 15.2-.4 1-1.1 1.9-1.9 2.6-.5.5-1.2.9-1.9 1.1-1.8.4-2.1-.6-1.8-1.7 1.8-5.1 5.8-13.5 6.5-14.9 0-.1 0-.2-.1-.2h-.1c-3.3 0-6.2 1.9-7.5 4.9-1.3 2.8-2.7 5.9-3.5 8-.4.9-.9 1.7-1.6 2.4s-1.5 1.3-2.4 1.6c-1.8.4-2.1-.6-1.8-1.7 1.8-5.1 5.7-13.5 6.4-14.9 0-.1 0-.2-.1-.2h-.1c-3.3 0-6.2 1.9-7.5 4.9-1.6 3.5-3.3 7.3-4 9.2-1.3 3.3 1.6 5.1 4.4 5.1 2.3-.1 4.4-1.1 5.9-2.8.5 1.9 2.6 2.8 4.7 2.8 2.2-.1 4.3-1 5.7-2.7.5 1.7 2.6 2.7 4.6 2.7 2.5-.1 4.8-1.3 6.3-3.2.2 2.1 2.5 3.2 4.7 3.2 2.3-.1 4.4-1.1 5.9-2.8.5 1.9 2.6 2.8 4.7 2.8 2.7.1 5.2-1.7 5.9-4.4-.8 1-2 1.7-3.3 2.1-1.8.4-2.1-.6-1.8-1.7 1.8-5.1 5.8-13.5 6.5-14.9.3-.3.3-.4.1-.5.1 0 0 0 0 0"/><path d="M22.1 19.3c2.2-5.2 10.3.6-1.6 3.9 0 0 1.3-2.9 1.6-3.9M6.6 12.8c-2.5 5.2.1 10.8 7 11.5L6.2 42.2c-1 2.3-1.8 4.3-2.4 5.7-2.4.8-4 3.2-3.8 5.7.6-1.2 2-5.1 10.6-3 7.9 1.8 16.6 5.9 23.2 5.9 6.3 0 7.3-6.3 7.3-6.3-.7 1.6-4.7 2.1-8.7 1.7-6.5-.6-14.1-3.6-22.1-4.4.3-.8.7-1.7 1-2.7l8.6-20.4c1.3-.3 2.6-.7 3.9-1.2 6.3-2.6 6.8-7.4 4.5-9.8-2.6-2.8-8.7-2.7-11.7 4.2-.6 1.4-2.4 5.7-2.4 5.7-5.8-.4-6.8-5-5.1-8.8C11.5 9.4 19.4 4 42.4 4 64.7 4 75 11 76.8 17.3c.4 1.4.5 2.8.3 4.3 0 0 0 .1.1.1.5 0 2.8-.7 2.8-4.8C80 6.5 62.2 0 42.3 0 24.9 0 11.1 3.7 6.6 12.8z"/></g></svg>