<svg data-name="Layer 1" xmlns="http://www.w3.org/2000/svg" viewBox="0 0 351.24 320.79"><path data-name="&lt;Path&gt;" d="M176 45.4C186.34 31 197.88 19.84 211.08 12c13.19-7.42 26-11.54 38.75-12a90.23 90.23 0 0 1 37.52 6.6 89.54 89.54 0 0 1 32.57 20.61c9.48 8.66 16.9 19.38 22.67 32.16a92 92 0 0 1 8.66 39.16c0 12-3.71 24.74-10.72 37.52s-17.31 26-30.09 39.58S284 202.88 270 216.49s-30.09 29.68-47.82 48.65a595.33 595.33 0 0 0-46.59 55.65A537.69 537.69 0 0 0 129 265.13c-17.73-19-33.39-35-47.82-48.65-14-13.6-27.62-27.21-40.4-40.81s-22.67-26.8-30.09-39.58C3.71 123.32 0 110.54 0 98.58a87.9 87.9 0 0 1 9.07-39.16c5.77-12.37 13.6-23.5 23.5-32.16A105.87 105.87 0 0 1 66 6.65c12.37-4.53 25.56-7 37.93-6.6s25.56 4.53 38.34 12.37C155.42 19.84 166.55 31 176 45.4z" fill="#ef5c4c"/></svg>