<svg xmlns="http://www.w3.org/2000/svg" width="262.416" height="65" viewBox="0 0 452 65"><path fill="#0C3A5B" d="M8.732 45.419c1.694 1.426 5.229 3.778 9.476 3.778 4.866 0 8.982-3.291 8.982-7.229 0-4.803-3.903-6.962-10.372-9.172C10.616 30.582 6.5 28.371 6.5 22.165c0-4.046 3.208-9.55 11.548-9.55 3.9 0 7.167 1.495 8.768 2.464a1.26 1.26 0 0 1 .42 1.738 1.229 1.229 0 0 1-1.691.415c-1.579-.963-4.32-2.298-7.551-2.298-6.575 0-9.034 4.1-9.034 7.176 0 4.587 3.475 6.583 8.875 8.363C25.158 33.011 29.81 35.6 29.81 41.86c0 5.395-5.508 9.604-11.655 9.604-5.141 0-9.248-2.601-11.035-4.104-.514-.432-.584-1.201-.176-1.736l1.788-.205zm195.045-32.015c.693 0 1.255.562 1.255 1.255v36.39a1.088 1.088 0 0 1-1.926.694c-1.123-1.355-5.892-7.368-26.059-34.029h-.055v32.65a1.228 1.228 0 0 1-2.455 0V14.028a1.169 1.169 0 0 1 2.096-.711l25.835 33.639h.054V14.659c0-.693.562-1.255 1.255-1.255zm154.901 2.346h-10.012v34.558a1.281 1.281 0 1 1-2.563 0V15.75h-9.986a1.173 1.173 0 0 1 0-2.345h22.562a1.173 1.173 0 1 1-.001 2.345zm-84.307-3.146a.903.903 0 0 0-.829.539l-16.265 36.686a1.253 1.253 0 1 0 2.294 1.009l4.152-9.502h21.062l4.184 9.502a1.257 1.257 0 1 0 2.304-1.012L275.2 13.147a.9.9 0 0 0-.829-.543zm-.056 4.346h.109l9.328 21.984h-18.929l9.492-21.984zm151.403-4.091a19.615 19.615 0 0 1 19.694 19.694c0 10.965-8.729 19.583-19.694 19.583-10.91 0-19.639-8.618-19.639-19.583 0-10.911 8.729-19.694 19.639-19.694zm0 36.877c9.547 0 17.295-7.638 17.295-17.184 0-9.546-7.748-17.293-17.295-17.293-9.545 0-17.238 7.747-17.238 17.293 0 9.547 7.693 17.184 17.238 17.184zm11.197 14.329h-22.339a1.215 1.215 0 0 1 0-2.428h22.339a1.214 1.214 0 1 1 0 2.428zM100.671 12.859a19.616 19.616 0 0 1 19.694 19.694c0 10.965-8.729 19.583-19.694 19.583-10.911 0-19.639-8.618-19.639-19.583 0-10.911 8.728-19.694 19.639-19.694zm.01 36.662c9.666 0 17.511-7.529 17.511-16.942 0-9.412-7.845-17.05-17.511-17.05s-17.454 7.638-17.454 17.05c.001 9.413 7.788 16.942 17.454 16.942zm11.186-46.132H89.53a1.215 1.215 0 0 1 0-2.428h22.338a1.214 1.214 0 1 1-.001 2.428z"/></svg>