<?xml version="1.0" encoding="utf-8"?>
<!-- Generator: Adobe Illustrator 16.0.0, SVG Export Plug-In . SVG Version: 6.00 Build 0)  -->
<!DOCTYPE svg PUBLIC "-//W3C//DTD SVG 1.1//EN" "http://www.w3.org/Graphics/SVG/1.1/DTD/svg11.dtd">
<svg version="1.1" id="Layer_1" xmlns="http://www.w3.org/2000/svg" xmlns:xlink="http://www.w3.org/1999/xlink" x="0px" y="0px"
	 width="1980px" height="1020px" viewBox="0 0 1980 1020" enable-background="new 0 0 1980 1020" xml:space="preserve">
<g opacity="0.5">
	<circle fill="none" stroke="#404041" stroke-width="0.7846" stroke-miterlimit="10" cx="1260.018" cy="435.354" r="308.452"/>
	<g>
		<circle fill="none" stroke="#6D6E70" stroke-width="0.8387" stroke-miterlimit="10" cx="1381.291" cy="332.51" r="18.871"/>
		<circle fill="none" stroke="#F1F1F2" stroke-width="0.8387" stroke-miterlimit="10" cx="1381.291" cy="332.51" r="11.322"/>
	</g>
	<circle fill="none" stroke="#6D6E70" stroke-width="0.8387" stroke-miterlimit="10" cx="1177.49" cy="106.064" r="3.773"/>
	<circle fill="none" stroke="#58595B" stroke-width="0.8387" stroke-miterlimit="10" cx="501.929" cy="200.416" r="22.645"/>
	<circle fill="none" stroke="#58595B" stroke-width="0.8387" stroke-miterlimit="10" cx="743.47" cy="124.935" r="15.096"/>
	<circle fill="none" stroke="#A6A8AB" stroke-width="0.8387" stroke-miterlimit="10" cx="660.44" cy="623.115" r="7.548"/>
	<circle fill="none" stroke="#58595B" stroke-width="0.8387" stroke-miterlimit="10" cx="498.155" cy="528.762" r="3.774"/>
	<circle fill="none" stroke="#58595B" stroke-width="0.8387" stroke-miterlimit="10" cx="1154.846" cy="709.918" r="3.773"/>
	<circle fill="none" stroke="#A6A8AB" stroke-width="0.8387" stroke-miterlimit="10" cx="1317.132" cy="540.084" r="7.548"/>
	<circle fill="none" stroke="#58595B" stroke-width="0.8387" stroke-miterlimit="10" cx="1154.846" cy="347.606" r="11.322"/>
	<circle fill="none" stroke="#58595B" stroke-width="0.8387" stroke-miterlimit="10" cx="1139.749" cy="377.799" r="3.774"/>
	<circle fill="none" stroke="#58595B" stroke-width="0.8387" stroke-miterlimit="10" cx="467.962" cy="589.146" r="11.322"/>
	<path fill="none" stroke="#404041" stroke-width="0.8387" stroke-miterlimit="10" d="M924.626,282.189
		c0,64.616-52.381,116.997-116.997,116.997s-116.997-52.38-116.997-116.997c0-64.616,52.381-116.997,116.997-116.997
		C879.832,165.193,924.626,225.842,924.626,282.189z"/>
	<circle fill="none" stroke="#58595B" stroke-width="0.7846" stroke-miterlimit="10" cx="807.63" cy="282.189" r="109.449"/>
	<circle fill="none" stroke="#929497" stroke-width="0.514" stroke-miterlimit="10" cx="807.63" cy="282.189" r="71.708"/>
	
		<line fill="none" stroke="#F1F1F2" stroke-width="0.8387" stroke-miterlimit="10" x1="886.886" y1="743.885" x2="992.561" y2="743.885"/>
	
		<line fill="none" stroke="#929497" stroke-width="0.8387" stroke-miterlimit="10" x1="901.982" y1="751.434" x2="969.916" y2="751.434"/>
	<circle fill="none" stroke="#F1F1F2" stroke-width="0.8387" stroke-miterlimit="10" cx="528.347" cy="468.377" r="26.419"/>
	<polyline fill="none" stroke="#F1F1F2" stroke-width="0.8387" stroke-miterlimit="10" points="547.218,386.605 562.314,371.508 
		577.411,386.605 592.507,371.508 607.604,386.605 622.7,371.508 637.796,386.605 652.892,371.508 667.989,386.605 683.085,371.508 
			"/>
	<polyline fill="none" stroke="#F1F1F2" stroke-width="0.8387" stroke-miterlimit="10" points="1281.852,608.018 1296.947,592.922 
		1312.045,608.018 1327.141,592.922 1342.236,608.018 1357.334,592.922 1372.43,608.018 1387.525,592.922 1402.623,608.018 
		1417.719,592.922 	"/>
	<polyline fill="none" stroke="#929497" stroke-width="0.5242" stroke-miterlimit="10" points="1226.553,435.354 1235.988,425.918 
		1245.424,435.354 1254.859,425.918 1264.293,435.354 1273.729,425.918 1283.164,435.354 1292.598,425.918 1302.033,435.354 
		1311.469,425.918 	"/>
	<polyline fill="none" stroke="#929497" stroke-width="0.5242" stroke-miterlimit="10" points="683.085,670.291 692.52,660.855 
		701.955,670.291 711.39,660.855 720.824,670.291 730.259,660.855 739.695,670.291 749.13,660.855 758.564,670.291 768,660.855 	"/>
	
		<line fill="none" stroke="#F1F1F2" stroke-width="0.8387" stroke-miterlimit="10" x1="479.284" y1="265.834" x2="547.218" y2="265.834"/>
	
		<line fill="none" stroke="#F1F1F2" stroke-width="0.8387" stroke-miterlimit="10" x1="1445.451" y1="424.346" x2="1581.318" y2="424.346"/>
	
		<line fill="none" stroke="#F1F1F2" stroke-width="0.8387" stroke-miterlimit="10" x1="1528.48" y1="416.797" x2="1566.221" y2="416.797"/>
	<circle fill="none" stroke="#F1F1F2" stroke-width="0.8387" stroke-miterlimit="10" cx="1483.191" cy="137.515" r="15.096"/>
	
		<ellipse transform="matrix(-0.3497 -0.9368 0.9368 -0.3497 1873.0098 1575.2018)" fill="none" stroke="#808184" stroke-width="0.6848" stroke-miterlimit="10" cx="1483.174" cy="137.579" rx="5.032" ry="30.192"/>
	
		<line fill="none" stroke="#929497" stroke-width="0.8387" stroke-miterlimit="10" x1="1361.945" y1="625.631" x2="1564.711" y2="625.631"/>
</g>
</svg>
