<?xml version="1.0" encoding="utf-8"?>
<!-- Generator: Adobe Illustrator 16.0.0, SVG Export Plug-In . SVG Version: 6.00 Build 0)  -->
<!DOCTYPE svg PUBLIC "-//W3C//DTD SVG 1.1//EN" "http://www.w3.org/Graphics/SVG/1.1/DTD/svg11.dtd">
<svg version="1.1" id="Layer_1" xmlns="http://www.w3.org/2000/svg" xmlns:xlink="http://www.w3.org/1999/xlink" x="0px" y="0px"
	 width="1980px" height="1020px" viewBox="0 0 1980 1020" enable-background="new 0 0 1980 1020" xml:space="preserve">
<g>
	<g>
		<g>
			<path fill="#85B4E0" d="M1359.962,652.656c0,3.794,3.079,6.875,6.876,6.875c3.798,0,6.876-3.081,6.876-6.875
				c0-3.801-3.078-6.877-6.876-6.877C1363.041,645.779,1359.962,648.855,1359.962,652.656z"/>
			<path fill="#F9CD5D" d="M1359.962,680.158c0,3.793,3.079,6.875,6.876,6.875c3.798,0,6.876-3.082,6.876-6.875
				c0-3.799-3.078-6.877-6.876-6.877C1363.041,673.281,1359.962,676.359,1359.962,680.158z"/>
			<path fill="#F38478" d="M1359.962,707.659c0,3.8,3.079,6.875,6.876,6.875c3.798,0,6.876-3.075,6.876-6.875
				c0-3.799-3.078-6.874-6.876-6.874C1363.041,700.785,1359.962,703.86,1359.962,707.659z"/>
			<circle fill="#F38478" cx="1098.688" cy="577.021" r="13.751"/>
			<circle fill="#85B4E0" cx="1662.49" cy="728.286" r="13.752"/>
			<circle fill="#85B4E0" cx="906.178" cy="577.021" r="13.751"/>
			<path fill="#85B4E0" d="M919.929,652.656c0,3.794,3.079,6.875,6.875,6.875s6.873-3.081,6.873-6.875
				c0-3.801-3.077-6.877-6.873-6.877S919.929,648.855,919.929,652.656z"/>
			<path fill="#85B4E0" d="M1043.686,652.656c0,3.794,3.076,6.875,6.875,6.875c3.798,0,6.873-3.081,6.873-6.875
				c0-3.801-3.075-6.877-6.873-6.877C1046.762,645.779,1043.686,648.855,1043.686,652.656z"/>
			<path fill="#85B4E0" d="M1194.947,693.906c0,3.797,3.077,6.879,6.875,6.879h82.509c3.796,0,6.874-3.082,6.874-6.879l0,0
				c0-3.795-3.078-6.873-6.874-6.873h-82.509C1198.024,687.033,1194.947,690.111,1194.947,693.906L1194.947,693.906z"/>
			<path fill="#F38478" d="M1112.438,721.411c0,3.796,3.075,6.875,6.875,6.875h123.764c3.798,0,6.875-3.079,6.875-6.875l0,0
				c0-3.799-3.077-6.877-6.875-6.877h-123.764C1115.514,714.534,1112.438,717.612,1112.438,721.411L1112.438,721.411z"/>
			<path fill="#F9CD5D" d="M1057.434,721.411c0,3.796,3.079,6.875,6.879,6.875h27.5c3.797,0,6.875-3.079,6.875-6.875l0,0
				c0-3.799-3.078-6.877-6.875-6.877h-27.5C1060.513,714.534,1057.434,717.612,1057.434,721.411L1057.434,721.411z"/>
			<path fill="#F9CD5D" d="M1593.733,721.411c0,3.796-3.078,6.875-6.874,6.875h-110.014c-3.797,0-6.874-3.079-6.874-6.875l0,0
				c0-3.799,3.077-6.877,6.874-6.877h110.014C1590.655,714.534,1593.733,717.612,1593.733,721.411L1593.733,721.411z"/>
			<path fill="#D3D6DF" d="M892.427,721.411c0,3.796,3.077,6.875,6.875,6.875l0,0c3.797,0,6.876-3.079,6.876-6.875v-68.755
				c0-3.801-3.079-6.877-6.876-6.877l0,0c-3.799,0-6.875,3.076-6.875,6.877V721.411z"/>
			<path fill="#85B4E0" d="M864.925,707.659c0,3.8,3.077,6.875,6.875,6.875l0,0c3.796,0,6.876-3.075,6.876-6.875v-55.003
				c0-3.801-3.08-6.877-6.876-6.877l0,0c-3.798,0-6.875,3.076-6.875,6.877V707.659z"/>
			<circle fill="#D3D6DF" cx="823.672" cy="742.038" r="13.752"/>
			<path fill="#F38478" d="M823.67,707.659c0,3.8,3.077,6.875,6.876,6.875c3.796,0,6.877-3.075,6.877-6.875
				c0-3.799-3.082-6.874-6.877-6.874C826.748,700.785,823.67,703.86,823.67,707.659z"/>
			<path fill="#F38478" d="M672.405,666.406c0,3.796,3.08,6.875,6.877,6.875h82.51c3.795,0,6.874-3.079,6.874-6.875l0,0
				c0-3.799-3.079-6.875-6.874-6.875h-82.51C675.484,659.531,672.405,662.607,672.405,666.406L672.405,666.406z"/>
			<path fill="#85B4E0" d="M699.909,693.906c0,3.797,3.078,6.879,6.876,6.879h55.006c3.795,0,6.874-3.082,6.874-6.879l0,0
				c0-3.795-3.079-6.873-6.874-6.873h-55.006C702.987,687.033,699.909,690.111,699.909,693.906L699.909,693.906z"/>
			<path fill="#85B4E0" d="M1263.703,755.787c0,7.598,6.156,13.755,13.752,13.755c7.594,0,13.75-6.157,13.75-13.755
				c0-7.592-6.156-13.749-13.75-13.749C1269.859,742.038,1263.703,748.195,1263.703,755.787z"/>
			<path fill="#85B4E0" d="M1236.2,762.665c0,3.796,3.078,6.877,6.876,6.877l0,0c3.798,0,6.875-3.081,6.875-6.877v-13.75
				c0-3.799-3.077-6.877-6.875-6.877l0,0c-3.798,0-6.876,3.078-6.876,6.877V762.665z"/>
			<path fill="#D3D6DF" d="M1208.697,762.665c0,3.796,3.076,6.877,6.874,6.877l0,0c3.8,0,6.879-3.081,6.879-6.877v-13.75
				c0-3.799-3.079-6.877-6.879-6.877l0,0c-3.798,0-6.874,3.078-6.874,6.877V762.665z"/>
			<path fill="#9BA0B3" d="M1181.194,762.665c0,3.796,3.077,6.877,6.876,6.877l0,0c3.797,0,6.877-3.081,6.877-6.877v-13.75
				c0-3.799-3.08-6.877-6.877-6.877l0,0c-3.799,0-6.876,3.078-6.876,6.877V762.665z"/>
			<path fill="#434451" d="M1153.691,790.169c0,3.793,3.078,6.874,6.875,6.874l0,0c3.8,0,6.877-3.081,6.877-6.874v-41.254
				c0-3.799-3.077-6.877-6.877-6.877l0,0c-3.797,0-6.875,3.078-6.875,6.877V790.169z"/>
			<path fill="#F38478" d="M1387.465,721.411c0,3.796,3.076,6.875,6.875,6.875h55.006c3.799,0,6.875-3.079,6.875-6.875l0,0
				c0-3.799-3.076-6.877-6.875-6.877h-55.006C1390.541,714.534,1387.465,717.612,1387.465,721.411L1387.465,721.411z"/>
			<path fill="#D3D6DF" d="M1414.967,748.915c0,3.794,3.079,6.872,6.875,6.872h27.504c3.799,0,6.875-3.078,6.875-6.872l0,0
				c0-3.799-3.076-6.877-6.875-6.877h-27.504C1418.046,742.038,1414.967,745.116,1414.967,748.915L1414.967,748.915z"/>
			<path fill="#D3D6DF" d="M1359.962,542.646c0,3.794,3.079,6.875,6.876,6.875h82.508c3.799,0,6.875-3.081,6.875-6.875l0,0
				c0-3.803-3.076-6.878-6.875-6.878h-82.508C1363.041,535.769,1359.962,538.844,1359.962,542.646L1359.962,542.646z"/>
			<path fill="#F9CD5D" d="M1359.962,817.67c0,3.793,3.079,6.875,6.876,6.875l0,0c3.798,0,6.876-3.082,6.876-6.875v-41.253
				c0-3.8-3.078-6.875-6.876-6.875l0,0c-3.797,0-6.876,3.075-6.876,6.875V817.67z"/>
			<path fill="#F38478" d="M1332.459,817.67c0,3.793,3.078,6.875,6.876,6.875l0,0c3.8,0,6.875-3.082,6.875-6.875v-41.253
				c0-3.8-3.075-6.875-6.875-6.875l0,0c-3.798,0-6.876,3.075-6.876,6.875V817.67z"/>
			<path fill="#F9CD5D" d="M1263.703,597.648c0,3.799,3.078,6.874,6.875,6.874c3.798,0,6.877-3.075,6.877-6.874
				c0-3.801-3.079-6.875-6.877-6.875C1266.781,590.773,1263.703,593.849,1263.703,597.648z"/>
			<path fill="#F9CD5D" d="M603.65,618.278c0,7.593,6.156,13.748,13.752,13.748c7.594,0,13.75-6.155,13.75-13.748
				c0-7.597-6.155-13.756-13.75-13.756C609.807,604.521,603.65,610.683,603.65,618.278z"/>
			<path fill="#85B4E0" d="M576.146,625.149c0,3.799,3.077,6.877,6.877,6.877c3.796,0,6.875-3.078,6.875-6.877
				c0-3.797-3.078-6.871-6.875-6.871C579.224,618.278,576.146,621.354,576.146,625.149z"/>
			<path fill="#85B4E0" d="M1538.729,817.67c0,3.799,3.076,6.875,6.877,6.875l0,0c3.795,0,6.877-3.076,6.877-6.875v-41.253
				c0-3.8-3.082-6.875-6.877-6.875l0,0c-3.801,0-6.877,3.075-6.877,6.875V817.67z"/>
			<path fill="#F38478" d="M1689.991,776.417c0,3.797-3.075,6.874-6.874,6.874h-110.01c-3.799,0-6.877-3.077-6.877-6.874l0,0
				c0-3.8,3.078-6.875,6.877-6.875h110.01C1686.916,769.542,1689.991,772.617,1689.991,776.417L1689.991,776.417z"/>
			<path fill="#9BA0B3" d="M1607.485,803.918c0,3.797-3.079,6.877-6.875,6.877h-27.502c-3.8,0-6.877-3.08-6.877-6.877l0,0
				c0-3.799,3.077-6.875,6.877-6.875h27.502C1604.406,797.043,1607.485,800.119,1607.485,803.918L1607.485,803.918z"/>
		</g>
		<path fill="#D3D6DF" d="M1071.186,776.417c0,3.797,3.076,6.874,6.875,6.874l0,0c3.801,0,6.877-3.077,6.877-6.874l0,0
			c0-3.8-3.076-6.875-6.877-6.875l0,0C1074.262,769.542,1071.186,772.617,1071.186,776.417L1071.186,776.417z"/>
		<path fill="#D3D6DF" d="M961.18,776.417c0,3.797,3.08,6.874,6.876,6.874l0,0c3.798,0,6.876-3.077,6.876-6.874l0,0
			c0-3.8-3.078-6.875-6.876-6.875l0,0C964.26,769.542,961.18,772.617,961.18,776.417L961.18,776.417z"/>
		<path fill="#F9CD5D" d="M933.678,776.417c0,3.797,3.079,6.874,6.877,6.874l0,0c3.796,0,6.875-3.077,6.875-6.874l0,0
			c0-3.8-3.079-6.875-6.875-6.875l0,0C936.756,769.542,933.678,772.617,933.678,776.417L933.678,776.417z"/>
		<path fill="#F38478" d="M892.427,776.417c0,3.797,3.077,6.874,6.875,6.874l0,0c3.797,0,6.876-3.077,6.876-6.874l0,0
			c0-3.8-3.079-6.875-6.876-6.875l0,0C895.503,769.542,892.427,772.617,892.427,776.417L892.427,776.417z"/>
		<path fill="#F38478" d="M617.402,776.417c0,3.797,3.078,6.874,6.875,6.874l0,0c3.796,0,6.875-3.077,6.875-6.874l0,0
			c0-3.8-3.078-6.875-6.875-6.875l0,0C620.479,769.542,617.402,772.617,617.402,776.417L617.402,776.417z"/>
		<path fill="#F38478" d="M589.898,776.417c0,3.797,3.078,6.874,6.876,6.874l0,0c3.798,0,6.876-3.077,6.876-6.874l0,0
			c0-3.8-3.078-6.875-6.876-6.875l0,0C592.977,769.542,589.898,772.617,589.898,776.417L589.898,776.417z"/>
		<path fill="#F38478" d="M589.898,748.915c0,3.794,3.078,6.872,6.876,6.872l0,0c3.798,0,6.876-3.078,6.876-6.872l0,0
			c0-3.799-3.078-6.877-6.876-6.877l0,0C592.977,742.038,589.898,745.116,589.898,748.915L589.898,748.915z"/>
		<path fill="#F9CD5D" d="M452.386,748.915c0,3.794,3.077,6.872,6.876,6.872l0,0c3.797,0,6.875-3.078,6.875-6.872l0,0
			c0-3.799-3.078-6.877-6.875-6.877l0,0C455.463,742.038,452.386,745.116,452.386,748.915L452.386,748.915z"/>
		<path fill="#F9CD5D" d="M521.142,748.915c0,3.794,3.078,6.872,6.876,6.872l0,0c3.8,0,6.875-3.078,6.875-6.872l0,0
			c0-3.799-3.075-6.877-6.875-6.877l0,0C524.219,742.038,521.142,745.116,521.142,748.915L521.142,748.915z"/>
		<path fill="#F9CD5D" d="M727.412,776.414c0,3.8,3.077,6.877,6.876,6.877h96.259c3.796,0,6.877-3.077,6.877-6.877l0,0
			c0-3.797-3.082-6.877-6.877-6.877h-96.259C730.488,769.537,727.412,772.617,727.412,776.414L727.412,776.414z"/>
		<path fill="#F38478" d="M713.661,735.163c0-3.799-3.079-6.881-6.876-6.881l0,0c-3.798,0-6.876,3.082-6.876,6.881v41.251
			c0,3.8,3.078,6.877,6.876,6.877l0,0c3.797,0,6.876-3.077,6.876-6.877V735.163z"/>
		<path fill="#F38478" d="M933.678,721.409c0,3.798-3.077,6.873-6.873,6.873l0,0c-3.797,0-6.875-3.075-6.875-6.873v-41.255
			c0-3.795,3.079-6.873,6.875-6.873l0,0c3.796,0,6.873,3.078,6.873,6.873V721.409z"/>
		<path fill="#85B4E0" d="M521.142,803.918c0,3.797,3.078,6.877,6.876,6.877h96.26c3.796,0,6.875-3.08,6.875-6.877l0,0
			c0-3.799-3.078-6.875-6.875-6.875h-96.26C524.219,797.043,521.142,800.119,521.142,803.918L521.142,803.918z"/>
		<path fill="#85B4E0" d="M356.127,721.411c0,3.796,3.077,6.875,6.875,6.875h96.26c3.797,0,6.875-3.079,6.875-6.875l0,0
			c0-3.799-3.078-6.877-6.875-6.877h-96.26C359.204,714.534,356.127,717.612,356.127,721.411L356.127,721.411z"/>
		<path fill="#85B4E0" d="M493.639,693.906c0,3.797-3.076,6.879-6.875,6.879h-13.752c-3.798,0-6.876-3.082-6.876-6.879l0,0
			c0-3.795,3.078-6.873,6.876-6.873h13.752C490.563,687.033,493.639,690.111,493.639,693.906L493.639,693.906z"/>
		<path fill="#F9CD5D" d="M411.131,748.915c0,3.794,3.08,6.872,6.876,6.872h13.752c3.799,0,6.875-3.078,6.875-6.872l0,0
			c0-3.799-3.075-6.877-6.875-6.877h-13.752C414.211,742.038,411.131,745.116,411.131,748.915L411.131,748.915z"/>
		<path fill="#9BA0B3" d="M383.628,776.417c0,3.797,3.078,6.874,6.876,6.874l0,0c3.798,0,6.876-3.077,6.876-6.874v-27.502
			c0-3.799-3.078-6.877-6.876-6.877l0,0c-3.798,0-6.876,3.078-6.876,6.877V776.417z"/>
		<path fill="#F38478" d="M218.613,748.915c0,3.794,3.077,6.872,6.876,6.872h137.512c3.798,0,6.876-3.078,6.876-6.872l0,0
			c0-3.799-3.078-6.877-6.876-6.877H225.49C221.69,742.038,218.613,745.116,218.613,748.915L218.613,748.915z"/>
		<path fill="#F38478" d="M1497.474,797.043c0,7.593-6.156,13.752-13.748,13.752l0,0c-7.597,0-13.753-6.159-13.753-13.752l0,0
			c0-7.595,6.156-13.752,13.753-13.752l0,0C1491.316,783.291,1497.474,789.448,1497.474,797.043L1497.474,797.043z"/>
		<path fill="#F9CD5D" d="M1442.47,803.918c0,3.797,3.078,6.877,6.876,6.877l0,0c3.799,0,6.875-3.08,6.875-6.877l0,0
			c0-3.799-3.076-6.875-6.875-6.875l0,0C1445.548,797.043,1442.47,800.119,1442.47,803.918L1442.47,803.918z"/>
		<path fill="#F9CD5D" d="M892.427,803.918c0,3.797,3.077,6.877,6.875,6.877l0,0c3.797,0,6.876-3.08,6.876-6.877l0,0
			c0-3.799-3.079-6.875-6.876-6.875l0,0C895.503,797.043,892.427,800.119,892.427,803.918L892.427,803.918z"/>
		<path fill="#F9CD5D" d="M603.65,693.906c0,3.797-3.078,6.879-6.876,6.879h-82.509c-3.797,0-6.875-3.082-6.875-6.879l0,0
			c0-3.795,3.077-6.873,6.875-6.873h82.509C600.572,687.033,603.65,690.111,603.65,693.906L603.65,693.906z"/>
		<path fill="#F9CD5D" d="M466.137,611.4c0,3.796,3.078,6.878,6.876,6.878l0,0c3.797,0,6.875-3.082,6.875-6.878l0,0
			c0-3.8-3.077-6.878-6.875-6.878l0,0C469.215,604.521,466.137,607.602,466.137,611.4L466.137,611.4z"/>
		<path fill="#9BA0B3" d="M466.137,638.905c0,3.793,3.078,6.874,6.876,6.874l0,0c3.797,0,6.875-3.081,6.875-6.874l0,0
			c0-3.8-3.077-6.879-6.875-6.879l0,0C469.215,632.026,466.137,635.105,466.137,638.905L466.137,638.905z"/>
		<path fill="#F38478" d="M438.634,625.149c0,3.799,3.079,6.877,6.876,6.877l0,0c3.797,0,6.876-3.078,6.876-6.877V611.4
			c0-3.8-3.079-6.878-6.876-6.878l0,0c-3.797,0-6.876,3.078-6.876,6.878V625.149z"/>
		<path fill="#85B4E0" d="M411.131,652.656c0,3.794,3.08,6.875,6.876,6.875l0,0c3.797,0,6.875-3.081,6.875-6.875V611.4
			c0-3.8-3.077-6.878-6.875-6.878l0,0c-3.796,0-6.876,3.078-6.876,6.878V652.656z"/>
	</g>
	<g>
		<circle fill="#85B4E0" cx="1883.18" cy="577.021" r="13.752"/>
		<path fill="#85B4E0" d="M1896.932,652.656c0,3.794,3.079,6.875,6.876,6.875c3.798,0,6.873-3.081,6.873-6.875
			c0-3.801-3.075-6.877-6.873-6.877C1900.011,645.779,1896.932,648.855,1896.932,652.656z"/>
		<path fill="#D3D6DF" d="M1869.428,721.411c0,3.796,3.076,6.875,6.876,6.875l0,0c3.798,0,6.876-3.079,6.876-6.875v-68.755
			c0-3.801-3.078-6.877-6.876-6.877l0,0c-3.8,0-6.876,3.076-6.876,6.877V721.411z"/>
		<path fill="#85B4E0" d="M1841.926,707.659c0,3.8,3.077,6.875,6.875,6.875l0,0c3.796,0,6.876-3.075,6.876-6.875v-55.003
			c0-3.801-3.08-6.877-6.876-6.877l0,0c-3.798,0-6.875,3.076-6.875,6.877V707.659z"/>
		<circle fill="#D3D6DF" cx="1800.673" cy="742.038" r="13.752"/>
		<path fill="#F38478" d="M1800.672,707.659c0,3.8,3.076,6.875,6.876,6.875c3.796,0,6.877-3.075,6.877-6.875
			c0-3.799-3.081-6.874-6.877-6.874C1803.748,700.785,1800.672,703.86,1800.672,707.659z"/>
		<path fill="#F38478" d="M1649.404,666.406c0,3.796,3.082,6.875,6.879,6.875h82.509c3.796,0,6.874-3.079,6.874-6.875l0,0
			c0-3.799-3.078-6.875-6.874-6.875h-82.509C1652.486,659.531,1649.404,662.607,1649.404,666.406L1649.404,666.406z"/>
		<path fill="#85B4E0" d="M1676.908,693.906c0,3.797,3.08,6.879,6.877,6.879h55.007c3.796,0,6.874-3.082,6.874-6.879l0,0
			c0-3.795-3.078-6.873-6.874-6.873h-55.007C1679.988,687.033,1676.908,690.111,1676.908,693.906L1676.908,693.906z"/>
		<path fill="#D3D6DF" d="M1938.184,776.417c0,3.797,3.08,6.874,6.877,6.874l0,0c3.799,0,6.875-3.077,6.875-6.874l0,0
			c0-3.8-3.076-6.875-6.875-6.875l0,0C1941.264,769.542,1938.184,772.617,1938.184,776.417L1938.184,776.417z"/>
		<path fill="#F9CD5D" d="M1910.681,776.417c0,3.797,3.078,6.874,6.878,6.874l0,0c3.796,0,6.875-3.077,6.875-6.874l0,0
			c0-3.8-3.079-6.875-6.875-6.875l0,0C1913.759,769.542,1910.681,772.617,1910.681,776.417L1910.681,776.417z"/>
		<path fill="#F38478" d="M1869.428,776.417c0,3.797,3.076,6.874,6.876,6.874l0,0c3.798,0,6.876-3.077,6.876-6.874l0,0
			c0-3.8-3.078-6.875-6.876-6.875l0,0C1872.504,769.542,1869.428,772.617,1869.428,776.417L1869.428,776.417z"/>
		<path fill="#F9CD5D" d="M1704.412,776.414c0,3.8,3.078,6.877,6.877,6.877h96.259c3.796,0,6.877-3.077,6.877-6.877l0,0
			c0-3.797-3.081-6.877-6.877-6.877h-96.259C1707.49,769.537,1704.412,772.617,1704.412,776.414L1704.412,776.414z"/>
		<path fill="#F38478" d="M1690.662,735.163c0-3.799-3.08-6.881-6.877-6.881l0,0c-3.797,0-6.877,3.082-6.877,6.881v41.251
			c0,3.8,3.08,6.877,6.877,6.877l0,0c3.797,0,6.877-3.077,6.877-6.877V735.163z"/>
		<path fill="#F38478" d="M1910.681,721.409c0,3.798-3.075,6.873-6.873,6.873l0,0c-3.797,0-6.876-3.075-6.876-6.873v-41.255
			c0-3.795,3.079-6.873,6.876-6.873l0,0c3.798,0,6.873,3.078,6.873,6.873V721.409z"/>
		<path fill="#F9CD5D" d="M1869.428,803.918c0,3.797,3.076,6.877,6.876,6.877l0,0c3.798,0,6.876-3.08,6.876-6.877l0,0
			c0-3.799-3.078-6.875-6.876-6.875l0,0C1872.504,797.043,1869.428,800.119,1869.428,803.918L1869.428,803.918z"/>
		<circle fill="#85B4E0" cx="58.306" cy="728.286" r="13.752"/>
		<path fill="#9BA0B3" d="M281.61,776.417c0,3.797,3.079,6.874,6.876,6.874l0,0c3.799,0,6.876-3.077,6.876-6.874v-27.502
			c0-3.799-3.077-6.877-6.876-6.877l0,0c-3.797,0-6.876,3.078-6.876,6.877V776.417z"/>
		<path fill="#F38478" d="M116.595,748.915c0,3.794,3.077,6.872,6.876,6.872h137.512c3.797,0,6.876-3.078,6.876-6.872l0,0
			c0-3.799-3.079-6.877-6.876-6.877H123.471C119.672,742.038,116.595,745.116,116.595,748.915L116.595,748.915z"/>
		<path fill="#F9CD5D" d="M139.359,611.4c0,3.796,3.079,6.878,6.876,6.878l0,0c3.797,0,6.874-3.082,6.874-6.878l0,0
			c0-3.8-3.077-6.878-6.874-6.878l0,0C142.438,604.521,139.359,607.602,139.359,611.4L139.359,611.4z"/>
		<path fill="#9BA0B3" d="M139.359,638.905c0,3.793,3.079,6.874,6.876,6.874l0,0c3.797,0,6.874-3.081,6.874-6.874l0,0
			c0-3.8-3.077-6.879-6.874-6.879l0,0C142.438,632.026,139.359,635.105,139.359,638.905L139.359,638.905z"/>
		<path fill="#F38478" d="M111.856,625.149c0,3.799,3.078,6.877,6.876,6.877l0,0c3.798,0,6.876-3.078,6.876-6.877V611.4
			c0-3.8-3.078-6.878-6.876-6.878l0,0c-3.798,0-6.876,3.078-6.876,6.878V625.149z"/>
		<path fill="#85B4E0" d="M84.354,652.656c0,3.794,3.08,6.875,6.876,6.875l0,0c3.797,0,6.875-3.081,6.875-6.875V611.4
			c0-3.8-3.078-6.878-6.875-6.878l0,0c-3.796,0-6.876,3.078-6.876,6.878V652.656z"/>
	</g>
</g>
</svg>
