<svg id="Layer_1" data-name="Layer 1" xmlns="http://www.w3.org/2000/svg" viewBox="0 0 66 23"><title>los logos pack</title><g id="Group"><g id="Group-2" data-name="Group"><g id="Vector"><path id="path67_fill" data-name="path67 fill" d="M7.84,0h3.52V16.64c-3.37.55-6.6.9-8.91-.39-3-1.66-3.21-6.94-.86-9.3A7,7,0,0,1,7.76,5.47V.24C7.75.12,7.75,0,7.84,0ZM3.61,11.25c0,2.18,1.59,3.48,4.14,2.89V8.37C5.17,7.58,3.63,9.17,3.61,11.25Z"/></g><g id="Vector-2" data-name="Vector"><path id="path68_fill" data-name="path68 fill" d="M17,0V3.68H13.53V0Z"/></g><g id="Vector-3" data-name="Vector"><path id="path69_fill" data-name="path69 fill" d="M59.4,5.32c2.93-.32,5.13,1,6,3,1.51,3.39-.08,7.29-2.5,8.44a7.23,7.23,0,0,1-3.75.55c-3.67-.32-6-4.05-4.69-8.2A5.21,5.21,0,0,1,55,7.83,5.32,5.32,0,0,1,59.4,5.32Zm-.16,9c3.83,1.49,4.26-6.86.39-6.1C57.24,8.69,57.31,13.55,59.24,14.3Z"/></g><g id="Vector-4" data-name="Vector"><path id="path70_fill" data-name="path70 fill" d="M28.07,16.8C25.17,17,20.75,18,19.16,16a4,4,0,0,1,0-4.37c1.07-1.38,3.43-1.68,5.55-1.87a2,2,0,0,0-.16-1.56,8.33,8.33,0,0,0-5.23.86V6.33c2.06-.95,6.85-1.95,8.28.23.75,1.15.47,3.14.47,4.92ZM21.9,13c-1,1.64,1.47,2,3,1.56V12.12C23.73,12.29,22.36,12.21,21.9,13Z"/></g><g id="Vector-5" data-name="Vector"><path id="path71_fill" data-name="path71 fill" d="M40.41,17H36.9V12.43c0-1.49.24-3.39-.55-4-.62-.47-2.08-.23-3,0V17H29.86V6.1c3.59-.93,10.08-1.94,10.55,2.58C40.65,10.9,40.25,14.24,40.41,17Z"/></g><g id="Vector-6" data-name="Vector"><path id="path72_fill" data-name="path72 fill" d="M54.48,5.78a23.56,23.56,0,0,1-1.17,2.58c-.37.08-.67-.14-.86,0-.08,3.81.81,9-.71,11.72-.91,1.66-2.59,2.72-5.16,2.89a10.45,10.45,0,0,1-4.69-.71V19c1.61.94,5.66,1.7,6.79-.23a5.84,5.84,0,0,0,.47-2c-.73,0-1.45.38-2.35.39-3.68,0-6-2.89-5.08-7a5.52,5.52,0,0,1,2.5-3.59C46.81,5,50.75,5.12,54.48,5.78Zm-8.82,7.43a2.86,2.86,0,0,0,3.52.71q-.11-2.74-.07-5.62C46.05,7.48,44.24,10.92,45.65,13.21Z"/></g><g id="Vector-7" data-name="Vector"><path id="path73_fill" data-name="path73 fill" d="M17.06,5.53v7.59c-.15,3.09-.12,5.56-1.25,7a6.62,6.62,0,0,1-1.1,1,3.81,3.81,0,0,1-1.33.78,6.24,6.24,0,0,1-1.72-.71A13.38,13.38,0,0,0,10,20.46c1.34-.83,2.6-1.45,3.13-3.13a21.6,21.6,0,0,0,.39-5.62c0-2,0-4.39,0-6.19Z"/></g></g></g></svg>