<svg id="Layer_1" data-name="Layer 1" xmlns="http://www.w3.org/2000/svg" viewBox="0 0 63 63"><defs><style>.cls-1{fill:#fff;}.cls-2{fill:#ffd10c;}.cls-3{fill:#23bab0;}.cls-4{fill:#ef5197;}.cls-5{fill:#16a7e0;}.cls-6{fill:#92c740;}.cls-7{fill:#0a79a0;}</style></defs><title>los logos pack</title><g id="Group"><g id="Group-2" data-name="Group"><g id="Vector"><path id="path58_fill" data-name="path58 fill" class="cls-1" d="M63,33a12.45,12.45,0,0,0-8.2-11.74A17.8,17.8,0,0,0,37.32,0,17.78,17.78,0,0,0,22.9,7.41a9.44,9.44,0,0,0-15.23,7.5,9.57,9.57,0,0,0,.59,3.3,12.54,12.54,0,0,0,0,23.56A17.86,17.86,0,0,0,25.7,63a17.68,17.68,0,0,0,14.42-7.44,9.42,9.42,0,0,0,15.25-7.46,9.57,9.57,0,0,0-.59-3.3A12.69,12.69,0,0,0,63,33Z"/></g><g id="Vector-2" data-name="Vector"><path id="path59_fill" data-name="path59 fill" class="cls-2" d="M24.75,27.12l13.79,6.31L52.45,21.19a16.32,16.32,0,0,0,.3-3.07,15.55,15.55,0,0,0-28.4-8.82L22,21.34Z"/></g><g id="Vector-3" data-name="Vector"><path id="path60_fill" data-name="path60 fill" class="cls-3" d="M10.47,41.78a16.61,16.61,0,0,0-.3,3.11,15.59,15.59,0,0,0,28.51,8.8l2.29-12L37.91,35.8,24,29.49Z"/></g><g id="Vector-4" data-name="Vector"><path id="path61_fill" data-name="path61 fill" class="cls-4" d="M10.37,17.84l9.45,2.24L21.9,9.29a7.49,7.49,0,0,0-11.53,8.54Z"/></g><g id="Vector-5" data-name="Vector"><path id="path62_fill" data-name="path62 fill" class="cls-5" d="M9.56,20.09A10.47,10.47,0,0,0,9.11,39.8l13.25-12-2.44-5.22Z"/></g><g id="Vector-6" data-name="Vector"><path id="path63_fill" data-name="path63 fill" class="cls-6" d="M41.08,53.69a7.4,7.4,0,0,0,4.5,1.56,7.53,7.53,0,0,0,7-10.08l-9.45-2.22Z"/></g><g id="Vector-7" data-name="Vector"><path id="path64_fill" data-name="path64 fill" class="cls-7" d="M43,40.46,53.4,42.91a10.46,10.46,0,0,0,.45-19.69l-13.59,12Z"/></g></g></g></svg>