<svg id="Layer_1" data-name="Layer 1" xmlns="http://www.w3.org/2000/svg" viewBox="0 0 60 60"><defs><style>.cls-1{fill:#f26522;}.cls-2{fill:#fff;}</style></defs><title>los logos pack</title><g id="Group"><g id="Group-2" data-name="Group"><g id="Vector"><path id="path51_fill" data-name="path51 fill" class="cls-1" d="M60,0H0V60H60Z"/></g><g id="Vector-2" data-name="Vector"><path id="path52_fill" data-name="path52 fill" class="cls-2" d="M24.73,37.5h9.19V35H27.57V31.13h5.86V28.62H27.57V25h6.35V22.5H24.73Zm21.45-4.08c0-3-.21-3.63-4.22-4.62-2.58-.63-2.63-.68-2.63-2.39,0-1.31.33-1.71,2.25-1.71a20.58,20.58,0,0,1,4,.45l.3-2.39a21.06,21.06,0,0,0-4.36-.49c-3.8,0-5,1.36-5,4.08,0,3.16.49,3.87,4.13,4.69,2.7.59,2.74.73,2.74,2.39,0,1.43-.33,1.88-2.39,1.88a14.21,14.21,0,0,1-4.22-.7l-.49,2.23a12.72,12.72,0,0,0,4.69.89C45.33,37.72,46.18,36.26,46.18,33.43Zm5.23-5.58c0-2.3,1.1-2.74,3.75-2.74a12.31,12.31,0,0,1,2.11.21l.19-2.3a12.59,12.59,0,0,0-2.58-.28c-4.1,0-6.21,1.27-6.21,5.23v5.46c0,2.58.77,4.29,4.64,4.29,3.54,0,4.62-1.76,4.62-4.1V32.54c0-2.58-1.1-3.7-3.82-3.7a8.64,8.64,0,0,0-2.67.4V27.85Zm2.25,3.35c1,0,1.5.33,1.5,1.41v1.1c0,1.15-.45,1.64-1.87,1.64s-1.9-.4-1.9-1.64v-2A6.33,6.33,0,0,1,53.65,31.2Z"/></g></g></g></svg>