<svg width="31" height="24" viewBox="0 0 31 24" version="1.1" xmlns="http://www.w3.org/2000/svg" xmlns:xlink="http://www.w3.org/1999/xlink" xmlns:figma="http://www.figma.com/figma/ns">
<title>Vector</title>
<desc>Created using Figma</desc>
<g id="Canvas" transform="translate(-3066 -436)" figma:type="canvas">
<g id="Vector" figma:type="vector">
<use xlink:href="#path0_fill" transform="translate(3066 436)" fill="#093857"/>
</g>
</g>
<defs>
<path id="path0_fill" d="M 31 2.77895L 31 21.2211C 31 21.9789 30.7417 22.4842 30.225 23.2421C 29.7083 23.7474 28.9333 24 28.1583 24L 2.84167 24C 2.06667 24 1.55 23.7474 0.775 23.2421C 0.258333 22.4842 0 21.9789 0 21.2211L 0 2.77895C 0 2.02105 0.258333 1.51579 0.775 0.757895C 1.29167 0.252632 2.06667 0 2.84167 0L 28.4167 0C 29.1917 0 29.7083 0.252632 30.4833 0.757895C 30.7417 1.26316 31 2.02105 31 2.77895ZM 28.675 3.28421C 28.675 3.03158 28.675 3.03158 28.675 2.77895C 28.675 2.77895 28.675 2.77895 28.675 2.52632L 28.675 2.27368C 28.675 2.27368 28.675 2.27368 28.675 2.02105C 28.675 2.02105 28.675 2.02105 28.4167 2.02105L 28.1583 2.02105L 2.84167 2.02105C 2.58333 2.27368 2.58333 2.27368 2.325 2.27368C 2.325 2.27368 2.06667 2.52632 2.06667 2.77895C 2.06667 4.8 2.84167 6.31579 4.65 7.57895C 6.975 9.34737 9.3 11.1158 11.625 12.8842C 11.625 12.8842 11.8833 13.1368 12.1417 13.3895C 12.6583 13.6421 12.9167 13.8947 13.175 13.8947C 13.4333 14.1474 13.6917 14.1474 13.95 14.4C 14.2083 14.6526 14.4667 14.6526 14.725 14.9053C 14.9833 15.1579 15.2417 15.1579 15.5 15.1579C 15.7583 15.1579 16.0167 15.1579 16.275 14.9053C 16.5333 14.9053 16.7917 14.6526 17.05 14.4C 17.3083 14.1474 17.5667 13.8947 17.825 13.8947C 18.0833 13.8947 18.3417 13.6421 18.6 13.3895C 18.8583 13.1368 19.1167 12.8842 19.1167 12.8842C 21.7 11.1158 24.025 9.34737 26.35 7.57895C 26.8667 7.07368 27.6417 6.56842 28.1583 5.55789C 28.4167 4.8 28.675 4.04211 28.675 3.28421ZM 28.675 21.2211L 28.675 8.08421C 28.4167 8.58947 27.9 8.8421 27.3833 9.09474C 24.5417 11.6211 21.9583 13.3895 20.15 14.9053C 19.6333 15.4105 19.1167 15.9158 18.8583 16.1684C 18.3417 16.4211 17.825 16.6737 17.3083 16.9263C 16.5333 17.1789 16.0167 17.4316 15.5 17.4316C 14.9833 17.4316 14.4667 17.1789 13.6917 16.9263C 13.175 16.6737 12.6583 16.4211 12.1417 16.1684C 11.8833 15.9158 11.3667 15.4105 10.85 14.9053C 9.04167 13.3895 6.45833 11.6211 3.35833 9.34737C 3.1 8.8421 2.58333 8.58947 2.325 8.08421L 2.325 20.9684C 2.325 21.2211 2.325 21.2211 2.58333 21.4737C 2.58333 21.4737 2.84167 21.7263 3.1 21.7263L 28.675 21.7263C 28.9333 21.7263 28.9333 21.7263 29.1917 21.4737C 28.675 21.4737 28.675 21.2211 28.675 21.2211Z"/>
</defs>
</svg>
