<svg id="Layer_1" data-name="Layer 1" xmlns="http://www.w3.org/2000/svg" viewBox="0 0 65 58"><defs><style>.cls-1{fill:#53c1de;}</style></defs><title>los logos pack</title><g id="Group"><g id="Group-2" data-name="Group"><g id="Vector"><path id="path53_fill" data-name="path53 fill" class="cls-1" d="M53.44,18.8c-.69-.24-1.39-.46-2.09-.66.12-.48.22-1,.32-1.43,1.58-7.71.55-13.92-3-16s-8.94.08-14.54,5c-.55.48-1.09,1-1.62,1.49-.35-.34-.71-.67-1.08-1C25.58,1,19.7-1.23,16.17.82s-4.39,7.81-3,15.11c.14.72.3,1.44.48,2.16-.83.24-1.64.49-2.41.76C4.4,21.26,0,25,0,28.94S4.72,37,11.89,39.49q.87.3,1.76.55-.29,1.16-.51,2.33c-1.36,7.18-.3,12.88,3.08,14.84s9.35-.06,15.05-5.05c.45-.4.9-.82,1.36-1.25q.86.83,1.76,1.61c5.52,4.77,11,6.69,14.36,4.73s4.62-8.15,3.15-15.6c-.11-.57-.24-1.15-.39-1.74l1.21-.38C60.15,37,65,33,65,28.95,65,25,60.46,21.22,53.44,18.8ZM36,7.81C40.77,3.62,45.26,2,47.3,3.15s3,6.34,1.66,13c-.09.43-.19.87-.29,1.3A66.58,66.58,0,0,0,40,16.06a65.78,65.78,0,0,0-5.49-6.88Q35.21,8.48,36,7.81ZM19.19,32.28Q20.08,34,21,35.66t2,3.35a59.33,59.33,0,0,1-6-1C17.66,36.18,18.37,34.25,19.19,32.28Zm0-6.55c-.81-1.92-1.5-3.81-2.06-5.64,1.86-.42,3.83-.76,5.89-1q-1,1.62-2,3.29T19.19,25.73ZM20.67,29q1.28-2.68,2.77-5.26t3.15-5c1.93-.15,3.92-.22,5.92-.22s4,.08,5.93.22q1.65,2.45,3.13,5T44.36,29q-1.3,2.69-2.79,5.28t-3.12,5c-1.93.14-3.92.21-6,.21s-4-.06-5.89-.19q-1.68-2.46-3.18-5.05T20.67,29ZM44,35.64q1-1.71,1.89-3.45A58.87,58.87,0,0,1,48,37.92,58.64,58.64,0,0,1,42,39Q43,37.31,44,35.64Zm1.86-9.9Q44.93,24,44,22.35t-2-3.26c2.07.26,4.06.61,5.93,1A59.79,59.79,0,0,1,45.83,25.74ZM32.53,11.18a58.92,58.92,0,0,1,3.82,4.63q-3.84-.18-7.68,0C29.94,14.14,31.23,12.58,32.53,11.18Zm-15-7.94c2.17-1.26,7,.54,12.05,5.05q.49.43,1,.9A66.94,66.94,0,0,0,25,16.06a67.46,67.46,0,0,0-8.67,1.35q-.25-1-.45-2C14.71,9.14,15.52,4.42,17.56,3.23ZM14.39,37.36q-.81-.23-1.61-.51a23.58,23.58,0,0,1-7.58-4c-1.61-1.39-2.43-2.76-2.43-3.88,0-2.37,3.53-5.4,9.41-7.46q1.11-.39,2.24-.71A67,67,0,0,0,17.59,29,69.24,69.24,0,0,0,14.39,37.36ZM29.44,50.05a23.52,23.52,0,0,1-7.28,4.57c-2,.71-3.59.73-4.56.17-2.05-1.18-2.9-5.76-1.74-11.91q.21-1.09.47-2.17A64.73,64.73,0,0,0,25.1,42a67.54,67.54,0,0,0,5.58,6.91Q30.07,49.5,29.44,50.05Zm3.17-3.15c-1.32-1.42-2.63-3-3.91-4.69q1.86.08,3.8.07t3.92-.09A58.93,58.93,0,0,1,32.61,46.91Zm16.86,3.87c-.39,2.09-1.17,3.49-2.13,4-2,1.19-6.43-.36-11.15-4.43q-.81-.7-1.64-1.49A65.52,65.52,0,0,0,40,42a64.36,64.36,0,0,0,8.8-1.36q.2.81.35,1.58A23.67,23.67,0,0,1,49.47,50.78Zm2.36-13.91-1.09.34A65.36,65.36,0,0,0,47.44,29a65.61,65.61,0,0,0,3.16-8.14q1,.29,1.93.61c6,2.08,9.68,5.15,9.68,7.51C62.22,31.46,58.26,34.74,51.83,36.87Z"/></g><g id="Vector-2" data-name="Vector"><path id="path54_fill" data-name="path54 fill" class="cls-1" d="M32.5,23.12a5.82,5.82,0,1,1-5.8,5.82A5.81,5.81,0,0,1,32.5,23.12Z"/></g></g></g></svg>