<svg id="Layer_1" data-name="Layer 1" xmlns="http://www.w3.org/2000/svg" viewBox="0 0 62 53"><defs><style>.cls-1{fill:#a41e11;}.cls-2{fill:#d82c20;}.cls-3{fill:#fff;}.cls-4{fill:#7a0c00;}.cls-5{fill:#ad2115;}</style></defs><title>los logos pack</title><g id="Group"><g id="Group-2" data-name="Group"><g id="Vector"><path id="path74_fill" data-name="path74 fill" class="cls-1" d="M59.58,40.86c-3.32,1.71-20.44,8.76-24.09,10.65s-5.68,1.89-8.56.51S5.79,43.29,2.51,41.73C.87,40.93,0,40.28,0,39.66V33.4s23.76-5.16,27.58-6.54,5.17-1.42,8.42-.22,22.77,4.69,26,5.89v6.18C62,39.33,61.25,40,59.58,40.86Z"/></g><g id="Vector-2" data-name="Vector"><path id="path75_fill" data-name="path75 fill" class="cls-2" d="M59.57,34.6c-3.32,1.71-20.44,8.76-24.09,10.65s-5.68,1.89-8.56.51S5.79,37,2.51,35.47s-3.35-2.65-.11-3.89,21.35-8.36,25.18-9.74,5.17-1.42,8.42-.22,20.3,8,23.5,9.13S62.89,32.89,59.57,34.6Z"/></g><g id="Vector-3" data-name="Vector"><path id="path76_fill" data-name="path76 fill" class="cls-1" d="M59.58,30.68c-3.32,1.71-20.44,8.76-24.09,10.65s-5.68,1.89-8.56.51S5.79,33.11,2.51,31.55C.87,30.75,0,30.1,0,29.48V23.22s23.76-5.16,27.58-6.54,5.17-1.42,8.42-.22,22.77,4.69,26,5.89v6.18C62,29.11,61.25,29.81,59.58,30.68Z"/></g><g id="Vector-4" data-name="Vector"><path id="path77_fill" data-name="path77 fill" class="cls-2" d="M59.57,24.42c-3.32,1.71-20.44,8.76-24.09,10.65s-5.68,1.89-8.56.51S5.79,26.86,2.51,25.29-.84,22.64,2.4,21.4,23.75,13,27.58,11.66s5.17-1.42,8.42-.22,20.3,8,23.5,9.13S62.89,22.71,59.57,24.42Z"/></g><g id="Vector-5" data-name="Vector"><path id="path78_fill" data-name="path78 fill" class="cls-1" d="M59.58,20.1c-3.32,1.71-20.44,8.76-24.09,10.65s-5.68,1.89-8.56.51S5.79,22.53,2.51,21C.87,20.17,0,19.52,0,18.9V12.64S23.76,7.48,27.58,6.1,32.76,4.68,36,5.88s22.77,4.69,26,5.89V18C62,18.53,61.25,19.23,59.58,20.1Z"/></g><g id="Vector-6" data-name="Vector"><path id="path79_fill" data-name="path79 fill" class="cls-2" d="M59.57,13.84C56.26,15.55,39.13,22.6,35.49,24.5s-5.68,1.89-8.56.51S5.79,16.28,2.51,14.71s-3.35-2.65-.11-3.89S23.75,2.46,27.58,1.08,32.75-.34,36,.86s20.3,8,23.5,9.13S62.89,12.13,59.57,13.84Z"/></g><g id="Vector-7" data-name="Vector"><path id="path80_fill" data-name="path80 fill" class="cls-3" d="M39.13,7.84l-5.39.55-1.2,2.87L30.6,8.06l-6.19-.58L29,5.84,27.65,3.26,32,5l4.08-1.35L34.94,6.28Z"/></g><g id="Vector-8" data-name="Vector"><path id="path81_fill" data-name="path81 fill" class="cls-3" d="M32.25,21.84,22.19,17.7l14.39-2.22Z"/></g><g id="Vector-9" data-name="Vector"><path id="path82_fill" data-name="path82 fill" class="cls-3" d="M18.33,15.37c4.25,0,7.69-1.33,7.69-3s-3.44-3-7.69-3-7.69,1.33-7.69,3S14.08,15.37,18.33,15.37Z"/></g><g id="Vector-10" data-name="Vector"><path id="path83_fill" data-name="path83 fill" class="cls-4" d="M45.47,8.61,54,12l-8.49,3.35Z"/></g><g id="Vector-11" data-name="Vector"><path id="path84_fill" data-name="path84 fill" class="cls-5" d="M36.07,12.32l9.4-3.71v6.73l-.91.36Z"/></g></g></g></svg>