<?xml version="1.0" encoding="utf-8"?>
<!-- Generator: Adobe Illustrator 16.0.0, SVG Export Plug-In . SVG Version: 6.00 Build 0)  -->
<!DOCTYPE svg PUBLIC "-//W3C//DTD SVG 1.1//EN" "http://www.w3.org/Graphics/SVG/1.1/DTD/svg11.dtd">
<svg version="1.1" id="Layer_1" xmlns="http://www.w3.org/2000/svg" xmlns:xlink="http://www.w3.org/1999/xlink" x="0px" y="0px"
	 width="468.047px" height="729.135px" viewBox="0 0 468.047 729.135" enable-background="new 0 0 468.047 729.135"
	 xml:space="preserve">
<g id="UFO_PRAWE">
	<g opacity="0.8">
		<g>
			
				<linearGradient id="SVGID_1_" gradientUnits="userSpaceOnUse" x1="571.6943" y1="79.397" x2="486.9052" y2="-467.8768" gradientTransform="matrix(1 0 0 -1 -296 344.1348)">
				<stop  offset="0" style="stop-color:#FFFFFF"/>
				<stop  offset="0.9901" style="stop-color:#231F20"/>
			</linearGradient>
			<polygon opacity="0.3" fill="url(#SVGID_1_)" points="317.403,129.749 120.524,671.672 304.771,671.672 			"/>
			<path fill="#F1F1F2" d="M304.771,671.672c0,4.021-41.246,7.278-92.124,7.278c-50.878,0-92.124-3.259-92.124-7.278
				c0-4.022,41.246-7.282,92.124-7.282C263.525,664.39,304.771,667.648,304.771,671.672z"/>
		</g>
		<ellipse fill="#666769" cx="198.695" cy="669.636" rx="43.096" ry="2.89"/>
		
			<linearGradient id="SVGID_2_" gradientUnits="userSpaceOnUse" x1="602.2314" y1="149.5342" x2="502.0264" y2="-509.5079" gradientTransform="matrix(1 0 0 -1 -296 344.1348)">
			<stop  offset="0" style="stop-color:#FFFFFF"/>
			<stop  offset="0.9951" style="stop-color:#231F20"/>
		</linearGradient>
		<polygon fill="url(#SVGID_2_)" points="304.136,166.271 257.113,475.322 316.477,169.54 		"/>
	</g>
	<g>
		
			<linearGradient id="SVGID_3_" gradientUnits="userSpaceOnUse" x1="590.1113" y1="253.6992" x2="611.789" y2="185.7762" gradientTransform="matrix(1 0 0 -1 -296 344.1348)">
			<stop  offset="0" style="stop-color:#FFFFFF"/>
			<stop  offset="1" style="stop-color:#231F20"/>
		</linearGradient>
		<path fill="url(#SVGID_3_)" d="M287.082,156.661l3.202-15.893c0,0,4.806-23.841,28.643-19.035
			c23.843,4.807,19.035,28.646,19.035,28.646l-3.204,15.892L287.082,156.661z"/>
		<polygon fill="#6D6E70" points="312.521,153.52 280.734,147.114 231.453,145.448 310.922,161.466 		"/>
		<polygon fill="#6D6E70" points="312.521,153.52 344.308,159.927 390.386,177.485 310.922,161.466 		"/>
		<polygon fill="#58595B" points="280.734,147.114 290.284,140.769 337.962,150.38 344.308,159.927 		"/>
		<polygon fill="#E6E7E8" points="231.453,145.448 268.412,158.292 351.336,175.007 390.386,177.485 		"/>
		
			<ellipse transform="matrix(0.1974 -0.9803 0.9803 0.1974 86.7039 436.7996)" fill="#FFFFFF" cx="310.119" cy="165.447" rx="1.761" ry="15.862"/>
		<g>
			<circle fill="#6D6E70" cx="295.758" cy="146.006" r="1.498"/>
			<path fill="#6D6E70" d="M305.254,146.901c-0.055,0.271-0.318,0.444-0.589,0.392l-5.872-1.184
				c-0.271-0.056-0.443-0.319-0.393-0.589l0,0c0.057-0.27,0.32-0.445,0.59-0.391l5.869,1.184
				C305.133,146.368,305.309,146.632,305.254,146.901L305.254,146.901z"/>
			<path fill="#6D6E70" d="M301.923,148.267c-0.056,0.271-0.319,0.447-0.589,0.391l-2.938-0.591
				c-0.269-0.055-0.445-0.317-0.393-0.59l0,0c0.057-0.269,0.321-0.444,0.59-0.39l2.938,0.592
				C301.801,147.733,301.977,147.996,301.923,148.267L301.923,148.267z"/>
			<path fill="#6D6E70" d="M293.111,146.492c-0.053,0.27-0.315,0.444-0.586,0.391l0,0c-0.271-0.055-0.444-0.319-0.394-0.589
				l0.396-1.956c0.055-0.271,0.318-0.446,0.59-0.392l0,0c0.271,0.055,0.443,0.319,0.392,0.589L293.111,146.492z"/>
			<circle fill="#E6E7E8" cx="312.004" cy="148.772" r="0.997"/>
			<circle fill="#E6E7E8" cx="315.919" cy="149.56" r="0.999"/>
			<circle fill="#E6E7E8" cx="319.833" cy="150.351" r="0.998"/>
		</g>
		<g>
			<path fill="#58595B" d="M318.373,159.435c-0.105,0.524-0.615,0.863-1.139,0.758l-2.374-0.478
				c-0.523-0.106-0.862-0.616-0.759-1.142l0.479-2.373c0.104-0.522,0.616-0.863,1.142-0.757l2.37,0.479
				c0.523,0.106,0.863,0.616,0.758,1.141L318.373,159.435z"/>
			<path fill="#58595B" d="M321.819,157.042c-0.041,0.196-0.232,0.325-0.431,0.285l-1.425-0.287
				c-0.19-0.039-0.322-0.232-0.282-0.427l0,0c0.04-0.198,0.23-0.323,0.429-0.285l1.421,0.287
				C321.73,156.653,321.857,156.847,321.819,157.042L321.819,157.042z"/>
			<path fill="#58595B" d="M321.531,158.466c-0.04,0.197-0.232,0.324-0.43,0.286l-1.422-0.288c-0.194-0.04-0.324-0.23-0.283-0.428
				l0,0c0.041-0.196,0.23-0.323,0.428-0.283l1.424,0.285C321.443,158.078,321.57,158.269,321.531,158.466L321.531,158.466z"/>
			<path fill="#58595B" d="M321.243,159.892c-0.039,0.196-0.229,0.321-0.427,0.282l-1.423-0.286
				c-0.197-0.041-0.325-0.231-0.284-0.427l0,0c0.039-0.196,0.23-0.323,0.427-0.285l1.424,0.286
				C321.156,159.503,321.284,159.692,321.243,159.892L321.243,159.892z"/>
			<path fill="#58595B" d="M320.956,161.313c-0.038,0.198-0.23,0.325-0.427,0.285l-1.423-0.288c-0.197-0.039-0.323-0.23-0.283-0.428
				l0,0c0.04-0.195,0.229-0.323,0.427-0.283l1.424,0.287C320.869,160.925,320.997,161.116,320.956,161.313L320.956,161.313z"/>
			<path fill="#58595B" d="M333.773,160.192c-0.117,0.592-0.692,0.973-1.28,0.854c-0.592-0.12-0.974-0.694-0.854-1.282
				c0.117-0.592,0.693-0.973,1.281-0.854C333.511,159.03,333.893,159.604,333.773,160.192z"/>
			<circle fill="#58595B" cx="330.716" cy="158.837" r="0.363"/>
		</g>
		
			<rect x="289.889" y="144.734" transform="matrix(-0.9803 -0.1976 0.1976 -0.9803 593.5398 349.5499)" fill="#6D6E70" width="48.641" height="0.856"/>
		
			<rect x="305.188" y="143.991" transform="matrix(-0.9803 -0.1976 0.1976 -0.9803 593.7722 348.7903)" fill="#6D6E70" width="18.2" height="1.561"/>
		<g>
			<path fill="#6D6E70" d="M311.564,139.669c0,0-1.204-0.242-0.962-1.444l0.485-2.402c0,0,0.241-1.2,1.443-0.957l7.206,1.452
				c0,0,1.202,0.241,0.961,1.443l-0.485,2.401c0,0-0.243,1.2-1.441,0.959L311.564,139.669z"/>
			<path fill="#58595B" d="M312.038,143.514l0.242-1.2c0,0,0.243-1.201,1.441-0.959l2.403,0.484c0,0,1.202,0.241,0.956,1.443
				l-0.239,1.201L312.038,143.514z"/>
			
				<rect x="313.819" y="140.395" transform="matrix(-0.9803 -0.1976 0.1976 -0.9803 596.0199 341.4789)" fill="#58595B" width="2.452" height="1.225"/>
			
				<ellipse transform="matrix(0.1971 -0.9804 0.9804 0.1971 116.3522 416.8093)" fill="#E6E7E8" cx="312.643" cy="137.37" rx="1.224" ry="0.614"/>
			
				<ellipse transform="matrix(0.1977 -0.9803 0.9803 0.1977 119.4291 422.8768)" fill="#E6E7E8" cx="318.05" cy="138.479" rx="1.225" ry="0.613"/>
		</g>
	</g>
	<g id="KROWA">
		<path fill="#E6E7E8" d="M259.639,594.198l-13.879-6.523c0,0-15.42-1.392-15.508-1.188c-0.084,0.203-16.502-7.233-16.502-7.233
			l-15.756-1.929l-6.604,6.762l0.996,10.898l3.873,14.979l8.478,4.135l6.035-3.013l7.194,4.409l27.614,6.702l10.186-2.717
			l2.188-3.95l7.582-6.393L259.639,594.198z"/>
		<path fill="#E6E7E8" d="M241.791,616.533l-6.966,12.127l-1.807,9.112l-1.004,5.064l-3.038-0.604c0,0-0.886-4.385-0.413-4.992
			c0.471-0.607,3.86-12.392,3.86-12.392l2.078-8.71L241.791,616.533z"/>
		<polygon fill="#E6E7E8" points="204.323,609.105 199.613,618.695 200.172,630.032 202.339,634.145 199.386,634.438 
			195.823,631.626 196.41,619.814 193.934,611.956 197.292,601.219 		"/>
		<polygon fill="#E6E7E8" points="248.205,617.807 241.757,626.438 241.076,634.285 242.639,637.927 240.95,638.471 
			237.398,634.256 239.509,623.621 242.127,614.846 		"/>
		<polygon fill="#E6E7E8" points="272.061,595.691 277.307,593.398 277.843,590.698 276.004,592.614 267.331,593.403 
			259.34,590.251 259.559,586.201 257.113,590.57 265.414,595.602 		"/>
		<polygon fill="#1F1F20" points="251.82,590.523 243.406,593.753 237.365,589.195 239.262,588.093 236.672,586.892 245.76,587.675 
					"/>
		<path fill="#1F1F20" d="M259.639,594.198c0,0,4.471,8.841,4.271,9.284c-0.2,0.444-9.912,10.369-9.912,10.369l-11.938-11.132
			l6.905-7.371l6.347-1.557L259.639,594.198z"/>
		<polygon fill="#1F1F20" points="229.474,593.094 230.759,601.15 224.373,605.347 228.895,613.98 222.162,613.05 207.978,597.281 
			213.326,589.126 226.802,590.489 		"/>
		<polygon fill="#1F1F20" points="222.562,583.209 213.207,585.472 203.647,578.123 213.75,579.253 		"/>
		<polygon fill="#1F1F20" points="203.36,585.429 204.345,591.894 193.417,598.972 192.271,593.717 196.723,583.524 		"/>
		<path fill="#1F1F20" d="M272.688,597.711l4.369-0.672l2.807,3.538l-3.34,1.794c0,0-5.821-1.857-4.348-2.088
			C273.65,600.049,272.688,597.711,272.688,597.711z"/>
		<polygon fill="#E6E7E8" points="271.995,596.035 273.65,600.049 272.917,603.762 270.964,607.409 271.553,615.067 
			267.743,617.469 264.029,616.732 259.427,608.104 259.952,600.137 257.389,599.805 255.592,594.711 261.527,593.96 
			264.631,592.471 		"/>
	</g>
	<g id="KOMPUTERY">
		<path fill="none" stroke="#6D6E70" stroke-width="0.7226" stroke-miterlimit="10" d="M203.134,543.734
			c-7.151-0.928-16.935-2.618-19.622-10.506c-3.239-9.51,2.813-19.747,11.588-23.565c7.09-3.084,16.029-0.729,23.197,0.994
			c6.957,1.671,14.054,5.171,20.109-0.271c8.996-8.083,5.891-20.856,1.271-30.548c-3.205-6.729-7.861-12.616-12.454-18.427
			c-1.717-2.173-4.946-4.865-5.464-7.604"/>
		<polygon fill="#58595B" points="246.773,520.282 253.366,531.126 266.846,519.078 260.641,509.479 		"/>
		<polygon fill="#1F1F20" points="263.716,532.139 253.366,531.126 266.846,519.078 276.909,518.414 		"/>
		<polygon fill="#F1F1F2" points="248.236,520.634 253.541,529.503 265.626,518.755 260.688,510.824 		"/>
		<polygon fill="#58595B" points="268.418,523.528 265.157,526.858 267.539,526.837 270.93,523.508 		"/>
		<polygon fill="#58595B" points="246.895,492.75 228.425,500.479 234.367,504.793 250.871,495.721 		"/>
		<g>
			<polygon fill="#58595B" points="220.401,449.242 217.206,462.518 243.367,462.518 246.076,447.104 			"/>
			<polygon fill="#58595B" points="229.48,455.854 227.309,467.657 233.467,467.657 234.24,455.854 			"/>
			<polygon fill="#1F1F20" points="223.614,466.132 235.818,466.132 237.426,469.184 225.24,469.184 			"/>
			<polygon fill="#F1F1F2" points="221.501,450.308 218.676,461.496 242.223,461.141 244.369,448.203 			"/>
		</g>
		<g>
			<polygon fill="#58595B" points="192.271,523.508 186.272,529.503 199.129,549.115 217.368,552.969 225.775,544.297 
				213.104,522.618 			"/>
			<polygon fill="#1F1F20" points="186.272,529.503 206.024,531.126 217.368,552.969 199.129,549.115 			"/>
			<polygon fill="#1F1F20" points="213.852,525.869 207.845,531.743 209.114,534.54 215.176,528.278 			"/>
		</g>
	</g>
</g>
</svg>
