<?xml version="1.0" encoding="utf-8"?>
<!-- Generator: Adobe Illustrator 16.0.0, SVG Export Plug-In . SVG Version: 6.00 Build 0)  -->
<!DOCTYPE svg PUBLIC "-//W3C//DTD SVG 1.1//EN" "http://www.w3.org/Graphics/SVG/1.1/DTD/svg11.dtd">
<svg version="1.1" id="Layer_1" xmlns="http://www.w3.org/2000/svg" xmlns:xlink="http://www.w3.org/1999/xlink" x="0px" y="0px"
	 width="314px" height="524px" viewBox="0 0 314 524" enable-background="new 0 0 314 524" xml:space="preserve">
<g>
	<polyline fill="#1F1F20" points="154.58,219.284 154.456,219.472 149.803,226.48 150.672,234.483 153.277,235.413 157.991,223.564 
		157.682,219.284 	"/>
	<polygon fill="#A6A8AB" points="136.732,193.475 136.343,198.939 139.257,199.497 140.127,193.914 	"/>
	<polygon fill="#A6A8AB" points="153.897,216.618 154.27,222.325 156.875,222.697 156.875,216.618 	"/>
	<polygon fill="#1F1F20" points="177.37,130.206 156.372,155.691 137.823,164.874 135.665,192.681 140.478,196.261 146.034,171.118 
		158.902,174.1 149.736,199.59 153.089,219.348 157.331,220.873 159.043,196.731 191.402,151.854 202.841,166.681 198.891,145.274 
		189.615,137.149 202.105,124.214 192.076,120.606 182.701,133.355 	"/>
	<polygon fill="#F1F1F2" points="192.173,119.783 182.867,131.508 188.699,135.602 194.406,129.833 202.105,124.214 	"/>
	<polygon fill="#A6A8AB" points="189.468,123.192 195.336,127.413 192.4,129.151 190.313,125.614 187.469,125.712 	"/>
	<polygon fill="#F1F1F2" points="180.833,132.253 163.514,158.555 168.887,164.262 193.355,140.427 	"/>
	<polygon fill="#1F1F20" points="194.84,155.018 201.725,166.371 195.396,177.475 200.67,181.196 208.176,165.44 198.891,145.274 	
		"/>
	<polygon fill="#1F1F20" points="175.111,169.781 183.238,173.441 191.924,149.808 	"/>
	<polygon fill="#1F1F20" points="183.238,135.106 181.813,136.222 183.52,138.146 184.79,136.284 	"/>
	<polygon fill="#1F1F20" points="182.338,136.815 172.816,150.614 171.329,158.987 174.121,160.601 176.354,157.871 175.796,150.8 
		183.301,137.525 	"/>
	<polygon fill="#1F1F20" points="136.343,197.388 127.595,206.756 129.271,209.299 140.933,201.42 139.475,198.098 	"/>
	<polygon fill="#1F1F20" points="177.37,130.206 166.677,119.783 164.352,103.222 160.441,104.802 160.441,125.74 174.493,136.626 	
		"/>
	<polygon fill="#F1F1F2" points="161.527,106.075 160.908,102.476 158.859,99.932 158.427,92.179 162.148,91.745 164.07,97.079 
		166.305,95.591 166.925,96.955 163.947,101.236 163.947,105.455 	"/>
	<polygon fill="#F1F1F2" points="196.887,177.909 195.336,180.266 192.488,181.755 192.488,183.555 194.84,183.431 196.143,190.936 
		200.918,191.928 200.051,181.755 200.918,177.909 	"/>
</g>
<g id="KAPELUSZ">
	<polygon fill="#1F1F20" points="155.442,36.688 161.589,30.832 164.896,34.482 168.021,34.617 165.484,43.304 160.202,41.661 	"/>
	<polygon fill="#1F1F20" points="161.975,37.988 154.7,33.338 151.258,33.893 160.363,44.228 169.393,45.076 169.35,42.602 	"/>
</g>
</svg>
