<?xml version="1.0" encoding="utf-8"?>
<!-- Generator: Adobe Illustrator 16.0.0, SVG Export Plug-In . SVG Version: 6.00 Build 0)  -->
<!DOCTYPE svg PUBLIC "-//W3C//DTD SVG 1.1//EN" "http://www.w3.org/Graphics/SVG/1.1/DTD/svg11.dtd">
<svg version="1.1" id="Layer_3" xmlns="http://www.w3.org/2000/svg" xmlns:xlink="http://www.w3.org/1999/xlink" x="0px" y="0px"
	 width="336px" height="297.641px" viewBox="0 0 336 297.641" enable-background="new 0 0 336 297.641" xml:space="preserve">
<g>
	<g>
		<path opacity="0.3" fill="none" stroke="#FFFFFF" stroke-width="0.8159" stroke-miterlimit="10" d="M27.554,64.242V34.871
			c0,0,0-7.343,7.342-7.343h66.086c0,0,7.344,0,7.344,7.343v29.371c0,0,0,7.343-7.344,7.343H34.896
			C34.896,71.585,27.554,71.585,27.554,64.242z"/>
		<g>
			<path fill="#FFFFFF" d="M34.896,59.993c0,0,0-4.251,4.25-4.251h12.751c0,0,4.25,0,4.25,4.251v2.124H34.896V59.993z"/>
			
				<path fill="none" stroke="#0B395A" stroke-width="0.7084" stroke-linecap="round" stroke-linejoin="round" stroke-miterlimit="10" d="
				M43.397,55.742c0,0,0,2.125,2.124,2.125c2.126,0,2.126-2.125,2.126-2.125"/>
			<path fill="#D0D1D2" d="M43.397,51.492v4.25c0,0,0,2.125,2.124,2.125c2.126,0,2.126-2.125,2.126-2.125v-4.25H43.397z"/>
			<path fill="#FFFFFF" d="M39.146,42.991v8.501c0,0,0,2.125,2.125,2.125h8.501c0,0,2.125,0,2.125-2.125v-8.501H39.146z"/>
			<path fill="#FFFFFF" d="M39.146,45.116c0,0-2.125-4.249,0-6.375c0,0-2.125-2.124,4.251-4.25c0,0,0,0-2.126,2.126
				c0,0,6.376-4.251,12.751,0c0,0-2.125,2.124-4.25,2.124v6.375H39.146z"/>
			<rect x="47.647" y="36.617" fill="#FFFFFF" width="4.25" height="8.499"/>
			<path fill="#FFFFFF" d="M39.146,49.367c0,0-2.125,0-2.125-2.124v-2.127c0,0,0-2.125,2.125-2.125V49.367z"/>
			<path fill="#FFFFFF" d="M51.897,42.991c0,0,2.125,0,2.125,2.125v2.127c0,0,0,2.124-2.125,2.124V42.991z"/>
			
				<path fill="none" stroke="#0B395A" stroke-width="0.7084" stroke-linecap="round" stroke-linejoin="round" stroke-miterlimit="10" d="
				M41.271,49.367c0,0,0,2.125,4.25,2.125c4.251,0,4.251-2.125,4.251-2.125"/>
			<path fill="#0B395A" d="M42.333,46.71c0,0,0,0.533,0.532,0.533c0,0,0.531,0,0.531-0.533v-1.594c0,0,0-0.531-0.531-0.531
				c-0.532,0-0.532,0.531-0.532,0.531V46.71z"/>
			<path fill="#0B395A" d="M47.647,46.71c0,0,0,0.533,0.531,0.533c0,0,0.531,0,0.531-0.533v-1.594c0,0,0-0.531-0.531-0.531
				s-0.531,0.531-0.531,0.531V46.71z"/>
			<path fill="#FFFFFF" d="M34.896,59.993v2.124c0,0,0,2.125,2.125,2.125h17.001c0,0,2.125,0,2.125-2.125v-2.124H34.896z"/>
		</g>
		<g>
			<rect x="64.268" y="34.871" fill="#FFFFFF" width="11.748" height="4.406"/>
			<rect x="77.485" y="34.871" fill="#FFFFFF" width="22.029" height="4.406"/>
			<rect x="64.268" y="42.213" fill="#FFFFFF" width="2.937" height="1.47"/>
			<rect x="68.673" y="42.213" fill="#FFFFFF" width="8.812" height="1.47"/>
			<rect x="78.953" y="42.213" fill="#FFFFFF" width="5.875" height="1.47"/>
			<rect x="64.268" y="62.774" fill="#FFFFFF" width="2.937" height="1.468"/>
			<rect x="68.673" y="62.774" fill="#FFFFFF" width="8.812" height="1.468"/>
			<rect x="78.953" y="62.774" fill="#FFFFFF" width="5.875" height="1.468"/>
			<rect x="86.296" y="42.213" fill="#FFFFFF" width="4.405" height="1.47"/>
			<rect x="64.268" y="45.151" fill="#FFFFFF" width="8.811" height="1.469"/>
			<rect x="74.548" y="45.151" fill="#FFFFFF" width="5.873" height="1.469"/>
			<rect x="81.89" y="45.151" fill="#FFFFFF" width="5.875" height="1.469"/>
			<rect x="64.268" y="48.088" fill="#FFFFFF" width="5.874" height="1.469"/>
			<rect x="71.611" y="48.088" fill="#FFFFFF" width="14.686" height="1.469"/>
		</g>
	</g>
	<g>
		<g>
			<path fill="#FFFFFF" d="M47.647,117.502h-2.126h-2.124c-8.501,0-8.501,14.875-8.501,14.875h4.25h6.375h6.377h4.249
				C56.147,132.377,56.147,117.502,47.647,117.502z"/>
			<path fill="#FFFFFF" d="M34.896,139.696c0,0,0-4.249,4.25-4.249h12.752c0,0,4.249,0,4.249,4.249v2.126H34.896V139.696z"/>
			
				<path fill="none" stroke="#0B395A" stroke-width="0.7084" stroke-linecap="round" stroke-linejoin="round" stroke-miterlimit="10" d="
				M43.397,135.447c0,0,0,2.125,2.124,2.125c2.126,0,2.126-2.125,2.126-2.125"/>
			<path fill="#D0D1D2" d="M43.397,132.377v3.07c0,0,0,2.125,2.124,2.125c2.126,0,2.126-2.125,2.126-2.125v-3.07H43.397z"/>
			<path fill="#FFFFFF" d="M39.777,123.877v8.5c0,0,0,2.126,1.914,2.126h7.661c0,0,1.915,0,1.915-2.126v-8.5H39.777z"/>
			<rect x="39.146" y="119.627" fill="#FFFFFF" width="12.752" height="6.374"/>
			<path fill="#FFFFFF" d="M39.146,130.252c0,0-2.125,0-2.125-2.125v-2.126c0,0,0-2.124,2.125-2.124V130.252z"/>
			<path fill="#FFFFFF" d="M51.898,123.877c0,0,2.124,0,2.124,2.124v2.126c0,0,0,2.125-2.124,2.125V123.877z"/>
			
				<path fill="none" stroke="#0B395A" stroke-width="0.7084" stroke-linecap="round" stroke-linejoin="round" stroke-miterlimit="10" d="
				M41.272,130.252c0,0,0,2.125,4.249,2.125c4.251,0,4.251-2.125,4.251-2.125"/>
			<path fill="#0B395A" d="M42.334,127.595c0,0,0,0.531,0.531,0.531c0,0,0.532,0,0.532-0.531v-1.595c0,0,0-0.531-0.532-0.531
				c-0.531,0-0.531,0.531-0.531,0.531V127.595z"/>
			<path fill="#0B395A" d="M47.647,127.595c0,0,0,0.531,0.53,0.531c0,0,0.531,0,0.531-0.531v-1.595c0,0,0-0.531-0.531-0.531
				c-0.53,0-0.53,0.531-0.53,0.531V127.595z"/>
			<path fill="#FFFFFF" d="M34.896,139.696v2.126c0,0,0,2.125,2.125,2.125h17.001c0,0,2.125,0,2.125-2.125v-2.126H34.896z"/>
		</g>
		<path opacity="0.3" fill="none" stroke="#FFFFFF" stroke-width="0.8159" stroke-miterlimit="10" d="M27.555,143.947v-29.371
			c0,0,0-7.343,7.342-7.343h66.086c0,0,7.344,0,7.344,7.343v29.371c0,0,0,7.343-7.344,7.343H34.896
			C34.896,151.29,27.555,151.29,27.555,143.947z"/>
		<g>
			<rect x="64.268" y="114.576" fill="#FFFFFF" width="11.749" height="4.406"/>
			<rect x="77.485" y="114.576" fill="#FFFFFF" width="22.028" height="4.406"/>
			<rect x="64.268" y="121.918" fill="#FFFFFF" width="2.938" height="1.47"/>
			<rect x="68.674" y="121.918" fill="#FFFFFF" width="8.812" height="1.47"/>
			<rect x="78.955" y="121.918" fill="#FFFFFF" width="5.873" height="1.47"/>
			<rect x="64.268" y="142.478" fill="#FFFFFF" width="2.938" height="1.469"/>
			<rect x="68.674" y="142.478" fill="#FFFFFF" width="8.812" height="1.469"/>
			<rect x="78.955" y="142.478" fill="#FFFFFF" width="5.873" height="1.469"/>
			<rect x="86.297" y="121.918" fill="#FFFFFF" width="4.405" height="1.47"/>
			<rect x="64.268" y="124.855" fill="#FFFFFF" width="8.813" height="1.47"/>
			<rect x="74.548" y="124.855" fill="#FFFFFF" width="5.874" height="1.47"/>
			<rect x="81.891" y="124.855" fill="#FFFFFF" width="5.875" height="1.47"/>
			<rect x="64.268" y="127.793" fill="#FFFFFF" width="5.875" height="1.469"/>
			<rect x="71.611" y="127.793" fill="#FFFFFF" width="14.686" height="1.469"/>
		</g>
	</g>
	<g>
		<path opacity="0.3" fill="none" stroke="#FFFFFF" stroke-width="0.8159" stroke-miterlimit="10" d="M76.741,102.757V73.385
			c0,0,0-7.342,7.344-7.342h66.086c0,0,7.342,0,7.342,7.342v29.372c0,0,0,7.343-7.342,7.343H84.085
			C84.085,110.099,76.741,110.099,76.741,102.757z"/>
		<g>
			<rect x="113.456" y="73.385" fill="#FFFFFF" width="11.748" height="4.407"/>
			<rect x="126.674" y="73.385" fill="#FFFFFF" width="22.028" height="4.407"/>
			<rect x="113.456" y="80.728" fill="#FFFFFF" width="2.938" height="1.469"/>
			<rect x="117.862" y="80.728" fill="#FFFFFF" width="8.812" height="1.469"/>
			<rect x="128.142" y="80.728" fill="#FFFFFF" width="5.875" height="1.469"/>
			<rect x="113.456" y="101.289" fill="#FFFFFF" width="2.938" height="1.468"/>
			<rect x="117.862" y="101.289" fill="#FFFFFF" width="8.812" height="1.468"/>
			<rect x="128.142" y="101.289" fill="#FFFFFF" width="5.875" height="1.468"/>
			<rect x="135.485" y="80.728" fill="#FFFFFF" width="4.404" height="1.469"/>
			<rect x="113.456" y="83.666" fill="#FFFFFF" width="8.813" height="1.468"/>
			<rect x="123.736" y="83.666" fill="#FFFFFF" width="5.874" height="1.468"/>
			<rect x="131.079" y="83.666" fill="#FFFFFF" width="5.874" height="1.468"/>
			<rect x="113.456" y="86.602" fill="#FFFFFF" width="5.875" height="1.469"/>
			<rect x="120.799" y="86.602" fill="#FFFFFF" width="14.687" height="1.469"/>
		</g>
		<g>
			<path fill="#FFFFFF" d="M84.711,99.133c0,0,0-4.25,4.251-4.25h12.75c0,0,4.25,0,4.25,4.25v2.126H84.711V99.133z"/>
			
				<path fill="none" stroke="#0B395A" stroke-width="0.7084" stroke-linecap="round" stroke-linejoin="round" stroke-miterlimit="10" d="
				M93.212,94.883c0,0,0,2.125,2.125,2.125s2.125-2.125,2.125-2.125"/>
			<path fill="#D0D1D2" d="M93.212,90.632v4.251c0,0,0,2.125,2.125,2.125s2.125-2.125,2.125-2.125v-4.251H93.212z"/>
			<path fill="#FFFFFF" d="M88.962,82.133v8.499c0,0,0,2.125,2.125,2.125h8.5c0,0,2.125,0,2.125-2.125v-8.499H88.962z"/>
			<rect x="88.962" y="77.882" fill="#FFFFFF" width="12.75" height="6.375"/>
			<path fill="#FFFFFF" d="M88.962,88.507c0,0-2.125,0-2.125-2.124v-2.126c0,0,0-2.124,2.125-2.124V88.507z"/>
			<path fill="#FFFFFF" d="M101.712,82.133c0,0,2.125,0,2.125,2.124v2.126c0,0,0,2.124-2.125,2.124V82.133z"/>
			<path fill="#0B395A" d="M99.056,89.29c0,0,0,1.859-3.719,1.859c-3.72,0-3.72-1.859-3.72-1.859H99.056z"/>
			<g>
				<path fill="#0B395A" d="M92.149,85.851c0,0,0,0.531,0.531,0.531c0,0,0.531,0,0.531-0.531v-0.887c0,0,0-0.53-0.531-0.53
					s-0.531,0.53-0.531,0.53V85.851z"/>
				<path fill="#0B395A" d="M97.462,85.851c0,0,0,0.531,0.531,0.531c0,0,0.531,0,0.531-0.531v-0.887c0,0,0-0.53-0.531-0.53
					s-0.531,0.53-0.531,0.53V85.851z"/>
			</g>
			<path fill="#FFFFFF" d="M84.711,99.133v2.126c0,0,0,2.125,2.126,2.125h17c0,0,2.125,0,2.125-2.125v-2.126H84.711z"/>
			<path fill="#FFFFFF" d="M88.962,77.882c0,0,0-2.125,2.125-2.125s8.5,0,8.5,0s2.125,0,2.125,2.125v2.125h-12.75V77.882z"/>
			
				<circle fill="none" stroke="#0B395A" stroke-width="0.4722" stroke-linecap="round" stroke-linejoin="round" stroke-miterlimit="10" cx="92.503" cy="84.965" r="2.125"/>
			
				<circle fill="none" stroke="#0B395A" stroke-width="0.4722" stroke-linecap="round" stroke-linejoin="round" stroke-miterlimit="10" cx="97.935" cy="84.965" r="2.125"/>
			
				<line fill="none" stroke="#0B395A" stroke-width="0.4722" stroke-linecap="round" stroke-linejoin="round" stroke-miterlimit="10" x1="94.504" y1="84.257" x2="95.933" y2="84.257"/>
		</g>
	</g>
	<g>
		<rect x="13.94" y="139" fill="#FFFFFF" width="144" height="82"/>
		<polygon fill="#E6E7E8" points="157.94,139 85.94,221 157.94,221 		"/>
		<g>
			<path fill="#1B75BB" d="M51.193,189.664c-4.325,0.001-7.833-3.504-7.835-7.829c-0.001-4.327,3.504-7.834,7.83-7.835
				c4.326-0.002,7.833,3.503,7.835,7.829c0,0.003,0,0.006,0,0.008C59.016,186.157,55.514,189.658,51.193,189.664z M51.193,175.093
				c-3.723-0.001-6.742,3.016-6.744,6.739c-0.001,3.723,3.016,6.742,6.739,6.743c3.723,0.002,6.742-3.015,6.744-6.738
				c-0.001-3.723-3.016-6.741-6.739-6.746V175.093z"/>
			<path fill="#1B75BB" d="M51.193,195.021c-7.28-0.007-13.18-5.904-13.19-13.185c0-1.119,0.907-2.027,2.026-2.027
				s2.026,0.908,2.026,2.027c0,5.046,4.091,9.137,9.137,9.137c5.046,0,9.137-4.091,9.137-9.137
				c-0.069-1.116,0.779-2.078,1.895-2.147c1.117-0.069,2.078,0.778,2.148,1.895c0.005,0.085,0.005,0.17,0,0.253
				C64.362,189.113,58.469,195.009,51.193,195.021z"/>
			<path fill="#1B75BB" d="M45.922,181.837c0,2.911,2.36,5.271,5.271,5.271c2.912,0,5.271-2.359,5.271-5.271H45.922z"/>
			<path fill="#1B75BB" d="M139.472,191.15c0.004-0.662,0.545-1.195,1.207-1.191c0.662,0.005,1.195,0.545,1.191,1.208
				c-0.004,0.659-0.54,1.19-1.199,1.19c-0.656,0.006-1.193-0.521-1.199-1.178C139.472,191.17,139.472,191.159,139.472,191.15z
				 M139.666,191.15c-0.001,0.555,0.447,1.006,1.002,1.008c0.556,0.001,1.007-0.447,1.008-1.003
				c0.001-0.555-0.447-1.005-1.003-1.007c0,0-0.001,0-0.002,0c-0.554-0.001-1.004,0.446-1.005,0.999V191.15z M141.218,191.832
				h-0.221l-0.35-0.621h-0.25v0.621h-0.195v-1.347h0.566c0.244,0,0.463,0.073,0.463,0.355c0.015,0.188-0.126,0.352-0.314,0.366
				c-0.016,0.002-0.031,0.002-0.047,0.001L141.218,191.832z M140.403,190.679v0.336h0.207c0.182,0,0.432,0.032,0.432-0.152
				c0-0.184-0.143-0.184-0.305-0.184H140.403L140.403,190.679z"/>
			<rect x="74.313" y="177.431" fill="#1B75BB" width="3.729" height="2.235"/>
			<rect x="74.313" y="181.605" fill="#1B75BB" width="3.729" height="10.739"/>
			<rect x="68.794" y="177.431" fill="#1B75BB" width="3.729" height="14.913"/>
			<path fill="#1B75BB" d="M92.755,190.516c-1.375,0.038-2.521-1.046-2.559-2.421c-0.001-0.039-0.001-0.079-0.001-0.117v-0.303
				h8.632c-0.031-1.891-0.639-3.485-1.77-4.624s-2.719-1.74-4.607-1.74c-3.617,0-6.145,2.367-6.145,5.785
				c0,3.42,2.42,5.559,6.165,5.559c1.409,0,4.698-0.301,5.817-2.979h-3.752C94.114,190.229,93.449,190.543,92.755,190.516z
				 M90.195,185.69c0-1.404,0.929-2.277,2.429-2.277c1.254,0.025,2.27,1.023,2.316,2.277v0.313h-4.734v-0.302L90.195,185.69z"/>
			<polygon fill="#1B75BB" points="116.534,184.254 122.103,184.254 116.534,189.664 116.534,192.347 126.503,192.347 
				126.503,189.664 121.157,189.664 126.544,184.254 126.55,181.605 116.539,181.605 			"/>
			<rect x="111.415" y="177.431" fill="#1B75BB" width="3.73" height="2.237"/>
			<rect x="111.415" y="181.605" fill="#1B75BB" width="3.73" height="10.739"/>
			<path fill="#1B75BB" d="M133.588,190.516c-1.371,0.031-2.507-1.056-2.538-2.426c-0.001-0.038-0.001-0.076,0-0.112v-0.303h8.571
				c-0.026-1.893-0.636-3.485-1.757-4.627c-1.12-1.141-2.706-1.737-4.582-1.737c-3.59,0-6.096,2.367-6.096,5.785
				c0,3.42,2.414,5.545,6.12,5.545c1.399,0,4.661-0.3,5.771-2.978h-3.725C134.94,190.22,134.28,190.54,133.588,190.516z
				 M131.05,185.69c0-1.404,0.924-2.277,2.409-2.277c1.251,0.023,2.264,1.025,2.302,2.277v0.313h-4.708v-0.302L131.05,185.69z"/>
			<path fill="#1B75BB" d="M105.79,185.65c-1.441-0.305-2.58-0.544-2.58-1.394c0-0.416,0.207-1.113,1.607-1.113
				c0.399-0.012,0.791,0.111,1.111,0.351c0.239,0.192,0.412,0.454,0.495,0.75h3.511c-0.323-1.976-2.078-2.933-5.32-2.933
				c-0.853,0-5.103,0.165-5.103,3.418c0,2.409,2.325,2.865,4.38,3.268c1.414,0.276,2.63,0.525,2.63,1.482
				c0,0.834-0.658,1.332-1.763,1.332c-0.471,0.009-0.933-0.135-1.315-0.41c-0.247-0.187-0.431-0.443-0.525-0.737h-3.683
				c0.582,2.58,3.564,2.978,5.34,2.978c3.771,0,5.846-1.291,5.846-3.638C110.421,186.658,107.865,186.087,105.79,185.65z"/>
			<path fill="#1B75BB" d="M86.361,177.132h-1.657c-2.933,0-4.243,0.623-4.243,4.326v0.147h-1.557v2.104h1.536v8.648h3.984v-8.634
				h1.938v-2.105h-1.951v-0.526c0-0.67,0.11-1.074,0.371-1.344c0.342-0.352,0.847-0.396,1.578-0.402V177.132L86.361,177.132z"/>
		</g>
		<path fill="#0B395A" d="M103.94,152.5c0,2.485-2.015,4.5-4.5,4.5h-27c-2.485,0-4.5-2.015-4.5-4.5l0,0c0-2.485,2.015-4.5,4.5-4.5
			h27C101.926,148,103.94,150.014,103.94,152.5L103.94,152.5z"/>
	</g>
	<g>
		<g>
			<polygon fill="#F05543" points="215.12,109.666 213.015,107.559 210.907,109.666 208.8,107.559 206.692,109.666 204.585,107.559 
				202.478,109.666 200.372,107.559 198.265,109.666 196.157,107.559 194.05,109.666 191.942,107.559 189.837,109.666 
				187.729,107.559 185.622,109.666 183.515,107.559 183.515,124.416 183.515,158.129 183.515,174.985 185.622,172.878 
				187.729,174.985 189.837,172.878 191.942,174.985 194.05,172.878 196.157,174.985 198.265,172.878 200.372,174.985 
				202.478,172.878 204.585,174.985 206.692,172.878 208.8,174.985 210.907,172.878 213.015,174.985 215.12,172.878 
				217.228,174.985 217.228,158.129 217.228,124.416 217.228,107.559 			"/>
			<g>
				<path fill="#FFFFFF" d="M217.228,139.225"/>
				<rect x="187.261" y="115.987" fill="#FFFFFF" width="13.318" height="1.665"/>
				<rect x="207.239" y="115.987" fill="#FFFFFF" width="3.328" height="1.665"/>
				<g>
					<rect x="187.261" y="160.209" fill="#FFFFFF" width="13.318" height="1.665"/>
					<rect x="207.239" y="160.209" fill="#FFFFFF" width="3.328" height="1.665"/>
				</g>
				<rect x="187.261" y="120.187" fill="#FFFFFF" width="9.99" height="1.666"/>
				<rect x="207.239" y="120.109" fill="#FFFFFF" width="4.994" height="1.665"/>
				<rect x="187.261" y="124.388" fill="#FFFFFF" width="11.654" height="1.666"/>
				<rect x="207.239" y="124.289" fill="#FFFFFF" width="3.328" height="1.665"/>
				<g>
					<rect x="187.261" y="128.591" fill="#FFFFFF" width="4.994" height="1.665"/>
					<rect x="193.921" y="128.591" fill="#FFFFFF" width="8.324" height="1.665"/>
				</g>
				<rect x="207.239" y="128.592" fill="#FFFFFF" width="3.328" height="1.664"/>
				<rect x="187.261" y="132.791" fill="#FFFFFF" width="11.654" height="1.666"/>
				<rect x="207.239" y="132.791" fill="#FFFFFF" width="4.994" height="1.665"/>
				<rect x="187.261" y="136.993" fill="#FFFFFF" width="6.66" height="1.664"/>
				<rect x="207.239" y="136.993" fill="#FFFFFF" width="3.328" height="1.664"/>
				<rect x="187.261" y="141.193" fill="#FFFFFF" width="11.654" height="1.664"/>
				<rect x="207.239" y="141.193" fill="#FFFFFF" width="4.994" height="1.664"/>
				<g>
					<rect x="187.261" y="145.394" fill="#FFFFFF" width="4.994" height="1.665"/>
					<rect x="193.921" y="145.394" fill="#FFFFFF" width="6.658" height="1.665"/>
				</g>
				<rect x="207.239" y="145.394" fill="#FFFFFF" width="4.994" height="1.665"/>
				<rect x="187.261" y="149.595" fill="#FFFFFF" width="8.324" height="1.665"/>
				<rect x="207.239" y="149.595" fill="#FFFFFF" width="3.328" height="1.665"/>
				
					<line fill="none" stroke="#FFFFFF" stroke-width="0.7024" stroke-miterlimit="10" x1="185.388" y1="156.568" x2="215.354" y2="156.568"/>
			</g>
		</g>
		<g>
			<polygon fill="#F05543" points="258.322,145.196 256.215,143.09 254.107,145.196 252,143.09 249.895,145.196 247.787,143.09 
				245.68,145.196 243.572,143.09 241.465,145.196 239.357,143.09 237.252,145.196 235.145,143.09 233.037,145.196 230.93,143.09 
				228.822,145.196 226.717,143.09 226.717,159.946 226.717,193.659 226.717,229.247 228.822,227.139 230.93,229.247 
				233.037,227.139 235.145,229.247 237.252,227.139 239.357,229.247 241.465,227.139 243.572,229.247 245.68,227.139 
				247.787,229.247 249.895,227.139 252,229.247 254.107,227.139 256.215,229.247 258.322,227.139 260.43,229.247 260.43,193.659 
				260.43,159.946 260.43,143.09 			"/>
			<g>
				<path fill="#FFFFFF" d="M260.43,193.487"/>
				<rect x="230.461" y="170.249" fill="#FFFFFF" width="13.32" height="1.664"/>
				<rect x="250.439" y="170.249" fill="#FFFFFF" width="3.33" height="1.664"/>
				<g>
					<rect x="230.461" y="214.47" fill="#FFFFFF" width="13.32" height="1.664"/>
					<rect x="250.439" y="214.47" fill="#FFFFFF" width="3.33" height="1.664"/>
				</g>
				<rect x="230.461" y="174.449" fill="#FFFFFF" width="9.99" height="1.665"/>
				<rect x="250.439" y="174.371" fill="#FFFFFF" width="4.996" height="1.665"/>
				<rect x="230.461" y="178.65" fill="#FFFFFF" width="11.654" height="1.666"/>
				<rect x="250.439" y="178.55" fill="#FFFFFF" width="3.33" height="1.666"/>
				<g>
					<rect x="230.461" y="182.852" fill="#FFFFFF" width="4.996" height="1.665"/>
					<rect x="237.121" y="182.852" fill="#FFFFFF" width="8.324" height="1.665"/>
				</g>
				<rect x="250.439" y="182.852" fill="#FFFFFF" width="3.33" height="1.665"/>
				<rect x="230.461" y="187.052" fill="#FFFFFF" width="11.654" height="1.666"/>
				<rect x="250.439" y="187.052" fill="#FFFFFF" width="4.996" height="1.665"/>
				<rect x="230.461" y="149.229" fill="#FFFFFF" width="13.32" height="1.664"/>
				<rect x="250.439" y="149.229" fill="#FFFFFF" width="3.33" height="1.664"/>
				<rect x="230.461" y="153.429" fill="#FFFFFF" width="4.996" height="1.666"/>
				<rect x="250.439" y="153.351" fill="#FFFFFF" width="4.996" height="1.665"/>
				<rect x="230.461" y="157.632" fill="#FFFFFF" width="11.654" height="1.665"/>
				<rect x="250.439" y="157.53" fill="#FFFFFF" width="4.996" height="1.666"/>
				<g>
					<rect x="230.461" y="161.833" fill="#FFFFFF" width="5.879" height="1.665"/>
					<rect x="238.301" y="161.833" fill="#FFFFFF" width="9.797" height="1.665"/>
				</g>
				<rect x="250.439" y="161.833" fill="#FFFFFF" width="3.33" height="1.665"/>
				<rect x="230.461" y="166.033" fill="#FFFFFF" width="17.637" height="1.666"/>
				<rect x="250.439" y="166.033" fill="#FFFFFF" width="4.996" height="1.665"/>
				<rect x="230.461" y="191.255" fill="#FFFFFF" width="6.66" height="1.664"/>
				<rect x="250.439" y="191.255" fill="#FFFFFF" width="3.33" height="1.664"/>
				<rect x="230.461" y="195.455" fill="#FFFFFF" width="11.654" height="1.664"/>
				<rect x="250.439" y="195.455" fill="#FFFFFF" width="4.996" height="1.664"/>
				<g>
					<rect x="230.461" y="199.656" fill="#FFFFFF" width="4.996" height="1.665"/>
					<rect x="237.121" y="199.656" fill="#FFFFFF" width="6.66" height="1.665"/>
				</g>
				<rect x="250.439" y="199.656" fill="#FFFFFF" width="4.996" height="1.665"/>
				<rect x="230.461" y="203.857" fill="#FFFFFF" width="8.324" height="1.665"/>
				<rect x="250.439" y="203.857" fill="#FFFFFF" width="3.33" height="1.665"/>
				
					<line fill="none" stroke="#FFFFFF" stroke-width="0.7024" stroke-miterlimit="10" x1="228.59" y1="210.83" x2="258.557" y2="210.83"/>
			</g>
		</g>
		<g>
			<polygon fill="#F05543" points="258.322,73.625 256.217,71.518 254.109,73.625 252.002,71.518 249.895,73.625 247.787,71.518 
				245.68,73.625 243.574,71.518 241.467,73.625 239.359,71.518 237.252,73.625 235.145,71.518 233.039,73.625 230.932,71.518 
				228.824,73.625 226.717,71.518 226.717,88.375 226.717,122.088 226.717,127.705 228.824,125.598 230.932,127.705 
				233.039,125.598 235.145,127.705 237.252,125.598 239.359,127.705 241.467,125.598 243.574,127.705 245.68,125.598 
				247.787,127.705 249.895,125.598 252.002,127.705 254.109,125.598 256.217,127.705 258.322,125.598 260.43,127.705 
				260.43,122.088 260.43,88.375 260.43,71.518 			"/>
			<g>
				<path fill="#FFFFFF" d="M260.43,103.184"/>
				<g>
					<rect x="230.463" y="113.867" fill="#FFFFFF" width="13.318" height="1.664"/>
					<rect x="250.441" y="113.867" fill="#FFFFFF" width="3.328" height="1.664"/>
				</g>
				<rect x="230.463" y="84.146" fill="#FFFFFF" width="9.99" height="1.666"/>
				<rect x="250.441" y="84.068" fill="#FFFFFF" width="4.994" height="1.665"/>
				<rect x="230.463" y="88.347" fill="#FFFFFF" width="11.654" height="1.666"/>
				<rect x="250.441" y="88.248" fill="#FFFFFF" width="3.328" height="1.665"/>
				<g>
					<rect x="230.463" y="92.55" fill="#FFFFFF" width="4.994" height="1.665"/>
					<rect x="237.123" y="92.55" fill="#FFFFFF" width="8.324" height="1.665"/>
				</g>
				<rect x="250.441" y="92.551" fill="#FFFFFF" width="3.328" height="1.664"/>
				<rect x="230.463" y="96.75" fill="#FFFFFF" width="11.654" height="1.666"/>
				<rect x="250.441" y="96.75" fill="#FFFFFF" width="4.994" height="1.665"/>
				<rect x="230.463" y="100.952" fill="#FFFFFF" width="6.66" height="1.664"/>
				<rect x="250.441" y="100.952" fill="#FFFFFF" width="3.328" height="1.664"/>
				<rect x="230.463" y="105.152" fill="#FFFFFF" width="11.654" height="1.664"/>
				<rect x="250.441" y="105.152" fill="#FFFFFF" width="4.994" height="1.664"/>
				
					<line fill="none" stroke="#FFFFFF" stroke-width="0.7024" stroke-miterlimit="10" x1="228.59" y1="110.226" x2="258.557" y2="110.226"/>
			</g>
		</g>
		<g>
			<polygon fill="#F05543" points="215.987,42.699 213.88,40.592 211.772,42.699 209.665,40.592 207.56,42.699 205.452,40.592 
				203.345,42.699 201.237,40.592 199.13,42.699 197.024,40.592 194.917,42.699 192.81,40.592 190.702,42.699 188.595,40.592 
				186.487,42.699 184.382,40.592 184.382,54.638 184.382,84.606 184.382,90.223 186.487,88.117 188.595,90.223 190.702,88.117 
				192.81,90.223 194.917,88.117 197.024,90.223 199.13,88.117 201.237,90.223 203.345,88.117 205.452,90.223 207.56,88.117 
				209.665,90.223 211.772,88.117 213.88,90.223 215.987,88.117 218.095,90.223 218.095,84.606 218.095,54.638 218.095,40.592 			
				"/>
			<g>
				<path fill="#FFFFFF" d="M218.095,53.966"/>
				<g>
					<rect x="188.128" y="76.385" fill="#FFFFFF" width="13.318" height="1.664"/>
					<rect x="208.104" y="76.385" fill="#FFFFFF" width="3.33" height="1.664"/>
				</g>
				<rect x="188.128" y="67.136" fill="#FFFFFF" width="11.652" height="1.665"/>
				<rect x="208.104" y="67.237" fill="#FFFFFF" width="3.33" height="1.666"/>
				<g>
					<rect x="188.128" y="62.935" fill="#FFFFFF" width="4.994" height="1.665"/>
					<rect x="194.786" y="62.935" fill="#FFFFFF" width="8.324" height="1.665"/>
				</g>
				<rect x="208.104" y="62.935" fill="#FFFFFF" width="3.33" height="1.664"/>
				<rect x="188.128" y="58.734" fill="#FFFFFF" width="11.652" height="1.666"/>
				<rect x="208.104" y="58.735" fill="#FFFFFF" width="4.996" height="1.665"/>
				<rect x="188.128" y="54.534" fill="#FFFFFF" width="6.658" height="1.664"/>
				<rect x="208.104" y="54.534" fill="#FFFFFF" width="3.33" height="1.664"/>
				<rect x="188.128" y="50.333" fill="#FFFFFF" width="11.652" height="1.665"/>
				<rect x="208.104" y="50.333" fill="#FFFFFF" width="4.996" height="1.665"/>
				
					<line fill="none" stroke="#FFFFFF" stroke-width="0.7024" stroke-miterlimit="10" x1="186.255" y1="72.745" x2="216.222" y2="72.745"/>
			</g>
		</g>
	</g>
	<g>
		<rect x="148.94" y="186.999" fill="#FFFFFF" width="144" height="82"/>
		<polygon fill="#F1F1F2" points="292.94,186.999 211.94,268.999 292.94,268.999 		"/>
		<path id="XMLID_1_" fill="#1B75BB" d="M261.454,234.507c1.861-0.856,3.052-2.808,3.052-5.097c0-1.74-0.61-3.084-1.892-4.305
			c-1.252-1.221-2.777-1.739-4.548-1.739h-8.302v4.854c-0.305-0.886-1.068-1.74-1.861-2.503c-1.924-1.802-4.212-2.718-6.989-2.718
			s-5.036,0.916-6.989,2.718c-0.365,0.335-0.641,0.701-0.945,1.067v-3.418h-13.124v13.43h-5.799v-13.43h-4.883v14.405l-5.829-14.405
			h-4.486l-4.334,10.561c-0.549-1.436-1.832-2.504-4.029-3.298c-1.129-0.426-2.563-0.854-3.173-0.976
			c-0.306-0.092-0.61-0.184-0.917-0.306c-0.549-0.244-0.731-0.518-0.731-1.037c0-0.641,0.701-1.099,1.952-1.099
			c1.375,0,2.443,0.458,3.236,1.403l3.235-2.747c-1.435-1.922-3.663-2.869-6.624-2.869c-1.77,0-3.296,0.458-4.547,1.405
			c-1.251,0.946-1.892,2.258-1.892,3.968c0,2.41,1.403,4.15,4.15,5.188c0.854,0.305,2.137,0.701,2.839,0.916
			c0.365,0.09,0.731,0.243,1.068,0.365c0.701,0.274,1.006,0.61,1.006,1.099c0,0.855-0.793,1.281-2.41,1.281
			c-1.893,0-3.541-0.916-4.486-2.228l-3.449,2.655c0.702,1.067,1.679,1.954,2.961,2.716c1.312,0.732,2.96,1.1,4.975,1.1
			c1.617,0,2.96-0.336,4.059-0.824l-0.184,0.427h5.158l0.945-2.136h6.898l0.916,2.136h27.803v-3.021c0,0.275,0.428,0.55,0.701,0.823
			c1.924,1.802,4.213,2.718,6.99,2.718s5.004-0.916,6.928-2.718c0.824-0.762,1.557-1.616,1.861-2.501v4.729h4.884v-5.493h1.953
			h0.062l3.662,5.493h5.615L261.454,234.507z M198.919,234.964l2.167-5.554l2.167,5.554H198.919z M224.739,227.639h7.599
			c-0.488,0.914-0.823,1.525-1.038,2.441h-6.561V227.639z M224.739,236.796v-2.748h6.5c0.184,1.221,0.549,1.831,1.068,2.748H224.739
			z M244.425,235.758c-0.947,0.946-2.106,1.434-3.449,1.434c-1.373,0-2.533-0.457-3.48-1.403c-0.945-0.946-1.402-2.106-1.402-3.479
			c0-1.344,0.488-2.503,1.434-3.449c0.946-0.976,2.105-1.465,3.449-1.465c1.343,0,2.502,0.489,3.449,1.465
			c0.975,0.978,1.465,2.136,1.465,3.449C245.89,233.62,245.399,234.78,244.425,235.758z M257.518,231.606h-2.869v-3.967h3.265
			c0.947,0,1.709,0.732,1.709,1.892C259.622,230.874,258.829,231.606,257.518,231.606z"/>
		<path fill="#0B395A" d="M238.94,200.499c0,2.485-2.015,4.5-4.5,4.5h-27c-2.485,0-4.5-2.015-4.5-4.5l0,0c0-2.485,2.015-4.5,4.5-4.5
			h27C236.926,195.999,238.94,198.013,238.94,200.499L238.94,200.499z"/>
	</g>
	
		<line fill="none" stroke="#F1F1F2" stroke-width="9.5238" stroke-miterlimit="10" x1="289.94" y1="158.205" x2="318.459" y2="269.793"/>
</g>
</svg>
