<?xml version="1.0" encoding="utf-8"?>
<!-- Generator: Adobe Illustrator 16.0.0, SVG Export Plug-In . SVG Version: 6.00 Build 0)  -->
<!DOCTYPE svg PUBLIC "-//W3C//DTD SVG 1.1//EN" "http://www.w3.org/Graphics/SVG/1.1/DTD/svg11.dtd">
<svg version="1.1" id="Layer_1" xmlns="http://www.w3.org/2000/svg" xmlns:xlink="http://www.w3.org/1999/xlink" x="0px" y="0px"
	 width="277px" height="203.947px" viewBox="0 0 277 203.947" enable-background="new 0 0 277 203.947" xml:space="preserve">
<g>
	<g>
		<g>
			<path fill="#F05543" d="M77.5,52c0,0,0,7,7,7h63c0,0,7,0,7-7V17c0,0,0-7-7-7h-63c0,0-7,0-7,7V52z"/>
			<rect x="77.5" y="24" fill="#1B75BB" width="77" height="7"/>
			<g>
				<rect x="116" y="34.888" fill="#0B395A" width="31.5" height="3.5"/>
				<rect x="116" y="41.888" fill="#0B395A" width="10.5" height="3.5"/>
				<rect x="130" y="41.888" fill="#0B395A" width="10.5" height="3.5"/>
				<path fill="#FFFFFF" d="M84.5,37.53c0,0,0-2.642,2.641-2.642h5.281c0,0,2.641,0,2.641,2.642v5.28c0,0,0,2.642-2.641,2.642
					h-5.281c0,0-2.641,0-2.641-2.642V37.53z"/>
			</g>
		</g>
		<path fill="#FFFFFF" d="M42.5,38l21-14c0,0,7-7,14-7v35h28c0,0,7,0,7,7s-7,7-7,7h-63V38z"/>
		<rect x="7.5" y="31" fill="#FFFFFF" width="28" height="42"/>
		<circle fill="#0B395A" cx="28.5" cy="66" r="4.118"/>
	</g>
	<g>
		<rect x="62.5" y="149.834" fill="#A5A8AB" width="207" height="45"/>
		<rect x="71.5" y="158.834" fill="#D0D1D2" width="189" height="27"/>
		<rect x="71.5" y="185.834" fill="#8D8D8D" width="189" height="9"/>
		<rect x="71.5" y="86.834" fill="#D0D1D2" width="189" height="63"/>
		<g>
			<circle fill="#919396" cx="220" cy="100.334" r="4.5"/>
			<circle fill="#919396" cx="233" cy="100.334" r="4.5"/>
			<circle fill="#919396" cx="246" cy="100.334" r="4.5"/>
			<circle fill="#919396" cx="220" cy="113.334" r="4.5"/>
			<circle fill="#919396" cx="233" cy="113.334" r="4.5"/>
			<circle fill="#919396" cx="246" cy="113.334" r="4.5"/>
			<circle fill="#919396" cx="220" cy="126.334" r="4.5"/>
			<circle fill="#919396" cx="233" cy="126.334" r="4.5"/>
			<circle fill="#919396" cx="246" cy="126.334" r="4.5"/>
			<circle fill="#E7E6E6" cx="220" cy="138.502" r="4.5"/>
			<circle fill="#919396" cx="233" cy="138.502" r="4.5"/>
			<circle fill="#E7E6E6" cx="246" cy="138.502" r="4.5"/>
		</g>
		<circle fill="#A5A8AB" cx="166" cy="172.334" r="4.5"/>
		<path fill="#0B395A" d="M197.5,95.834c0,0,9,0,9,9v9c0,0,0,9-9,9h-27c0,0-9,0-9-9v-9c0,0,0-9,9-9H197.5z"/>
		<rect x="80.5" y="95.834" fill="none" stroke="#A5A8AB" stroke-miterlimit="10" width="54" height="27"/>
		<polygon fill="#BBBCBE" points="188,86.834 197,77.834 224,77.834 233,86.834 		"/>
		<rect x="143.5" y="95.834" fill="#A5A8AB" width="9" height="9"/>
		<rect x="143.5" y="113.834" fill="#A5A8AB" width="9" height="9"/>
		<rect x="143.5" y="131.834" fill="#A5A8AB" width="9" height="9"/>
		<rect x="161.5" y="131.834" fill="#59595C" width="18" height="9"/>
		<rect x="188.5" y="131.834" fill="#59595C" width="18" height="9"/>
		<rect x="206" y="73" fill="#A5A8AB" width="9" height="4.834"/>
		<rect x="170" y="37" fill="#E7E6E6" width="81" height="36"/>
		<rect x="179" y="46" fill="#0B395A" width="63" height="18"/>
		<g>
			<rect x="184.666" y="52.946" fill="#FFFFFF" width="22.144" height="4.107"/>
			<rect x="210.5" y="52.946" fill="#FFFFFF" width="7.381" height="4.107"/>
			<rect x="221.571" y="52.946" fill="#FFFFFF" width="14.763" height="4.107"/>
		</g>
		<polygon fill="#D0D1D2" points="170,37 179,46 242,46 251,37 		"/>
		<polygon fill="#D0D1D2" points="179,64 170,73 251,73 242,64 		"/>
		<g>
			<rect x="170" y="100" fill="#FFFFFF" width="14.223" height="1.777"/>
			<rect x="191.333" y="100" fill="#FFFFFF" width="3.556" height="1.777"/>
			<rect x="170" y="104.485" fill="#FFFFFF" width="10.667" height="1.778"/>
			<rect x="191.333" y="104.401" fill="#FFFFFF" width="5.334" height="1.778"/>
			<rect x="170" y="108.971" fill="#FFFFFF" width="12.444" height="1.778"/>
			<rect x="191.333" y="108.864" fill="#FFFFFF" width="3.556" height="1.778"/>
			<g>
				<rect x="170" y="113.458" fill="#FFFFFF" width="5.333" height="1.778"/>
				<rect x="177.111" y="113.458" fill="#FFFFFF" width="8.889" height="1.778"/>
			</g>
			<rect x="191.333" y="113.459" fill="#FFFFFF" width="3.556" height="1.777"/>
			<rect x="170" y="117.943" fill="#FFFFFF" width="12.444" height="1.779"/>
			<rect x="191.333" y="117.943" fill="#FFFFFF" width="5.334" height="1.778"/>
		</g>
		<line fill="none" stroke="#59595C" stroke-width="2" stroke-miterlimit="10" x1="89" y1="109" x2="125" y2="109"/>
	</g>
</g>
</svg>
