<?xml version="1.0" encoding="utf-8"?>
<!-- Generator: Adobe Illustrator 16.0.0, SVG Export Plug-In . SVG Version: 6.00 Build 0)  -->
<!DOCTYPE svg PUBLIC "-//W3C//DTD SVG 1.1//EN" "http://www.w3.org/Graphics/SVG/1.1/DTD/svg11.dtd">
<svg version="1.1" id="Layer_1" xmlns="http://www.w3.org/2000/svg" xmlns:xlink="http://www.w3.org/1999/xlink" x="0px" y="0px"
	 width="537px" height="296px" viewBox="0 0 537 296" enable-background="new 0 0 537 296" xml:space="preserve">
<g id="Layer_4" display="none">
	<g display="inline">
		<g>
			<path fill="#E6E7E8" d="M319.446,148.223c0,0,0-4.542,4.543-4.542h63.622c0,0,4.547,0,4.547,4.542v90.889
				c0,0,0,4.545-4.547,4.545h-63.622c0,0-4.543,0-4.543-4.545V148.223z"/>
			<rect x="323.989" y="152.769" fill="#55A4CB" width="63.622" height="81.799"/>
			<circle fill="#A5A8AB" cx="355.801" cy="239.11" r="2.532"/>
			<g>
				<circle fill="#808184" cx="326.618" cy="148.227" r="2.605"/>
				<circle fill="#404041" cx="326.619" cy="148.228" r="1.557"/>
			</g>
		</g>
		<g>
			<path fill="#FFFFFF" d="M363.271,223.705h-6.516h-6.519c-6.517,0-6.517,6.517-6.517,6.517v4.346h13.033h13.032v-4.346
				C369.787,230.222,369.787,223.705,363.271,223.705z"/>
			<path fill="#E6E7E8" d="M368.178,225.716c0,2.443-4.952,4.426-11.061,4.426c-6.11,0-11.063-1.98-11.063-4.426
				c0-2.441,4.952-4.425,11.063-4.425C363.226,221.291,368.178,223.273,368.178,225.716z"/>
			<path fill="#FFFFFF" d="M340.825,212.845v-14.48c0,0,7.238,0,7.238,14.48H340.825z"/>
			<path fill="#A6A8AB" d="M340.825,212.845v-14.48c0,0,3.619,0,3.619,14.48H340.825z"/>
			<path fill="#FFFFFF" d="M373.407,212.845v-14.48c0,0-7.24,0-7.24,14.48H373.407z"/>
			<path fill="#A6A8AB" d="M373.407,212.845v-14.48c0,0-3.62,0-3.62,14.48H373.407z"/>
			<path fill="#FFFFFF" d="M340.825,220.085c0,0,0,7.24,7.238,7.24h18.104c0,0,7.239,0,7.239-7.24v-7.24c0,0,0-7.24-7.239-7.24
				h-18.104c0,0-7.238,0-7.238,7.24V220.085z"/>
			<path fill="#404041" d="M348.065,215.29c0,0,0-1.343,1.348-1.343c0,0,1.344,0,1.344,1.343v2.688c0,0,0,1.347-1.344,1.347
				c-1.348,0-1.348-1.347-1.348-1.347V215.29z"/>
			<path fill="#404041" d="M364.201,215.29c0,0,0-1.343,1.345-1.343c0,0,1.346,0,1.346,1.343v2.688c0,0,0,1.347-1.346,1.347
				c-1.345,0-1.345-1.347-1.345-1.347V215.29z"/>
			<path fill="#808184" d="M354.535,221.787c0,0,0-1.702,1.185-1.702h2.367c0,0,1.185,0,1.185,1.702
				C359.271,221.787,356.903,225.195,354.535,221.787z"/>
			<g>
				
					<line fill="none" stroke="#808184" stroke-width="0.4916" stroke-miterlimit="10" x1="351.687" y1="221.353" x2="337.205" y2="220.085"/>
				
					<line fill="none" stroke="#808184" stroke-width="0.4916" stroke-miterlimit="10" x1="337.205" y1="222.619" x2="351.687" y2="222.619"/>
				
					<line fill="none" stroke="#808184" stroke-width="0.4916" stroke-miterlimit="10" x1="337.205" y1="225.152" x2="351.687" y2="223.888"/>
			</g>
			<g>
				
					<line fill="none" stroke="#808184" stroke-width="0.4916" stroke-miterlimit="10" x1="362.547" y1="221.353" x2="377.027" y2="220.085"/>
				
					<line fill="none" stroke="#808184" stroke-width="0.4916" stroke-miterlimit="10" x1="377.027" y1="222.619" x2="362.547" y2="222.619"/>
				
					<line fill="none" stroke="#808184" stroke-width="0.4916" stroke-miterlimit="10" x1="377.027" y1="225.152" x2="362.547" y2="223.888"/>
			</g>
		</g>
		<g>
			<rect x="329.937" y="158.076" fill="#FFFFFF" width="10.566" height="2.349"/>
			<rect x="341.677" y="158.076" fill="#FFFFFF" width="15.26" height="2.349"/>
			<rect x="329.937" y="161.599" fill="#FFFFFF" width="4.695" height="1.174"/>
			<rect x="335.807" y="161.599" fill="#FFFFFF" width="7.044" height="1.174"/>
			<rect x="344.024" y="161.599" fill="#FFFFFF" width="4.695" height="1.174"/>
		</g>
		<circle fill="none" stroke="#FFFFFF" stroke-width="0.5944" stroke-miterlimit="10" cx="380.217" cy="160.425" r="2.791"/>
	</g>
</g>
<g>
	<ellipse opacity="0.1" fill="#808184" cx="124.924" cy="277.941" rx="113.256" ry="2.275"/>
	<ellipse opacity="0.1" fill="#808184" cx="291" cy="251.184" rx="142.97" ry="2.275"/>
	<ellipse opacity="0.1" fill="#808184" cx="482.21" cy="267.654" rx="43.199" ry="2.275"/>
	<ellipse opacity="0.2" fill="#808184" cx="410.405" cy="267.654" rx="27.25" ry="2.275"/>
	<ellipse opacity="0.2" fill="#808184" cx="327.393" cy="271.274" rx="46.146" ry="2.275"/>
	<g>
		<path fill="#F1F1F2" d="M165.001,35c0,0,0-9,9-9h234c0,0,9,0,9,9v162c0,0,0,9-9,9h-234c0,0-9,0-9-9V35z"/>
		<rect x="174.001" y="35" fill="#216282" width="234" height="144"/>
		<rect x="174.001" y="107" fill="#55A4CB" width="234" height="72"/>
		<rect x="174.001" y="35" fill="#0B395A" width="117" height="144"/>
		<rect x="174.001" y="107" fill="#134C6E" width="117" height="72"/>
		<rect x="255.001" y="206" fill="#D0D2D3" width="72" height="36"/>
		<rect x="237.001" y="242" fill="#DDDDDC" width="108" height="9"/>
		<polygon fill="#BABABA" points="327,215 255.001,225.001 255.001,206 327,206 		"/>
		<path fill="#DDDDDC" d="M165.001,188v9c0,0,0,9,9,9h234c0,0,9,0,9-9v-9H165.001z"/>
		<g>
			<g>
				<g>
					<defs>
						<path id="SVGID_1_" d="M342.008,93.726h-8.85c0,0-8.85,0-8.85,8.85V107h48.672v-4.425c0,0,0-8.85-8.849-8.85H342.008z"/>
					</defs>
					<clipPath id="SVGID_2_">
						<use xlink:href="#SVGID_1_"  overflow="visible"/>
					</clipPath>
					<path clip-path="url(#SVGID_2_)" fill="#A6A8AB" d="M342.007,93.698h-8.85c0,0-8.85,0-8.85,8.85v4.425h48.672v-4.425
						c0,0,0-8.85-8.849-8.85H342.007z"/>
					
						<line clip-path="url(#SVGID_2_)" fill="#6D6E70" stroke="#8E8E8E" stroke-width="3" stroke-miterlimit="10" x1="324.308" y1="104.563" x2="372.98" y2="104.563"/>
					
						<line clip-path="url(#SVGID_2_)" fill="#6D6E70" stroke="#8E8E8E" stroke-width="3" stroke-miterlimit="10" x1="324.308" y1="96.562" x2="372.98" y2="96.562"/>
					
						<line clip-path="url(#SVGID_2_)" fill="#6D6E70" stroke="#6D6E70" stroke-width="3" stroke-miterlimit="10" x1="333.157" y1="93.726" x2="333.157" y2="106.972"/>
					
						<line clip-path="url(#SVGID_2_)" fill="#6D6E70" stroke="#6D6E70" stroke-width="3" stroke-miterlimit="10" x1="342.007" y1="93.726" x2="342.007" y2="106.972"/>
					
						<line clip-path="url(#SVGID_2_)" fill="#6D6E70" stroke="#6D6E70" stroke-width="3" stroke-miterlimit="10" x1="355.281" y1="93.726" x2="355.281" y2="106.972"/>
					
						<line clip-path="url(#SVGID_2_)" fill="#6D6E70" stroke="#6D6E70" stroke-width="3" stroke-miterlimit="10" x1="364.131" y1="93.726" x2="364.131" y2="106.972"/>
					
						<line clip-path="url(#SVGID_2_)" fill="none" stroke="#BFBFBF" stroke-miterlimit="10" x1="324.308" y1="100.335" x2="372.98" y2="100.335"/>
					
						<line clip-path="url(#SVGID_2_)" fill="none" stroke="#BFBFBF" stroke-miterlimit="10" x1="337.813" y1="93.726" x2="337.813" y2="107.25"/>
					
						<line clip-path="url(#SVGID_2_)" fill="none" stroke="#BFBFBF" stroke-miterlimit="10" x1="359.705" y1="93.726" x2="359.705" y2="106.972"/>
					
						<line clip-path="url(#SVGID_2_)" fill="none" stroke="#BFBFBF" stroke-miterlimit="10" x1="348.645" y1="107" x2="348.645" y2="93.726"/>
					
						<line clip-path="url(#SVGID_2_)" fill="none" stroke="#BFBFBF" stroke-miterlimit="10" x1="327.938" y1="106.972" x2="327.938" y2="93.726"/>
					
						<line clip-path="url(#SVGID_2_)" fill="none" stroke="#BFBFBF" stroke-miterlimit="10" x1="369.75" y1="106.972" x2="369.75" y2="93.726"/>
				</g>
				<g>
					<path fill="#FFFFFF" d="M333.157,58.3v22.124c0,0,0,8.85,8.85,8.85h13.273c0,0,8.851,0,8.851-8.85V58.3H333.157z"/>
					<path fill="#A6A8AB" d="M333.157,74.512c0,0,0,7.675,8.85,7.675h13.273c0,0,8.851,0,8.851-7.675v11.512
						c0,0,0,7.674-8.851,7.674h-13.273c0,0-8.85,0-8.85-7.674V74.512z"/>
					<path fill="#E6E7E8" d="M333.157,80.424c0,0-4.425,0-4.425-4.425v-4.425c0,0,0-4.424,4.425-4.424V80.424z"/>
					<path fill="#E6E7E8" d="M364.131,67.15c0,0,4.424,0,4.424,4.424v4.425c0,0,0,4.425-4.424,4.425V67.15z"/>
					<path fill="#6D6E70" stroke="#6D6E70" stroke-miterlimit="10" d="M359.705,58.3c0,0,0,13.274,4.426,13.274V58.3H359.705z"/>
					<path fill="#6D6E70" stroke="#6D6E70" stroke-miterlimit="10" d="M337.582,58.3c0,0,0,13.274-4.425,13.274V58.3H337.582z"/>
					<path fill="#404041" d="M342.007,84.849c0,0,0,4.425,4.425,4.425h4.424c0,0,4.425,0,4.425-4.425H342.007z"/>
					<path fill="#FFFFFF" d="M342.007,84.849c0,0,0,1.776,4.425,1.776h4.424c0,0,4.425,0,4.425-1.776H342.007z"/>
					<path fill="#404041" d="M339.353,72.902c0,0,0-1.328,1.326-1.328c0,0,1.328,0,1.328,1.328v2.655c0,0,0,1.327-1.328,1.327
						c-1.326,0-1.326-1.327-1.326-1.327V72.902z"/>
					<path fill="#404041" d="M355.281,72.902c0,0,0-1.328,1.328-1.328c0,0,1.327,0,1.327,1.328v2.655c0,0,0,1.327-1.327,1.327
						c-1.328,0-1.328-1.327-1.328-1.327V72.902z"/>
					
						<path fill="none" stroke="#6D6E70" stroke-width="0.6646" stroke-linecap="round" stroke-linejoin="round" stroke-miterlimit="10" d="
						M337.582,68.479c0,0,2.99-2.991,5.981,0"/>
					
						<path fill="none" stroke="#6D6E70" stroke-width="0.6646" stroke-linecap="round" stroke-linejoin="round" stroke-miterlimit="10" d="
						M353.315,68.479c0,0,2.991-2.991,5.981,0"/>
					<path fill="#A6A8AB" d="M345.99,77.966c0,0,0,1.327,2.655,1.327c2.653,0,2.653-1.327,2.653-1.327H345.99z"/>
					<path fill="#6D6E70" stroke="#6D6E70" stroke-miterlimit="10" d="M333.157,58.3c0,0,0-4.424,4.425-4.424
						c0,0,0-13.274,22.123-4.425c0,0,8.85,4.425,13.274,4.425C372.98,53.876,333.157,75.999,333.157,58.3z"/>
					<polygon fill="#E6E7E8" points="342.007,93.726 342.007,98.15 348.645,102.575 355.281,98.15 355.281,93.726 					"/>
				</g>
			</g>
			<g>
				<path fill="#404041" d="M221.485,118.26c0,0-15.688,10.458-15.688,41.833h57.521c0,0,0-31.375-15.688-41.833H221.485z"/>
				<path fill="#A6A8AB" d="M227.921,165.725h-4.425c0,0-8.849,0-8.849,8.85V179h39.822v-4.426c0,0,0-8.85-8.849-8.85H227.921z"/>
				<path fill="#FFFFFF" d="M219.071,125.903v26.548c0,0,0,8.85,8.85,8.85h13.274c0,0,8.85,0,8.85-8.85v-26.548H219.071z"/>
				<path fill="#E6E7E8" d="M219.071,152.451c0,0-4.424,0-4.424-4.425v-4.424c0,0,0-4.425,4.424-4.425V152.451z"/>
				<path fill="#E6E7E8" d="M250.044,139.177c0,0,4.424,0,4.424,4.425v4.424c0,0,0,4.425-4.424,4.425V139.177z"/>
				<path fill="#404041" d="M227.921,152.451c0,0,0,4.425,4.425,4.425h4.424c0,0,4.425,0,4.425-4.425H227.921z"/>
				<path fill="#E6E7E8" d="M227.921,152.451c0,0,0,1.383,4.425,1.383h4.424c0,0,4.425,0,4.425-1.383H227.921z"/>
				<path fill="#404041" d="M225.266,142.716c0,0,0-1.327,1.328-1.327c0,0,1.327,0,1.327,1.327v2.655c0,0,0,1.328-1.327,1.328
					c-1.328,0-1.328-1.328-1.328-1.328V142.716z"/>
				<path fill="#404041" d="M241.195,142.716c0,0,0-1.327,1.328-1.327c0,0,1.327,0,1.327,1.327v2.655c0,0,0,1.328-1.327,1.328
					c-1.328,0-1.328-1.328-1.328-1.328V142.716z"/>
				<path fill="#A6A8AB" d="M231.903,146.699c0,0,0,1.327,2.655,1.327s2.655-1.327,2.655-1.327H231.903z"/>
				<path fill="#D0D2D3" d="M227.921,161.301v4.424c0,0,0,4.424,6.637,4.424c6.637,0,6.637-4.424,6.637-4.424v-4.424H227.921z"/>
				
					<path fill="none" stroke="#6D6E70" stroke-width="0.6646" stroke-linecap="round" stroke-linejoin="round" stroke-miterlimit="10" d="
					M223.496,139.177c0,0,2.991-2.99,5.981,0"/>
				
					<path fill="none" stroke="#6D6E70" stroke-width="0.6646" stroke-linecap="round" stroke-linejoin="round" stroke-miterlimit="10" d="
					M239.229,139.177c0,0,2.991-2.99,5.981,0"/>
				<path fill="#404041" stroke="#404041" stroke-miterlimit="10" d="M219.071,134.752h8.85c0,0,0-8.849,4.425-8.849v8.849h17.699
					v-8.849c0,0,0-4.425-4.424-4.425h-22.124c0,0-4.425,0-4.425,4.425V134.752z"/>
				<circle fill="#FFFFFF" cx="252.043" cy="154.624" r="1.374"/>
				<circle fill="#FFFFFF" cx="216.859" cy="154.624" r="1.374"/>
			</g>
			<g>
				<path fill="#A6A8AB" d="M228.546,93.726h-8.85c0,0-8.85,0-8.85,8.85V107h48.672v-4.425c0,0,0-8.85-8.85-8.85H228.546z"/>
				<path fill="#6D6E70" stroke="#6D6E70" stroke-miterlimit="10" d="M243.849,93.726c0,3.253-3.863,5.89-8.628,5.89
					c-4.765,0-8.628-2.637-8.628-5.89"/>
				<path fill="#FFFFFF" d="M219.696,53.904v26.548c0,0,0,8.85,8.85,8.85h13.274c0,0,8.85,0,8.85-8.85V53.904H219.696z"/>
				<path fill="#E6E7E8" d="M219.696,80.452c0,0-4.424,0-4.424-4.425v-4.425c0,0,0-4.424,4.424-4.424V80.452z"/>
				<path fill="#E6E7E8" d="M250.669,67.178c0,0,4.425,0,4.425,4.424v4.425c0,0,0,4.425-4.425,4.425V67.178z"/>
				<path fill="#404041" stroke="#404041" stroke-miterlimit="10" d="M224.121,49.479c0,0-4.425,0-4.425,4.425v13.274
					c0,0,4.425-4.425,4.425-8.85c0,0,4.425,4.424,17.699,4.424l-4.425-4.424c0,0,8.85,4.424,13.274,4.424v-8.849
					c0,0,0-4.425-4.424-4.425H224.121z"/>
				<path fill="#404041" d="M246.245,58.328c0,0,0,8.85,4.424,8.85v-8.85H246.245z"/>
				<path fill="#404041" d="M228.546,80.452c0,0,0,4.425,4.425,4.425h4.424c0,0,4.425,0,4.425-4.425H228.546z"/>
				<path fill="#E6E7E8" d="M228.546,80.452c0,0,0,1.382,4.425,1.382h4.424c0,0,4.425,0,4.425-1.382H228.546z"/>
				<path fill="#404041" d="M225.891,70.717c0,0,0-1.327,1.328-1.327c0,0,1.327,0,1.327,1.327v2.655c0,0,0,1.327-1.327,1.327
					c-1.328,0-1.328-1.327-1.328-1.327V70.717z"/>
				<path fill="#404041" d="M241.82,70.717c0,0,0-1.327,1.328-1.327c0,0,1.327,0,1.327,1.327v2.655c0,0,0,1.327-1.327,1.327
					c-1.328,0-1.328-1.327-1.328-1.327V70.717z"/>
				<path fill="#A6A8AB" d="M232.528,76.027c0,0,0,1.328,2.655,1.328s2.655-1.328,2.655-1.328H232.528z"/>
				<path fill="#D0D2D3" d="M228.546,89.301v4.424c0,0,0,4.425,6.637,4.425c6.637,0,6.637-4.425,6.637-4.425v-4.424H228.546z"/>
				
					<path fill="none" stroke="#6D6E70" stroke-width="0.6646" stroke-linecap="round" stroke-linejoin="round" stroke-miterlimit="10" d="
					M224.121,65.178c0,0,2.991-2.991,5.981,0"/>
				
					<path fill="none" stroke="#6D6E70" stroke-width="0.6646" stroke-linecap="round" stroke-linejoin="round" stroke-miterlimit="10" d="
					M239.854,65.178c0,0,2.991-2.991,5.981,0"/>
				<g>
					
						<path fill="none" stroke="#58595B" stroke-width="1.7207" stroke-linecap="round" stroke-linejoin="round" stroke-miterlimit="10" d="
						M219.45,67.669v6.637c0,0,0,2.212,2.212,2.212h6.637c0,0,4.424,0,4.424-8.849H219.45z"/>
					
						<path fill="none" stroke="#58595B" stroke-width="1.7207" stroke-linecap="round" stroke-linejoin="round" stroke-miterlimit="10" d="
						M250.423,67.669v6.637c0,0,0,2.212-2.212,2.212h-6.637c0,0-4.424,0-4.424-8.849H250.423z"/>
					
						<path fill="none" stroke="#58595B" stroke-width="1.7207" stroke-linecap="round" stroke-linejoin="round" stroke-miterlimit="10" d="
						M232.724,72.093c0,0,2.212-2.212,4.425,0"/>
					
						<line fill="none" stroke="#58595B" stroke-width="1.7207" stroke-linecap="round" stroke-linejoin="round" stroke-miterlimit="10" x1="217.238" y1="67.669" x2="219.45" y2="67.669"/>
					
						<line fill="none" stroke="#58595B" stroke-width="1.7207" stroke-linecap="round" stroke-linejoin="round" stroke-miterlimit="10" x1="250.423" y1="67.669" x2="252.636" y2="67.669"/>
				</g>
			</g>
			<g>
				<path fill="#FFFFFF" d="M357.452,168.139h-6.516h-6.517c-6.517,0-6.517,6.515-6.517,6.515v4.472h26.065v-4.472
					C363.969,174.653,363.969,168.139,357.452,168.139z"/>
				<path fill="#E6E7E8" d="M362.36,170.148c0,2.444-4.952,4.426-11.061,4.426c-6.11,0-11.063-1.981-11.063-4.426
					c0-2.441,4.952-4.424,11.063-4.424C357.407,165.725,362.36,167.707,362.36,170.148z"/>
				<path fill="#FFFFFF" d="M335.007,157.277v-14.48c0,0,7.24,0,7.24,14.48H335.007z"/>
				<path fill="#A6A8AB" d="M335.007,157.277v-14.48c0,0,3.621,0,3.621,14.48H335.007z"/>
				<path fill="#FFFFFF" d="M367.589,157.277v-14.48c0,0-7.24,0-7.24,14.48H367.589z"/>
				<path fill="#A6A8AB" d="M367.589,157.277v-14.48c0,0-3.62,0-3.62,14.48H367.589z"/>
				<path fill="#FFFFFF" d="M335.007,164.518c0,0,0,7.241,7.24,7.241h18.102c0,0,7.24,0,7.24-7.241v-7.24c0,0,0-7.24-7.24-7.24
					h-18.102c0,0-7.24,0-7.24,7.24V164.518z"/>
				<path fill="#404041" d="M342.247,159.724c0,0,0-1.343,1.346-1.343c0,0,1.344,0,1.344,1.343v2.689c0,0,0,1.346-1.344,1.346
					c-1.346,0-1.346-1.346-1.346-1.346V159.724z"/>
				<path fill="#404041" d="M358.383,159.724c0,0,0-1.343,1.345-1.343c0,0,1.346,0,1.346,1.343v2.689c0,0,0,1.346-1.346,1.346
					c-1.345,0-1.345-1.346-1.345-1.346V159.724z"/>
				<path fill="#808184" d="M348.717,166.221c0,0,0-1.703,1.185-1.703h2.367c0,0,1.185,0,1.185,1.703
					C353.453,166.221,351.085,169.629,348.717,166.221z"/>
				<g>
					
						<line fill="none" stroke="#808184" stroke-width="0.4916" stroke-miterlimit="10" x1="345.868" y1="165.785" x2="331.387" y2="164.518"/>
					
						<line fill="none" stroke="#808184" stroke-width="0.4916" stroke-miterlimit="10" x1="331.387" y1="167.053" x2="345.868" y2="167.053"/>
					
						<line fill="none" stroke="#808184" stroke-width="0.4916" stroke-miterlimit="10" x1="331.387" y1="169.587" x2="345.868" y2="168.32"/>
				</g>
				<g>
					
						<line fill="none" stroke="#808184" stroke-width="0.4916" stroke-miterlimit="10" x1="356.729" y1="165.785" x2="371.209" y2="164.518"/>
					
						<line fill="none" stroke="#808184" stroke-width="0.4916" stroke-miterlimit="10" x1="371.209" y1="167.053" x2="356.729" y2="167.053"/>
					
						<line fill="none" stroke="#808184" stroke-width="0.4916" stroke-miterlimit="10" x1="371.209" y1="169.587" x2="356.729" y2="168.32"/>
				</g>
				<g>
					<defs>
						<rect id="SVGID_3_" x="363.969" y="155.834" width="18.947" height="23.291"/>
					</defs>
					<clipPath id="SVGID_4_">
						<use xlink:href="#SVGID_3_"  overflow="visible"/>
					</clipPath>
					
						<path clip-path="url(#SVGID_4_)" fill="none" stroke="#FFFFFF" stroke-width="3.038" stroke-linecap="round" stroke-linejoin="round" stroke-miterlimit="10" d="
						M369.468,180.219c0,0,10.38-6.41,7.057-20.983"/>
				</g>
			</g>
			<g>
				<rect x="300" y="116" fill="#FFFFFF" width="10.566" height="2.348"/>
				<rect x="311.74" y="116" fill="#FFFFFF" width="15.26" height="2.348"/>
				<rect x="300" y="119.522" fill="#FFFFFF" width="4.695" height="1.174"/>
				<rect x="305.87" y="119.522" fill="#FFFFFF" width="7.044" height="1.174"/>
				<rect x="314.088" y="119.522" fill="#FFFFFF" width="4.695" height="1.174"/>
			</g>
			<g>
				<rect x="183" y="44" fill="#FFFFFF" width="10.565" height="2.348"/>
				<rect x="194.74" y="44" fill="#FFFFFF" width="9.391" height="2.348"/>
				<rect x="183" y="47.522" fill="#FFFFFF" width="4.695" height="1.174"/>
				<rect x="188.87" y="47.522" fill="#FFFFFF" width="7.043" height="1.174"/>
			</g>
			<g>
				<rect x="300" y="44" fill="#FFFFFF" width="8.217" height="2.348"/>
				<rect x="309.391" y="44" fill="#FFFFFF" width="11.74" height="2.348"/>
				<rect x="300" y="47.521" fill="#FFFFFF" width="7.043" height="1.174"/>
				<rect x="308.217" y="47.521" fill="#FFFFFF" width="7.044" height="1.174"/>
				<rect x="316.435" y="47.521" fill="#FFFFFF" width="8.218" height="1.174"/>
			</g>
			<g>
				<rect x="183" y="116" fill="#FFFFFF" width="10.565" height="2.348"/>
				<rect x="183" y="119.521" fill="#FFFFFF" width="7.043" height="1.174"/>
			</g>
		</g>
		<g>
			<path fill="#6D6E70" d="M271.875,15.278c0,0,0-4.25,4.25-4.25h29.75c0,0,4.25,0,4.25,4.25v4.25c0,0,0,4.25-4.25,4.25h-29.75
				c0,0-4.25,0-4.25-4.25V15.278z"/>
			<circle fill="#6D6F71" cx="291" cy="17.403" r="6.375"/>
			<circle fill="#404041" cx="291" cy="17.403" r="4.84"/>
			<rect x="280.375" y="23.778" fill="#353535" width="21.25" height="4.25"/>
			<line fill="none" stroke="#404041" stroke-miterlimit="10" x1="310.125" y1="17.403" x2="271.875" y2="17.403"/>
			<circle fill="#353535" cx="291" cy="17.403" r="2.479"/>
			<circle fill="#CCCCCC" cx="292.472" cy="15.785" r="1.43"/>
		</g>
	</g>
	<g>
		<g>
			<path fill="#D0D1D2" d="M26.301,270.85c0,0,0,6.9,13.8,6.9h179.4c0,0,13.8,0,13.8-6.9H26.301z"/>
			<path fill="#F1F1F2" d="M40.1,270.85v-103.5c0,0,0-6.898,6.9-6.898h165.6c0,0,6.9,0,6.9,6.898v103.5H40.1z"/>
			<path fill="#A5A8AB" d="M109.1,270.85c0,0,0,3.451,6.899,3.451H143.6c0,0,6.899,0,6.899-3.451H109.1z"/>
			<rect x="47" y="167.35" fill="#0B395A" width="165.6" height="96.602"/>
			<g>
				<path fill="#231F20" d="M137.029,163.912c0,1.174-0.951,2.125-2.125,2.125h-10.205c-1.174,0-2.125-0.951-2.125-2.125l0,0
					c0-1.175,0.951-2.126,2.125-2.126h10.205C136.078,161.786,137.029,162.737,137.029,163.912L137.029,163.912z"/>
				<circle fill="#6D6F71" cx="129.801" cy="163.912" r="1.77"/>
				<circle fill="#E6E7E8" cx="129.801" cy="163.912" r="1.27"/>
			</g>
		</g>
		<g>
			<rect x="46.626" y="167.35" fill="#216282" width="165.975" height="96.602"/>
			<rect x="46.626" y="215.65" fill="#55A4CB" width="165.975" height="48.301"/>
			<rect x="46.626" y="167.35" fill="#0B395A" width="82.487" height="96.602"/>
			<rect x="46.626" y="215.65" fill="#134C6E" width="82.487" height="48.301"/>
			<g>
				<g>
					<g>
						<g>
							<defs>
								<path id="SVGID_5_" d="M163.495,206.881h-5.856c0,0-5.855,0-5.855,5.855v2.928h32.205v-2.928c0,0,0-5.855-5.855-5.855
									H163.495z"/>
							</defs>
							<clipPath id="SVGID_6_">
								<use xlink:href="#SVGID_5_"  overflow="visible"/>
							</clipPath>
							<path clip-path="url(#SVGID_6_)" fill="#A6A8AB" d="M163.494,206.861h-5.855c0,0-5.855,0-5.855,5.857v2.928h32.205v-2.928
								c0,0,0-5.857-5.855-5.857H163.494z"/>
							
								<line clip-path="url(#SVGID_6_)" fill="#6D6E70" stroke="#8E8E8E" stroke-width="1.985" stroke-miterlimit="10" x1="151.783" y1="214.053" x2="183.989" y2="214.053"/>
							
								<line clip-path="url(#SVGID_6_)" fill="#6D6E70" stroke="#8E8E8E" stroke-width="1.985" stroke-miterlimit="10" x1="151.783" y1="208.758" x2="183.989" y2="208.758"/>
							
								<line clip-path="url(#SVGID_6_)" fill="#6D6E70" stroke="#6D6E70" stroke-width="1.985" stroke-miterlimit="10" x1="157.639" y1="206.881" x2="157.639" y2="215.646"/>
							
								<line clip-path="url(#SVGID_6_)" fill="#6D6E70" stroke="#6D6E70" stroke-width="1.985" stroke-miterlimit="10" x1="163.494" y1="206.881" x2="163.494" y2="215.646"/>
							
								<line clip-path="url(#SVGID_6_)" fill="#6D6E70" stroke="#6D6E70" stroke-width="1.985" stroke-miterlimit="10" x1="172.277" y1="206.881" x2="172.277" y2="215.646"/>
							
								<line clip-path="url(#SVGID_6_)" fill="#6D6E70" stroke="#6D6E70" stroke-width="1.985" stroke-miterlimit="10" x1="178.134" y1="206.881" x2="178.134" y2="215.646"/>
							
								<line clip-path="url(#SVGID_6_)" fill="none" stroke="#BFBFBF" stroke-width="0.6617" stroke-miterlimit="10" x1="151.783" y1="211.254" x2="183.989" y2="211.254"/>
							
								<line clip-path="url(#SVGID_6_)" fill="none" stroke="#BFBFBF" stroke-width="0.6617" stroke-miterlimit="10" x1="160.719" y1="206.881" x2="160.719" y2="215.83"/>
							
								<line clip-path="url(#SVGID_6_)" fill="none" stroke="#BFBFBF" stroke-width="0.6617" stroke-miterlimit="10" x1="175.205" y1="206.881" x2="175.205" y2="215.646"/>
							
								<line clip-path="url(#SVGID_6_)" fill="none" stroke="#BFBFBF" stroke-width="0.6617" stroke-miterlimit="10" x1="167.886" y1="215.664" x2="167.886" y2="206.881"/>
							
								<line clip-path="url(#SVGID_6_)" fill="none" stroke="#BFBFBF" stroke-width="0.6617" stroke-miterlimit="10" x1="154.185" y1="215.646" x2="154.185" y2="206.881"/>
							
								<line clip-path="url(#SVGID_6_)" fill="none" stroke="#BFBFBF" stroke-width="0.6617" stroke-miterlimit="10" x1="181.851" y1="215.646" x2="181.851" y2="206.881"/>
						</g>
						<path fill="#FFFFFF" d="M157.393,183.014v14.842c0,0,0,5.936,5.937,5.936h8.904c0,0,5.937,0,5.937-5.936v-14.842H157.393z"/>
						<path fill="#A6A8AB" d="M157.393,193.575c0,0,0,5.274,5.937,5.274h8.904c0,0,5.937,0,5.937-5.274v7.91
							c0,0,0,5.274-5.937,5.274h-8.904c0,0-5.937,0-5.937-5.274V193.575z"/>
						<path fill="#E6E7E8" d="M157.393,197.855c0,0-2.968,0-2.968-2.969v-2.969c0,0,0-2.969,2.968-2.969V197.855z"/>
						<path fill="#E6E7E8" d="M178.171,188.949c0,0,2.968,0,2.968,2.969v2.969c0,0,0,2.969-2.968,2.969V188.949z"/>
						<path fill="#6D6E70" stroke="#6D6E70" stroke-miterlimit="10" d="M175.202,183.014c0,0,0,8.904,2.969,8.904v-8.904H175.202z"
							/>
						<path fill="#6D6E70" stroke="#6D6E70" stroke-miterlimit="10" d="M160.361,183.014c0,0,0,8.904-2.968,8.904v-8.904H160.361z"
							/>
						<path fill="#404041" d="M163.33,200.822c0,0,0,2.969,2.968,2.969h2.968c0,0,2.968,0,2.968-2.969H163.33z"/>
						<path fill="#FFFFFF" d="M163.33,200.822c0,0,0,0.929,2.968,0.929h2.968c0,0,2.968,0,2.968-0.929H163.33z"/>
						<path fill="#404041" d="M161.549,192.809c0,0,0-0.891,0.89-0.891c0,0,0.891,0,0.891,0.891v1.781c0,0,0,0.889-0.891,0.889
							c-0.89,0-0.89-0.889-0.89-0.889V192.809z"/>
						<path fill="#404041" d="M172.234,192.809c0,0,0-0.891,0.891-0.891c0,0,0.89,0,0.89,0.891v1.781c0,0,0,0.889-0.89,0.889
							c-0.891,0-0.891-0.889-0.891-0.889V192.809z"/>
						
							<path fill="none" stroke="#6D6E70" stroke-width="0.4458" stroke-linecap="round" stroke-linejoin="round" stroke-miterlimit="10" d="
							M160.361,189.842c0,0,2.007-2.006,4.013,0"/>
						
							<path fill="none" stroke="#6D6E70" stroke-width="0.4458" stroke-linecap="round" stroke-linejoin="round" stroke-miterlimit="10" d="
							M170.916,189.842c0,0,2.006-2.006,4.012,0"/>
						<path fill="#A6A8AB" d="M166.002,196.205c0,0,0,0.891,1.781,0.891c1.78,0,1.78-0.891,1.78-0.891H166.002z"/>
						<path fill="#6D6E70" stroke="#6D6E70" stroke-miterlimit="10" d="M157.393,183.014c0,0,0-2.969,2.968-2.969
							c0,0,0-8.904,14.841-2.969c0,0,5.937,2.969,8.905,2.969C184.107,180.045,157.393,194.887,157.393,183.014z"/>
						<polygon fill="#E6E7E8" points="163.246,206.76 163.246,209.727 167.699,212.695 172.151,209.727 172.151,206.76 						"/>
					</g>
					<g>
						<path fill="#404041" d="M78.899,223.203c0,0-10.524,7.016-10.524,28.064h38.587c0,0,0-21.049-10.524-28.064H78.899z"/>
						<path fill="#A6A8AB" d="M83.216,255.045h-2.968c0,0-5.937,0-5.937,5.938v2.969h26.714v-2.969c0,0,0-5.938-5.937-5.938H83.216z
							"/>
						<path fill="#FFFFFF" d="M77.28,228.33v17.811c0,0,0,5.938,5.937,5.938h8.905c0,0,5.937,0,5.937-5.938V228.33H77.28z"/>
						<path fill="#E6E7E8" d="M77.28,246.141c0,0-2.968,0-2.968-2.969v-2.969c0,0,0-2.967,2.968-2.967V246.141z"/>
						<path fill="#E6E7E8" d="M98.057,237.236c0,0,2.968,0,2.968,2.967v2.969c0,0,0,2.969-2.968,2.969V237.236z"/>
						<path fill="#404041" d="M83.216,246.141c0,0,0,2.969,2.968,2.969h2.968c0,0,2.968,0,2.968-2.969H83.216z"/>
						<path fill="#E6E7E8" d="M83.216,246.141c0,0,0,1.026,2.968,1.026h2.968c0,0,2.968,0,2.968-1.026H83.216z"/>
						<path fill="#404041" d="M81.435,239.609c0,0,0-0.891,0.891-0.891c0,0,0.891,0,0.891,0.891v1.781c0,0,0,0.891-0.891,0.891
							s-0.891-0.891-0.891-0.891V239.609z"/>
						<path fill="#404041" d="M92.121,239.609c0,0,0-0.891,0.891-0.891c0,0,0.89,0,0.89,0.891v1.781c0,0,0,0.891-0.89,0.891
							c-0.891,0-0.891-0.891-0.891-0.891V239.609z"/>
						<path fill="#A6A8AB" d="M85.887,242.281c0,0,0,0.891,1.781,0.891s1.781-0.891,1.781-0.891H85.887z"/>
						<path fill="#D0D2D3" d="M83.216,252.078v2.967c0,0,0,2.967,4.452,2.967c4.453,0,4.453-2.967,4.453-2.967v-2.967H83.216z"/>
						
							<path fill="none" stroke="#6D6E70" stroke-width="0.4458" stroke-linecap="round" stroke-linejoin="round" stroke-miterlimit="10" d="
							M80.248,237.236c0,0,2.006-2.008,4.013,0"/>
						
							<path fill="none" stroke="#6D6E70" stroke-width="0.4458" stroke-linecap="round" stroke-linejoin="round" stroke-miterlimit="10" d="
							M90.802,237.236c0,0,2.006-2.008,4.012,0"/>
						<path fill="#404041" stroke="#404041" stroke-miterlimit="10" d="M77.28,234.268h5.937c0,0,0-5.938,2.968-5.938v5.938h11.873
							v-5.938c0,0,0-2.969-2.968-2.969H80.248c0,0-2.968,0-2.968,2.969V234.268z"/>
						<circle fill="#FFFFFF" cx="99.628" cy="247.756" r="0.945"/>
						<circle fill="#FFFFFF" cx="75.419" cy="247.756" r="0.945"/>
					</g>
					<g>
						<path fill="#A6A8AB" d="M83.216,206.779H77.28c0,0-5.937,0-5.937,5.936v2.967h32.651v-2.967c0,0,0-5.936-5.937-5.936H83.216z"
							/>
						<path fill="#6D6E70" stroke="#6D6E70" stroke-width="0.6947" stroke-miterlimit="10" d="M93.662,206.779
							c0,2.26-2.684,4.092-5.994,4.092c-3.31,0-5.994-1.832-5.994-4.092"/>
						<path fill="#FFFFFF" d="M77.28,180.064v17.809c0,0,0,5.938,5.937,5.938h8.905c0,0,5.937,0,5.937-5.938v-17.809H77.28z"/>
						<path fill="#E6E7E8" d="M77.28,197.873c0,0-2.968,0-2.968-2.967v-2.969c0,0,0-2.969,2.968-2.969V197.873z"/>
						<path fill="#E6E7E8" d="M98.057,188.969c0,0,2.968,0,2.968,2.969v2.969c0,0,0,2.967-2.968,2.967V188.969z"/>
						<path fill="#404041" stroke="#404041" stroke-miterlimit="10" d="M80.248,177.096c0,0-2.968,0-2.968,2.969v8.904
							c0,0,2.968-2.969,2.968-5.936c0,0,2.968,2.967,11.873,2.967l-2.968-2.967c0,0,5.937,2.967,8.905,2.967v-5.936
							c0,0,0-2.969-2.968-2.969H80.248z"/>
						<path fill="#404041" d="M95.089,183.033c0,0,0,5.936,2.968,5.936v-5.936H95.089z"/>
						<path fill="#404041" d="M83.216,197.873c0,0,0,2.969,2.968,2.969h2.968c0,0,2.968,0,2.968-2.969H83.216z"/>
						<path fill="#E6E7E8" d="M83.216,197.873c0,0,0,1.128,2.968,1.128h2.968c0,0,2.968,0,2.968-1.128H83.216z"/>
						<path fill="#404041" d="M81.435,191.344c0,0,0-0.891,0.891-0.891c0,0,0.891,0,0.891,0.891v1.781c0,0,0,0.889-0.891,0.889
							s-0.891-0.889-0.891-0.889V191.344z"/>
						<path fill="#404041" d="M92.121,191.344c0,0,0-0.891,0.891-0.891c0,0,0.89,0,0.89,0.891v1.781c0,0,0,0.889-0.89,0.889
							c-0.891,0-0.891-0.889-0.891-0.889V191.344z"/>
						<path fill="#A6A8AB" d="M85.887,194.906c0,0,0,0.889,1.781,0.889s1.781-0.889,1.781-0.889H85.887z"/>
						<path fill="#D0D2D3" d="M83.216,203.811v2.969c0,0,0,2.967,4.452,2.967c4.453,0,4.453-2.967,4.453-2.967v-2.969H83.216z"/>
						
							<path fill="none" stroke="#6D6E70" stroke-width="0.4458" stroke-linecap="round" stroke-linejoin="round" stroke-miterlimit="10" d="
							M80.248,187.969c0,0,2.006-2.006,4.013,0"/>
						
							<path fill="none" stroke="#6D6E70" stroke-width="0.4458" stroke-linecap="round" stroke-linejoin="round" stroke-miterlimit="10" d="
							M90.802,187.969c0,0,2.006-2.006,4.012,0"/>
						<g>
							
								<path fill="none" stroke="#58595B" stroke-width="1.1543" stroke-linecap="round" stroke-linejoin="round" stroke-miterlimit="10" d="
								M77.115,189.299v4.451c0,0,0,1.484,1.484,1.484h4.453c0,0,2.968,0,2.968-5.936H77.115z"/>
							
								<path fill="none" stroke="#58595B" stroke-width="1.1543" stroke-linecap="round" stroke-linejoin="round" stroke-miterlimit="10" d="
								M97.892,189.299v4.451c0,0,0,1.484-1.484,1.484h-4.452c0,0-2.968,0-2.968-5.936H97.892z"/>
							
								<path fill="none" stroke="#58595B" stroke-width="1.1543" stroke-linecap="round" stroke-linejoin="round" stroke-miterlimit="10" d="
								M86.019,192.266c0,0,1.484-1.484,2.969,0"/>
							
								<line fill="none" stroke="#58595B" stroke-width="1.1543" stroke-linecap="round" stroke-linejoin="round" stroke-miterlimit="10" x1="75.631" y1="189.299" x2="77.115" y2="189.299"/>
							
								<line fill="none" stroke="#58595B" stroke-width="1.1543" stroke-linecap="round" stroke-linejoin="round" stroke-miterlimit="10" x1="97.892" y1="189.299" x2="99.377" y2="189.299"/>
						</g>
					</g>
					<g>
						<path fill="#FFFFFF" d="M173.691,256.664h-4.371h-4.372c-4.372,0-4.372,4.371-4.372,4.371v2.916h8.743h8.743v-2.916
							C178.063,261.035,178.063,256.664,173.691,256.664z"/>
						<path fill="#E6E7E8" d="M176.983,258.012c0,1.641-3.322,2.971-7.42,2.971c-4.099,0-7.421-1.33-7.421-2.971
							c0-1.637,3.322-2.967,7.421-2.967C173.661,255.045,176.983,256.375,176.983,258.012z"/>
						<path fill="#FFFFFF" d="M158.635,249.377v-9.713c0,0,4.856,0,4.856,9.713H158.635z"/>
						<path fill="#A6A8AB" d="M158.635,249.377v-9.713c0,0,2.429,0,2.429,9.713H158.635z"/>
						<path fill="#FFFFFF" d="M180.491,249.377v-9.713c0,0-4.856,0-4.856,9.713H180.491z"/>
						<path fill="#A6A8AB" d="M180.491,249.377v-9.713c0,0-2.428,0-2.428,9.713H180.491z"/>
						<path fill="#FFFFFF" d="M158.635,254.234c0,0,0,4.857,4.856,4.857h12.144c0,0,4.856,0,4.856-4.857v-4.857
							c0,0,0-4.855-4.856-4.855h-12.144c0,0-4.856,0-4.856,4.855V254.234z"/>
						<path fill="#404041" d="M163.491,251.02c0,0,0-0.902,0.903-0.902c0,0,0.901,0,0.901,0.902v1.803c0,0,0,0.904-0.901,0.904
							c-0.903,0-0.903-0.904-0.903-0.904V251.02z"/>
						<path fill="#404041" d="M174.316,251.02c0,0,0-0.902,0.902-0.902c0,0,0.902,0,0.902,0.902v1.803c0,0,0,0.904-0.902,0.904
							c-0.902,0-0.902-0.904-0.902-0.904V251.02z"/>
						<path fill="#808184" d="M167.831,255.377c0,0,0-1.143,0.794-1.143h1.588c0,0,0.795,0,0.795,1.143
							C171.009,255.377,169.42,257.664,167.831,255.377z"/>
						<g>
							
								<line fill="none" stroke="#808184" stroke-width="0.3298" stroke-miterlimit="10" x1="165.92" y1="255.084" x2="156.205" y2="254.234"/>
							
								<line fill="none" stroke="#808184" stroke-width="0.3298" stroke-miterlimit="10" x1="156.205" y1="255.936" x2="165.92" y2="255.936"/>
							
								<line fill="none" stroke="#808184" stroke-width="0.3298" stroke-miterlimit="10" x1="156.205" y1="257.635" x2="165.92" y2="256.787"/>
						</g>
						<g>
							
								<line fill="none" stroke="#808184" stroke-width="0.3298" stroke-miterlimit="10" x1="173.206" y1="255.084" x2="182.92" y2="254.234"/>
							
								<line fill="none" stroke="#808184" stroke-width="0.3298" stroke-miterlimit="10" x1="182.92" y1="255.936" x2="173.206" y2="255.936"/>
							
								<line fill="none" stroke="#808184" stroke-width="0.3298" stroke-miterlimit="10" x1="182.92" y1="257.635" x2="173.206" y2="256.787"/>
						</g>
						<g>
							<defs>
								<rect id="SVGID_7_" x="178.063" y="246.811" width="13.943" height="17.141"/>
							</defs>
							<clipPath id="SVGID_8_">
								<use xlink:href="#SVGID_7_"  overflow="visible"/>
							</clipPath>
							
								<path clip-path="url(#SVGID_8_)" fill="none" stroke="#FFFFFF" stroke-width="2.2357" stroke-linecap="round" stroke-linejoin="round" stroke-miterlimit="10" d="
								M182.11,264.756c0,0,7.638-4.717,5.193-15.441"/>
						</g>
					</g>
				</g>
				<g>
					<g>
						<rect x="135.15" y="221.721" fill="#FFFFFF" width="7.088" height="1.574"/>
						<rect x="143.026" y="221.721" fill="#FFFFFF" width="10.236" height="1.574"/>
						<rect x="135.15" y="224.084" fill="#FFFFFF" width="3.15" height="0.787"/>
						<rect x="139.088" y="224.084" fill="#FFFFFF" width="4.726" height="0.787"/>
						<rect x="144.601" y="224.084" fill="#FFFFFF" width="3.15" height="0.787"/>
					</g>
					<g>
						<rect x="52.662" y="173.42" fill="#FFFFFF" width="7.088" height="1.574"/>
						<rect x="60.537" y="173.42" fill="#FFFFFF" width="6.3" height="1.574"/>
						<rect x="52.662" y="175.783" fill="#FFFFFF" width="3.15" height="0.787"/>
						<rect x="56.6" y="175.783" fill="#FFFFFF" width="4.725" height="0.787"/>
					</g>
					<g>
						<rect x="135.15" y="173.42" fill="#FFFFFF" width="5.512" height="1.574"/>
						<rect x="141.45" y="173.42" fill="#FFFFFF" width="7.875" height="1.574"/>
						<rect x="135.15" y="175.783" fill="#FFFFFF" width="4.725" height="0.787"/>
						<rect x="140.662" y="175.783" fill="#FFFFFF" width="4.725" height="0.787"/>
						<rect x="146.175" y="175.783" fill="#FFFFFF" width="5.513" height="0.787"/>
					</g>
					<g>
						<rect x="52.662" y="221.721" fill="#FFFFFF" width="7.088" height="1.574"/>
						<rect x="52.662" y="224.084" fill="#FFFFFF" width="4.726" height="0.787"/>
					</g>
				</g>
			</g>
		</g>
		<g>
			<circle fill="none" stroke="#FFFFFF" stroke-width="0.3334" stroke-miterlimit="10" cx="121.633" cy="175.395" r="1.565"/>
			<circle fill="none" stroke="#FFFFFF" stroke-width="0.3334" stroke-miterlimit="10" cx="205.109" cy="175.395" r="1.565"/>
			<circle fill="none" stroke="#FFFFFF" stroke-width="0.3334" stroke-miterlimit="10" cx="121.633" cy="223.402" r="1.565"/>
			<circle fill="none" stroke="#FFFFFF" stroke-width="0.3334" stroke-miterlimit="10" cx="205.109" cy="223.402" r="1.565"/>
			<circle fill="#FFFFFF" cx="121.633" cy="175.395" r="1.034"/>
		</g>
	</g>
	<g>
		<circle fill="none" stroke="#FFFFFF" stroke-width="0.5" stroke-miterlimit="10" cx="281.299" cy="46.348" r="2.348"/>
		<circle fill="none" stroke="#FFFFFF" stroke-width="0.5" stroke-miterlimit="10" cx="397.496" cy="46.348" r="2.348"/>
		<circle fill="none" stroke="#FFFFFF" stroke-width="0.5" stroke-miterlimit="10" cx="281.299" cy="118.351" r="2.348"/>
		<circle fill="none" stroke="#FFFFFF" stroke-width="0.5" stroke-miterlimit="10" cx="397.496" cy="118.351" r="2.348"/>
		<circle fill="#FFFFFF" cx="281.299" cy="46.348" r="1.551"/>
	</g>
	<g>
		<g>
			<path fill="#F1F1F2" d="M388.606,202.489c0,0,0-3.128,3.129-3.128h37.549c0,0,3.129,0,3.129,3.128v62.581
				c0,0,0,3.129-3.129,3.129h-37.549c0,0-3.129,0-3.129-3.129V202.489z"/>
			<rect x="391.735" y="205.618" fill="#0B395A" width="37.549" height="56.322"/>
			<circle fill="#A5A8AB" cx="410.509" cy="265.07" r="1.97"/>
			<circle fill="#808184" cx="401.121" cy="202.316" r="1.888"/>
			<circle fill="#404041" cx="401.122" cy="202.316" r="1.128"/>
			<path fill="#929497" d="M415.724,202.316c0,0.479-0.389,0.869-0.868,0.869h-8.693c-0.479,0-0.869-0.39-0.869-0.869l0,0
				c0-0.48,0.39-0.869,0.869-0.869h8.693C415.335,201.447,415.724,201.836,415.724,202.316L415.724,202.316z"/>
			<rect x="388.606" y="205.618" fill="#D0D2D3" width="3.129" height="56.322"/>
			<rect x="429.283" y="205.618" fill="#D0D2D3" width="3.129" height="56.322"/>
		</g>
		<g>
			<path fill="#A6A8AB" d="M405.539,251.839h-6.736c0,0-6.735,0-6.735,6.734v3.367h37.045v-3.367c0,0,0-6.734-6.735-6.734H405.539z"
				/>
			<path fill="#6D6E70" stroke="#6D6E70" stroke-width="0.7843" stroke-miterlimit="10" d="M417.052,251.838
				c0,2.551-3.029,4.619-6.767,4.619c-3.736,0-6.767-2.068-6.767-4.619"/>
			<path fill="#FFFFFF" d="M398.803,221.529v20.206c0,0,0,6.735,6.736,6.735h10.103c0,0,6.735,0,6.735-6.735v-20.206H398.803z"/>
			<path fill="#E6E7E8" d="M398.803,241.735c0,0-3.367,0-3.367-3.368V235c0,0,0-3.368,3.367-3.368V241.735z"/>
			<path fill="#E6E7E8" d="M422.377,231.632c0,0,3.368,0,3.368,3.368v3.367c0,0,0,3.368-3.368,3.368V231.632z"/>
			<path fill="#404041" stroke="#404041" stroke-width="0.7611" stroke-miterlimit="10" d="M402.172,218.161
				c0,0-3.369,0-3.369,3.368v10.103c0,0,3.369-3.368,3.369-6.736c0,0,3.367,3.368,13.47,3.368l-3.367-3.368
				c0,0,6.734,3.368,10.103,3.368v-6.734c0,0,0-3.368-3.368-3.368H402.172z"/>
			<path fill="#404041" d="M419.009,224.896c0,0,0,6.736,3.368,6.736v-6.736H419.009z"/>
			<path fill="#404041" d="M405.539,241.735c0,0,0,3.368,3.368,3.368h3.367c0,0,3.367,0,3.367-3.368H405.539z"/>
			<path fill="#E6E7E8" d="M405.539,241.735c0,0,0,0.89,3.368,0.89h3.367c0,0,3.367,0,3.367-0.89H405.539z"/>
			<path fill="#404041" d="M403.519,234.327c0,0,0-1.011,1.01-1.011c0,0,1.011,0,1.011,1.011v2.02c0,0,0,1.011-1.011,1.011
				c-1.01,0-1.01-1.011-1.01-1.011V234.327z"/>
			<path fill="#404041" d="M415.642,234.327c0,0,0-1.011,1.011-1.011c0,0,1.01,0,1.01,1.011v2.02c0,0,0,1.011-1.01,1.011
				c-1.011,0-1.011-1.011-1.011-1.011V234.327z"/>
			<path fill="#A6A8AB" d="M408.57,238.367c0,0,0,1.011,2.021,1.011s2.021-1.011,2.021-1.011H408.57z"/>
			<path fill="#D0D2D3" d="M405.539,248.471v3.368c0,0,0,3.366,5.051,3.366c5.052,0,5.052-3.366,5.052-3.366v-3.368H405.539z"/>
			
				<path fill="none" stroke="#6D6E70" stroke-width="0.5058" stroke-linecap="round" stroke-linejoin="round" stroke-miterlimit="10" d="
				M402.172,230.11c0,0,2.275-2.276,4.552,0"/>
			
				<path fill="none" stroke="#6D6E70" stroke-width="0.5058" stroke-linecap="round" stroke-linejoin="round" stroke-miterlimit="10" d="
				M414.146,230.11c0,0,2.277-2.276,4.553,0"/>
			<g>
				
					<path fill="none" stroke="#58595B" stroke-width="1.3096" stroke-linecap="round" stroke-linejoin="round" stroke-miterlimit="10" d="
					M398.616,232.007v5.052c0,0,0,1.684,1.684,1.684h5.052c0,0,3.368,0,3.368-6.735H398.616z"/>
				
					<path fill="none" stroke="#58595B" stroke-width="1.3096" stroke-linecap="round" stroke-linejoin="round" stroke-miterlimit="10" d="
					M422.19,232.007v5.052c0,0,0,1.684-1.683,1.684h-5.052c0,0-3.367,0-3.367-6.735H422.19z"/>
				
					<path fill="none" stroke="#58595B" stroke-width="1.3096" stroke-linecap="round" stroke-linejoin="round" stroke-miterlimit="10" d="
					M408.72,235.374c0,0,1.684-1.685,3.368,0"/>
				
					<line fill="none" stroke="#58595B" stroke-width="1.3096" stroke-linecap="round" stroke-linejoin="round" stroke-miterlimit="10" x1="396.933" y1="232.007" x2="398.616" y2="232.007"/>
				
					<line fill="none" stroke="#58595B" stroke-width="1.3096" stroke-linecap="round" stroke-linejoin="round" stroke-miterlimit="10" x1="422.19" y1="232.007" x2="423.874" y2="232.007"/>
			</g>
		</g>
		<g>
			<rect x="394.864" y="210.14" fill="#FFFFFF" width="8.042" height="1.786"/>
			<rect x="403.798" y="210.14" fill="#FFFFFF" width="7.147" height="1.786"/>
			<rect x="394.864" y="212.82" fill="#FFFFFF" width="3.573" height="0.893"/>
			<rect x="399.33" y="212.82" fill="#FFFFFF" width="5.361" height="0.893"/>
		</g>
		<g>
			<circle fill="none" stroke="#FFFFFF" stroke-width="0.4524" stroke-miterlimit="10" cx="424.886" cy="211.965" r="2.124"/>
			<circle fill="#FFFFFF" cx="424.886" cy="211.965" r="1.403"/>
		</g>
	</g>
	<g>
		<g>
			<path fill="#E6E7E8" d="M428.178,174.191c0,0-0.724-4.485,3.762-5.209l62.81-10.133c0,0,4.487-0.725,5.211,3.76l14.477,89.729
				c0,0,0.724,4.486-3.764,5.21l-62.81,10.134c0,0-4.485,0.724-5.209-3.764L428.178,174.191z"/>
			
				<rect x="439.495" y="172.365" transform="matrix(0.9872 -0.1593 0.1593 0.9872 -27.9518 77.792)" fill="#55A4CB" width="63.623" height="81.8"/>
			<circle fill="#A5A8AB" cx="478.546" cy="258.129" r="2.532"/>
			<g>
				<circle fill="#808184" cx="435.259" cy="173.054" r="2.606"/>
				<circle fill="#404041" cx="435.26" cy="173.054" r="1.557"/>
			</g>
		</g>
		<g>
			<path fill="#FFFFFF" d="M483.466,241.73l-6.433,1.038l-6.434,1.038c-6.434,1.038-5.396,7.469-5.396,7.469l0.691,4.292
				l12.867-2.076l12.866-2.076l-0.692-4.291C490.937,247.124,489.899,240.692,483.466,241.73z"/>
			<path fill="#E6E7E8" d="M488.63,242.934c0.39,2.413-4.184,5.157-10.214,6.131c-6.033,0.973-11.237-0.194-11.627-2.607
				c-0.389-2.41,4.185-5.156,10.217-6.13C483.036,239.354,488.241,240.522,488.63,242.934z"/>
			<path fill="#FFFFFF" d="M459.577,234.583l-2.307-14.296c0,0,7.147-1.153,9.454,13.143L459.577,234.583z"/>
			<path fill="#A6A8AB" d="M459.577,234.583l-2.307-14.296c0,0,3.574-0.576,5.881,13.719L459.577,234.583z"/>
			<path fill="#FFFFFF" d="M491.743,229.394l-2.307-14.296c0,0-7.148,1.153-4.842,15.449L491.743,229.394z"/>
			<path fill="#A6A8AB" d="M491.743,229.394l-2.307-14.296c0,0-3.574,0.577-1.268,14.872L491.743,229.394z"/>
			<path fill="#FFFFFF" d="M460.73,241.73c0,0,1.153,7.149,8.302,5.996l17.87-2.884c0,0,7.147-1.152,5.994-8.302l-1.152-7.147
				c0,0-1.153-7.147-8.302-5.995l-17.87,2.884c0,0-7.147,1.153-5.994,8.301L460.73,241.73z"/>
			<path fill="#404041" d="M467.115,235.845c0,0-0.214-1.325,1.114-1.54c0,0,1.327-0.214,1.541,1.111l0.428,2.655
				c0,0,0.215,1.329-1.112,1.543c-1.328,0.214-1.543-1.114-1.543-1.114L467.115,235.845z"/>
			<path fill="#404041" d="M483.044,233.274c0,0-0.214-1.325,1.113-1.539c0,0,1.329-0.215,1.543,1.111l0.428,2.654
				c0,0,0.215,1.329-1.114,1.543c-1.327,0.215-1.541-1.114-1.541-1.114L483.044,233.274z"/>
			<path fill="#808184" d="M474.536,241.229c0,0-0.271-1.682,0.898-1.87l2.337-0.377c0,0,1.169-0.188,1.44,1.492
				C479.212,240.474,477.417,244.216,474.536,241.229z"/>
			<g>
				
					<line fill="none" stroke="#808184" stroke-width="0.4916" stroke-miterlimit="10" x1="471.655" y1="241.252" x2="457.156" y2="242.308"/>
				
					<line fill="none" stroke="#808184" stroke-width="0.4916" stroke-miterlimit="10" x1="457.56" y1="244.811" x2="471.857" y2="242.504"/>
				
					<line fill="none" stroke="#808184" stroke-width="0.4916" stroke-miterlimit="10" x1="457.963" y1="247.312" x2="472.059" y2="243.755"/>
			</g>
			<g>
				
					<line fill="none" stroke="#808184" stroke-width="0.4916" stroke-miterlimit="10" x1="482.376" y1="239.522" x2="496.47" y2="235.965"/>
				
					<line fill="none" stroke="#808184" stroke-width="0.4916" stroke-miterlimit="10" x1="496.874" y1="238.468" x2="482.578" y2="240.773"/>
				
					<line fill="none" stroke="#808184" stroke-width="0.4916" stroke-miterlimit="10" x1="497.278" y1="240.97" x2="482.781" y2="242.025"/>
			</g>
			<g>
				<defs>
					
						<rect id="SVGID_9_" x="488.59" y="225.735" transform="matrix(0.986 -0.1668 0.1668 0.986 -32.702 86.4656)" width="19.906" height="24.47"/>
				</defs>
				<clipPath id="SVGID_10_">
					<use xlink:href="#SVGID_9_"  overflow="visible"/>
				</clipPath>
				
					<path clip-path="url(#SVGID_10_)" fill="none" stroke="#FFFFFF" stroke-width="3.1918" stroke-linecap="round" stroke-linejoin="round" stroke-miterlimit="10" d="
					M496.656,251.862c0,0,9.63-8.458,3.635-22.973"/>
			</g>
		</g>
		<g>
			
				<rect x="440.223" y="181.393" transform="matrix(0.9872 -0.1592 0.1592 0.9872 -23.3873 73.2726)" fill="#FFFFFF" width="10.566" height="2.347"/>
			
				<rect x="451.784" y="179.149" transform="matrix(0.9872 -0.1593 0.1593 0.9872 -22.8578 75.4828)" fill="#FFFFFF" width="15.259" height="2.347"/>
			
				<rect x="440.729" y="185.345" transform="matrix(0.9873 -0.1591 0.1591 0.9873 -23.9381 72.8625)" fill="#FFFFFF" width="4.696" height="1.173"/>
			
				<rect x="446.508" y="184.222" transform="matrix(0.9872 -0.1593 0.1593 0.9872 -23.6925 74.0467)" fill="#FFFFFF" width="7.044" height="1.174"/>
			
				<rect x="454.637" y="183.1" transform="matrix(0.9872 -0.1593 0.1593 0.9872 -23.4262 75.1454)" fill="#FFFFFF" width="4.696" height="1.174"/>
		</g>
		<circle fill="none" stroke="#FFFFFF" stroke-width="0.5944" stroke-miterlimit="10" cx="490.116" cy="176.558" r="2.792"/>
	</g>
	<circle opacity="0.2" fill="#808184" cx="216.859" cy="242.643" r="10.623"/>
	<circle opacity="0.2" fill="#808184" cx="229.477" cy="230.11" r="4.857"/>
	<circle opacity="0.1" fill="#808184" cx="220.68" cy="218.505" r="7.358"/>
	<ellipse opacity="0.1" fill="#808184" cx="220.68" cy="282.891" rx="24.513" ry="2.275"/>
	<g>
		<linearGradient id="SVGID_11_" gradientUnits="userSpaceOnUse" x1="220.6799" y1="275.8545" x2="220.6799" y2="246.5945">
			<stop  offset="0" style="stop-color:#F37D30"/>
			<stop  offset="0.125" style="stop-color:#F27238"/>
			<stop  offset="0.4047" style="stop-color:#F05F47"/>
			<stop  offset="0.6929" style="stop-color:#EF544F"/>
			<stop  offset="1" style="stop-color:#EF5052"/>
		</linearGradient>
		<path fill="url(#SVGID_11_)" d="M203.18,242.892v35c0,0,0,5,5,5h25c0,0,5,0,5-5v-35H203.18z"/>
		<linearGradient id="SVGID_12_" gradientUnits="userSpaceOnUse" x1="241.7908" y1="275.1143" x2="241.7908" y2="245.6689">
			<stop  offset="0" style="stop-color:#F37D30"/>
			<stop  offset="0.125" style="stop-color:#F27238"/>
			<stop  offset="0.4047" style="stop-color:#F05F47"/>
			<stop  offset="0.6929" style="stop-color:#EF544F"/>
			<stop  offset="1" style="stop-color:#EF5052"/>
		</linearGradient>
		<path fill="none" stroke="url(#SVGID_12_)" stroke-width="4.4444" stroke-miterlimit="10" d="M233.18,247.892h10c0,0,5,0,5,5v15
			c0,0,0,5-5,5h-10"/>
		<g>
			<defs>
				<rect id="SVGID_13_" x="203.18" y="242.892" width="35" height="40"/>
			</defs>
			<clipPath id="SVGID_14_">
				<use xlink:href="#SVGID_13_"  overflow="visible"/>
			</clipPath>
			<g clip-path="url(#SVGID_14_)">
				<path fill="#FFFFFF" d="M216.304,270.02c-5.536,0.002-10.026-4.484-10.028-10.022c-0.002-5.537,4.485-10.027,10.021-10.028
					c5.537-0.003,10.028,4.484,10.029,10.021c0,0.003,0,0.007,0,0.01C226.318,265.531,221.835,270.013,216.304,270.02z
					 M216.304,251.368c-4.765-0.002-8.63,3.859-8.632,8.625c-0.001,4.766,3.859,8.631,8.625,8.633s8.631-3.86,8.633-8.626
					c-0.002-4.764-3.86-8.628-8.626-8.635V251.368z"/>
				<path fill="#FFFFFF" d="M216.304,276.877c-9.317-0.009-16.87-7.558-16.883-16.877c0-1.433,1.161-2.594,2.595-2.594
					c1.432,0,2.593,1.161,2.593,2.594c0,6.46,5.237,11.696,11.695,11.696c6.46,0,11.696-5.236,11.696-11.696
					c-0.089-1.428,0.997-2.659,2.426-2.749c1.428-0.089,2.659,0.997,2.749,2.426c0.006,0.107,0.006,0.216,0,0.323
					C233.161,269.313,225.618,276.86,216.304,276.877z"/>
				<path fill="#FFFFFF" d="M209.558,260c0,3.727,3.021,6.747,6.746,6.747c3.727,0,6.747-3.021,6.747-6.747H209.558z"/>
			</g>
		</g>
	</g>
	<g>
		<rect x="311.25" y="233" fill="#6D6E70" width="31.5" height="4.5"/>
		<rect x="311.25" y="235.25" fill="#282828" width="31.5" height="2.25"/>
		<circle fill="#282828" cx="327" cy="235.25" r="11.25"/>
		<circle fill="#404041" cx="327" cy="235.25" r="9"/>
		<circle fill="#141414" cx="327" cy="235.25" r="6.75"/>
		<circle fill="none" stroke="#6D6E70" stroke-width="0.25" stroke-miterlimit="10" cx="327" cy="235.25" r="4.5"/>
		<path fill="#6D6E70" d="M338.801,228.694c1.081,1.941,1.699,4.176,1.699,6.556c0,7.456-6.044,13.5-13.5,13.5
			s-13.5-6.044-13.5-13.5c0-2.38,0.618-4.614,1.699-6.556l-3.934-2.186c-1.441,2.589-2.266,5.568-2.266,8.741
			c0,9.941,8.059,18,18,18s18-8.059,18-18c0-3.173-0.824-6.152-2.266-8.741L338.801,228.694z"/>
		<polygon fill="#282828" points="313.5,253.25 315.75,251 338.25,251 340.5,253.25 		"/>
		<path fill="#6D6E70" d="M313.5,253.25c0,0-4.5,0-6.75,2.25l-2.25,4.5l2.25,2.25H327v-9H313.5z"/>
		<path fill="#6D6E70" d="M340.5,253.25c0,0,4.5,0,6.75,2.25l2.25,4.5l-2.25,2.25H327v-9H340.5z"/>
		<polygon fill="#282828" points="304.5,260 349.5,260 347.25,262.25 306.75,262.25 		"/>
		<path fill="#6D6E70" d="M327,262.25h-36c0,0-2.25,3-4.5,9H327V262.25z"/>
		<path fill="#6D6E70" d="M327,262.25h36c0,0,2.25,3,4.5,9H327V262.25z"/>
		<path fill="#5B5B5B" d="M360.75,262.25h-31.5h-4.5h-31.5c0,0-2.25,3-4.5,9h36h4.5h36C363,265.25,360.75,262.25,360.75,262.25z"/>
		<g>
			<defs>
				<path id="SVGID_15_" d="M360.75,262.25h-31.5h-4.5h-31.5c0,0-2.25,3-4.5,9h36h4.5h36C363,265.25,360.75,262.25,360.75,262.25z"
					/>
			</defs>
			<clipPath id="SVGID_16_">
				<use xlink:href="#SVGID_15_"  overflow="visible"/>
			</clipPath>
			<rect x="288.75" y="266.75" clip-path="url(#SVGID_16_)" fill="#353535" width="76.5" height="4.5"/>
		</g>
		<path fill="#2A76B4" d="M300,267.271c0,0.145-0.117,0.261-0.261,0.261h-3.979c-0.144,0-0.261-0.116-0.261-0.261v-1.044
			c0-0.144,0.117-0.261,0.261-0.261h3.979c0.144,0,0.261,0.117,0.261,0.261V267.271z"/>
		<path fill="#404041" d="M313.5,253.25c0,0-2.25,2.25-2.25,6.75H327v-6.75H313.5z"/>
		<path fill="#404041" d="M340.5,253.25c0,0,2.25,2.25,2.25,6.75H327v-6.75H340.5z"/>
		<path fill="#2A76B4" d="M329.25,257.75c0,0.248-0.201,0.449-0.449,0.449h-3.602c-0.248,0-0.449-0.201-0.449-0.449l0,0
			c0-0.248,0.201-0.449,0.449-0.449h3.602C329.049,257.301,329.25,257.502,329.25,257.75L329.25,257.75z"/>
		<circle opacity="0.3" fill="#FFFFFF" cx="330.375" cy="231.875" r="3.375"/>
		<circle opacity="0.3" fill="#FFFFFF" cx="328.125" cy="234.125" r="1.125"/>
	</g>
</g>
</svg>
