<?xml version="1.0" encoding="utf-8"?>
<!-- Generator: Adobe Illustrator 16.0.0, SVG Export Plug-In . SVG Version: 6.00 Build 0)  -->
<!DOCTYPE svg PUBLIC "-//W3C//DTD SVG 1.1//EN" "http://www.w3.org/Graphics/SVG/1.1/DTD/svg11.dtd">
<svg version="1.1" id="Layer_1" xmlns="http://www.w3.org/2000/svg" xmlns:xlink="http://www.w3.org/1999/xlink" x="0px" y="0px"
	 width="841.889px" height="210px" viewBox="0 194.14 841.889 210" enable-background="new 0 194.14 841.889 210"
	 xml:space="preserve">
<path fill="#FFFFFF" d="M115.701,342.366c-34.191,0.011-61.918-27.697-61.93-61.89c-0.011-34.191,27.697-61.918,61.889-61.93
	c34.192-0.011,61.919,27.697,61.93,61.889c0,0.02,0,0.041,0,0.062C177.533,314.651,149.855,342.32,115.701,342.366z
	 M115.701,227.195c-29.427-0.012-53.292,23.834-53.303,53.261c-0.012,29.427,23.835,53.292,53.262,53.304
	c29.427,0.012,53.292-23.835,53.303-53.262c-0.012-29.42-23.841-53.278-53.262-53.324V227.195z"/>
<path fill="#FFFFFF" d="M115.701,384.713c-57.539-0.057-104.176-46.676-104.256-104.215c0-8.846,7.171-16.018,16.017-16.018
	c8.847,0,16.019,7.172,16.019,16.018c0,39.886,32.334,72.221,72.221,72.221c39.887,0,72.221-32.335,72.221-72.221
	c-0.551-8.823,6.154-16.424,14.978-16.975c8.824-0.552,16.423,6.154,16.975,14.978c0.042,0.665,0.042,1.333,0,1.997
	C219.795,338.005,173.209,384.61,115.701,384.713z"/>
<path fill="#FFFFFF" d="M74.04,280.497c0,23.009,18.652,41.662,41.661,41.662c23.009,0,41.662-18.652,41.662-41.662H74.04z"/>
<path fill="#FFFFFF" d="M813.464,354.112c0.034-5.236,4.307-9.452,9.542-9.418c5.235,0.035,9.451,4.307,9.417,9.542
	c-0.034,5.212-4.269,9.418-9.479,9.418c-5.189,0.047-9.434-4.123-9.48-9.312C813.462,354.265,813.463,354.188,813.464,354.112z
	 M815.002,354.112c-0.012,4.385,3.535,7.95,7.921,7.962s7.95-3.535,7.962-7.92c0.012-4.387-3.534-7.951-7.921-7.963
	c-0.006,0-0.013,0-0.021,0c-4.374-0.012-7.929,3.525-7.941,7.899C815.002,354.097,815.002,354.105,815.002,354.112z
	 M827.268,359.496h-1.746l-2.765-4.906h-1.976v4.906h-1.538v-10.644h4.47c1.934,0,3.659,0.581,3.659,2.807
	c0.117,1.487-0.994,2.789-2.482,2.906c-0.122,0.01-0.243,0.011-0.366,0.004L827.268,359.496z M820.823,350.39v2.661h1.642
	c1.435,0,3.41,0.25,3.41-1.206c0-1.455-1.122-1.455-2.412-1.455H820.823L820.823,350.39z"/>
<rect x="298.437" y="245.676" fill="#FFFFFF" width="29.479" height="17.671"/>
<rect x="298.437" y="278.668" fill="#FFFFFF" width="29.479" height="84.883"/>
<rect x="254.822" y="245.676" fill="#FFFFFF" width="29.479" height="117.875"/>
<path fill="#FFFFFF" d="M444.209,349.101c-10.868,0.301-19.923-8.267-20.224-19.135c-0.009-0.309-0.01-0.617-0.004-0.927v-2.391
	h68.229c-0.25-14.946-5.052-27.545-13.991-36.547c-8.939-9.001-21.495-13.762-36.423-13.762c-28.584,0-48.562,18.71-48.562,45.735
	c0,27.026,19.126,43.928,48.729,43.928c11.144,0,37.13-2.369,45.985-23.533h-29.666C454.949,346.837,449.7,349.31,444.209,349.101z
	 M423.982,310.954c0-11.102,7.338-18.004,19.188-18.004c9.909,0.202,17.942,8.098,18.315,18.004v2.474h-37.421v-2.391
	L423.982,310.954z"/>
<polygon fill="#FFFFFF" points="632.163,299.602 676.173,299.602 632.163,342.366 632.163,363.57 710.953,363.57 710.953,342.366 
	668.709,342.366 711.286,299.602 711.327,278.668 632.205,278.668 "/>
<rect x="591.708" y="245.676" fill="#FFFFFF" width="29.479" height="17.691"/>
<rect x="591.708" y="278.668" fill="#FFFFFF" width="29.479" height="84.883"/>
<path fill="#FFFFFF" d="M766.959,349.101c-10.836,0.244-19.817-8.342-20.062-19.178c-0.006-0.295-0.006-0.59,0-0.884v-2.391h67.751
	c-0.208-14.968-5.03-27.545-13.887-36.568c-8.855-9.022-21.392-13.741-36.215-13.741c-28.376,0-48.188,18.71-48.188,45.735
	c0,27.026,19.085,43.824,48.376,43.824c11.06,0,36.839-2.37,45.611-23.533h-29.438C777.652,346.771,772.435,349.291,766.959,349.101
	z M746.898,310.954c0-11.102,7.297-18.004,19.043-18.004c9.892,0.195,17.893,8.114,18.189,18.004v2.474h-37.211v-2.391
	L746.898,310.954z"/>
<path fill="#FFFFFF" d="M547.24,310.641c-11.393-2.411-20.394-4.304-20.394-11.018c0-3.285,1.643-8.794,12.702-8.794
	c3.159-0.103,6.262,0.872,8.794,2.766c1.888,1.519,3.255,3.59,3.908,5.924h27.754c-2.559-15.612-16.425-23.18-42.058-23.18
	c-6.735,0-40.33,1.31-40.33,27.026c0,19.043,18.377,22.639,34.613,25.819c11.185,2.183,20.79,4.158,20.79,11.726
	c0,6.59-5.198,10.519-13.929,10.519c-3.725,0.073-7.372-1.065-10.396-3.243c-1.951-1.467-3.403-3.499-4.157-5.82h-29.104
	c4.594,20.394,28.169,23.533,42.202,23.533c29.811,0,46.213-10.208,46.213-28.751C583.849,318.604,563.643,314.093,547.24,310.641z"
	/>
<path fill="#FFFFFF" d="M393.672,243.306h-13.098c-23.18,0-33.533,4.926-33.533,34.198v1.164h-12.307V295.3h12.14v68.354h31.496
	v-68.251h15.322v-16.631h-15.426v-4.158c0-5.301,0.874-8.502,2.932-10.624c2.703-2.786,6.694-3.139,12.474-3.181V243.306
	L393.672,243.306z"/>
</svg>
