<?xml version="1.0" encoding="utf-8"?>
<!-- Generator: Adobe Illustrator 16.0.0, SVG Export Plug-In . SVG Version: 6.00 Build 0)  -->
<!DOCTYPE svg PUBLIC "-//W3C//DTD SVG 1.1//EN" "http://www.w3.org/Graphics/SVG/1.1/DTD/svg11.dtd">
<svg version="1.1" id="Layer_1" xmlns="http://www.w3.org/2000/svg" xmlns:xlink="http://www.w3.org/1999/xlink" x="0px" y="0px"
	 width="907.083px" height="259.482px" viewBox="129.74 298.77 907.083 259.482"
	 enable-background="new 129.74 298.77 907.083 259.482" xml:space="preserve">
<g>
	<g>
		<path fill="#ECB32D" d="M293.09,321.939c-3.927-11.781-16.535-18.189-28.316-14.469c-11.782,3.928-18.189,16.535-14.469,28.317
			l58.08,178.582c3.928,10.955,15.916,17.155,27.284,13.849c11.988-3.514,19.222-16.122,15.295-27.697
			C350.964,500.108,293.09,321.939,293.09,321.939z"/>
		<path fill="#63C1A0" d="M203.179,351.083c-3.927-11.781-16.535-18.189-28.317-14.469c-11.781,3.928-18.188,16.535-14.468,28.317
			l58.08,178.582c3.928,10.955,15.916,17.155,27.283,13.849c11.988-3.514,19.223-16.122,15.296-27.697
			C261.053,529.252,203.179,351.083,203.179,351.083z"/>
		<path fill="#E01A59" d="M366.259,469.725c11.782-3.927,18.189-16.535,14.469-28.317c-3.927-11.781-16.535-18.188-28.316-14.468
			l-178.79,58.287c-10.954,3.927-17.155,15.915-13.848,27.283c3.514,11.988,16.122,19.223,27.696,15.295
			C187.884,527.805,366.259,469.725,366.259,469.725z"/>
		<path fill="#331433" d="M210.826,520.364c11.575-3.721,26.663-8.681,42.785-13.849c-3.72-11.574-8.681-26.663-13.848-42.785
			l-42.786,13.849L210.826,520.364z"/>
		<path fill="#D62027" d="M300.945,491.014c16.122-5.167,31.211-10.128,42.785-13.849c-3.721-11.574-8.681-26.663-13.849-42.785
			l-42.785,13.849L300.945,491.014z"/>
		<path fill="#89D3DF" d="M336.909,379.813c11.781-3.928,18.188-16.536,14.468-28.317c-3.927-11.781-16.535-18.188-28.316-14.468
			l-178.583,58.08c-10.954,3.928-17.155,15.915-13.848,27.283c3.514,11.988,16.122,19.223,27.696,15.296
			C158.74,437.688,336.909,379.813,336.909,379.813z"/>
		<path fill="#258B74" d="M181.683,430.246c11.575-3.721,26.663-8.681,42.785-13.849c-5.167-16.122-10.128-31.21-13.849-42.785
			l-42.785,13.849L181.683,430.246z"/>
		<path fill="#819C3C" d="M271.594,401.103c16.122-5.167,31.211-10.128,42.785-13.849c-5.167-16.122-10.128-31.21-13.848-42.785
			l-42.786,13.849L271.594,401.103z"/>
	</g>
</g>
<path fill="#2D333A" d="M547.322,368.858c7.854,3.514,8.475,5.994,2.274,17.775c-6.408,11.988-7.854,12.815-15.709,9.715
	c-9.715-4.134-22.323-7.234-30.384-7.234c-13.229,0-21.909,4.754-21.909,11.988c0,23.77,75.649,10.955,75.649,61.388
	c0,25.423-21.909,42.372-54.567,42.372c-17.155,0-38.444-5.787-53.12-13.229c-7.233-3.721-7.854-5.787-1.446-17.982
	c5.374-10.541,7.234-11.781,15.088-8.474c12.402,5.374,28.317,9.714,38.858,9.714c11.988,0,20.05-4.96,20.05-11.988
	c0-22.942-77.097-11.987-77.097-60.974c0-26.044,21.703-43.406,54.153-43.406C514.871,358.317,534.094,362.864,547.322,368.858z"/>
<path fill="#2D333A" d="M608.503,308.918v188.503c0,2.895-3.101,5.788-7.234,5.788h-19.843c-4.341,0-7.234-3.101-7.234-5.788
	V308.918c0-9.301,2.688-10.128,17.156-10.128C607.883,298.583,608.503,299.823,608.503,308.918z"/>
<path fill="#2D333A" d="M749.467,414.744v81.23c0,4.341-3.1,7.234-7.234,7.234h-19.636c-4.547,0-7.647-3.308-7.233-7.854
	l0.206-8.681c-10.541,11.781-25.836,17.981-41.132,17.981c-29.557,0-49.399-17.155-49.399-42.578
	c0-27.077,22.323-45.473,56.014-45.473c12.815,0,24.39,2.273,33.897,6.201v-9.302c0-14.882-11.781-23.77-31.83-23.77
	c-9.302,0-20.876,3.721-29.971,9.095c-7.027,3.927-8.682,3.721-16.329-7.647c-7.44-11.368-7.233-13.436,0-18.189
	c13.849-8.888,32.451-14.675,49.606-14.675C725.077,358.317,749.467,379.193,749.467,414.744z M658.11,461.87
	c0,9.715,8.268,16.122,20.462,16.122c14.882,0,28.523-7.234,36.378-19.429v-12.608c-7.854-3.101-17.568-4.754-26.043-4.754
	C670.304,441.201,658.11,449.882,658.11,461.87z"/>
<path fill="#2D333A" d="M883.818,369.065c7.234,4.134,7.44,6.407-0.413,18.603c-7.441,11.574-8.682,12.194-16.742,8.268
	c-5.994-3.101-15.709-5.788-23.563-5.788c-24.803,0-41.338,16.329-41.338,41.132c0,25.63,16.535,42.992,41.338,42.992
	c8.682,0,19.43-3.307,26.457-7.234c7.234-4.134,8.681-3.927,16.329,7.234c6.82,10.335,6.82,12.815,0.619,17.156
	c-11.161,7.647-28.523,13.435-44.025,13.435c-45.886,0-76.683-29.351-76.683-73.583c0-43.818,30.797-72.962,77.097-72.962
	C856.948,358.317,873.483,363.071,883.818,369.065z"/>
<path fill="#2D333A" d="M1033.876,485.434c5.788,7.233,3.515,9.921-10.954,15.088c-14.676,5.374-16.742,4.961-21.91-1.653
	l-41.131-54.773l-18.396,17.775v35.551c0,2.895-3.1,5.788-7.234,5.788h-19.842c-4.341,0-7.234-3.101-7.234-5.788V308.918
	c0-9.301,2.687-10.128,17.155-10.128c16.742,0,17.155,1.24,17.155,10.128v107.066l56.221-53.946
	c6.201-5.788,9.715-5.374,20.669,1.859c12.195,7.854,13.022,10.128,7.234,15.709l-41.752,40.925L1033.876,485.434z"/>
</svg>
