<?xml version="1.0" encoding="utf-8"?>
<!-- Generator: Adobe Illustrator 16.0.0, SVG Export Plug-In . SVG Version: 6.00 Build 0)  -->
<!DOCTYPE svg PUBLIC "-//W3C//DTD SVG 1.1//EN" "http://www.w3.org/Graphics/SVG/1.1/DTD/svg11.dtd">
<svg version="1.1" id="Layer_1" xmlns="http://www.w3.org/2000/svg" xmlns:xlink="http://www.w3.org/1999/xlink" x="0px" y="0px"
	 width="1667px" height="2500px" viewBox="0 0 1667 2500" enable-background="new 0 0 1667 2500" xml:space="preserve">
<title>Figma.logo</title>
<desc>Created using Figma</desc>
<path id="path0_fill" fill="#0ACF83" d="M416.833,2500c230,0,416.667-186.667,416.667-416.667v-416.666H416.833
	c-230,0-416.667,186.666-416.667,416.666S186.833,2500,416.833,2500z"/>
<path id="path1_fill" fill="#A259FF" d="M0.167,1250c0-230,186.667-416.667,416.667-416.667H833.5v833.334H416.833
	C186.833,1666.667,0.167,1480,0.167,1250z"/>
<path id="path1_fill_1_" fill="#F24E1E" d="M0.167,416.667C0.167,186.667,186.833,0,416.833,0H833.5v833.333H416.833
	C186.833,833.333,0.167,646.667,0.167,416.667z"/>
<path id="path2_fill" fill="#FF7262" d="M833.5,0h416.667c230,0,416.666,186.667,416.666,416.667
	c0,230-186.666,416.666-416.666,416.666H833.5V0z"/>
<path id="path3_fill" fill="#1ABCFE" d="M1666.833,1250c0,230-186.666,416.667-416.666,416.667S833.5,1480,833.5,1250
	s186.667-416.667,416.667-416.667S1666.833,1020,1666.833,1250z"/>
</svg>
