<?xml version="1.0" encoding="utf-8"?>
<!-- Generator: Adobe Illustrator 16.0.0, SVG Export Plug-In . SVG Version: 6.00 Build 0)  -->
<!DOCTYPE svg PUBLIC "-//W3C//DTD SVG 1.1//EN" "http://www.w3.org/Graphics/SVG/1.1/DTD/svg11.dtd">
<svg version="1.1" id="Layer_1" xmlns="http://www.w3.org/2000/svg" xmlns:xlink="http://www.w3.org/1999/xlink" x="0px" y="0px"
	 width="195.5px" height="54.333px" viewBox="2.25 22.5 195.5 54.333" enable-background="new 2.25 22.5 195.5 54.333"
	 xml:space="preserve">
<g>
	<path fill="#0B0000" d="M40.77,46.249H24.578c-0.418,0-0.756,0.339-0.756,0.757v7.916c0,0.418,0.338,0.758,0.756,0.758h6.316v9.836
		c0,0-1.418,0.483-5.339,0.483c-4.626,0-11.089-1.69-11.089-15.901c0-14.213,6.729-16.083,13.047-16.083
		c5.469,0,7.825,0.963,9.324,1.427c0.471,0.144,0.906-0.325,0.906-0.743l1.807-7.649c0-0.195-0.066-0.431-0.289-0.591
		c-0.609-0.435-4.323-2.513-13.706-2.513c-10.81,0-21.897,4.599-21.897,26.707S16.352,76.055,27.05,76.055
		c8.857,0,14.23-3.785,14.23-3.785c0.221-0.121,0.246-0.433,0.246-0.574V47.006C41.526,46.588,41.188,46.249,40.77,46.249z"/>
	<path fill="#0B0000" d="M124.215,26.595c0-0.421-0.334-0.761-0.752-0.761h-9.115c-0.418,0-0.756,0.34-0.756,0.761
		c0,0.002,0.002,17.619,0.002,17.619H99.383V26.595c0-0.421-0.335-0.761-0.752-0.761h-9.117c-0.415,0-0.753,0.34-0.753,0.761v47.706
		c0,0.422,0.338,0.764,0.753,0.764h9.117c0.417,0,0.752-0.342,0.752-0.764V53.896h14.211c0,0-0.025,20.403-0.025,20.404
		c0,0.422,0.34,0.764,0.757,0.764h9.139c0.417,0,0.751-0.342,0.752-0.764L124.215,26.595L124.215,26.595z"/>
	<g>
		<g>
			<path fill="#0B0000" d="M57.974,32.855c0-3.283-2.632-5.936-5.879-5.936c-3.244,0-5.878,2.653-5.878,5.936
				c0,3.279,2.634,5.939,5.878,5.939C55.342,38.794,57.974,36.134,57.974,32.855z"/>
			<path fill="#0B0000" d="M57.322,64.236c0-1.221,0-22.021,0-22.021c0-0.418-0.337-0.76-0.754-0.76H47.48
				c-0.417,0-0.79,0.43-0.79,0.848c0,0,0,26.498,0,31.549c0,0.928,0.578,1.203,1.326,1.203c0,0,3.879,0,8.188,0
				c0.898,0,1.119-0.44,1.119-1.218C57.322,72.148,57.322,65.523,57.322,64.236z"/>
		</g>
	</g>
	<path fill="#0B0000" d="M158.861,41.528h-9.045c-0.416,0-0.754,0.342-0.754,0.763v23.393c0,0-2.299,1.682-5.561,1.682
		c-3.264,0-4.128-1.48-4.128-4.674c0-3.198,0-20.399,0-20.399c0-0.421-0.337-0.763-0.752-0.763h-9.183
		c-0.414,0-0.754,0.342-0.754,0.763c0,0,0,12.457,0,21.944c0,9.486,5.287,11.808,12.562,11.808c5.968,0,10.778-3.297,10.778-3.297
		s0.229,1.737,0.334,1.942c0.104,0.207,0.373,0.414,0.664,0.414l5.842-0.025c0.414,0,0.755-0.344,0.755-0.762l-0.005-32.024
		C159.617,41.87,159.279,41.528,158.861,41.528z"/>
	<path fill="#0B0000" d="M183.59,40.457c-5.139,0-8.634,2.292-8.634,2.292V26.595c0-0.421-0.337-0.761-0.752-0.761h-9.144
		c-0.416,0-0.754,0.34-0.754,0.761v47.706c0,0.422,0.338,0.764,0.756,0.764c0,0,6.34,0,6.342,0c0.287,0,0.502-0.146,0.662-0.404
		c0.158-0.256,0.386-2.199,0.386-2.199s3.739,3.543,10.815,3.543c8.31,0,13.073-4.215,13.073-18.92S188.73,40.457,183.59,40.457z
		 M180.021,67.336c-3.14-0.096-5.268-1.521-5.268-1.521V50.708c0,0,2.1-1.287,4.676-1.517c3.258-0.292,6.397,0.692,6.397,8.464
		C185.828,65.852,184.411,67.468,180.021,67.336z"/>
	<path fill="#0B0000" d="M83.524,41.452h-6.838c0,0-0.01-9.033-0.01-9.035c0-0.342-0.176-0.513-0.572-0.513h-9.319
		c-0.362,0-0.557,0.16-0.557,0.508v9.336c0,0-4.671,1.127-4.986,1.218c-0.314,0.091-0.546,0.381-0.546,0.728v5.867
		c0,0.422,0.337,0.762,0.754,0.762h4.778c0,0,0,6.136,0,14.114c0,10.482,7.354,11.514,12.315,11.514
		c2.268,0,4.979-0.729,5.428-0.895c0.271-0.1,0.428-0.381,0.428-0.685l0.007-6.454c0-0.421-0.354-0.762-0.755-0.762
		c-0.399,0-1.418,0.162-2.468,0.162c-3.359,0-4.497-1.562-4.497-3.584c0-2.021,0-13.412,0-13.412h6.839
		c0.417,0,0.755-0.34,0.755-0.762v-7.349C84.279,41.791,83.941,41.452,83.524,41.452z"/>
</g>
</svg>
